G04 #@! TF.GenerationSoftware,KiCad,Pcbnew,7.0.1*
G04 #@! TF.CreationDate,2023-07-18T11:36:22-07:00*
G04 #@! TF.ProjectId,keyboard-left,6b657962-6f61-4726-942d-6c6566742e6b,rev?*
G04 #@! TF.SameCoordinates,Original*
G04 #@! TF.FileFunction,Profile,NP*
%FSLAX46Y46*%
G04 Gerber Fmt 4.6, Leading zero omitted, Abs format (unit mm)*
G04 Created by KiCad (PCBNEW 7.0.1) date 2023-07-18 11:36:22*
%MOMM*%
%LPD*%
G01*
G04 APERTURE LIST*
G04 #@! TA.AperFunction,Profile*
%ADD10C,0.038100*%
G04 #@! TD*
G04 #@! TA.AperFunction,Profile*
%ADD11C,0.120000*%
G04 #@! TD*
G04 APERTURE END LIST*
D10*
X45720000Y-133858000D02*
X45720000Y-111760000D01*
X184150000Y-133858000D02*
X45720000Y-133858000D01*
X188976000Y-57658000D02*
X179578000Y-57658000D01*
X179578000Y-57658000D02*
X179578000Y-76962000D01*
X179578000Y-76962000D02*
X184150000Y-76962000D01*
X198374000Y-33782000D02*
X188976000Y-33782000D01*
X184150000Y-114808000D02*
X184150000Y-133858000D01*
X193802000Y-96012000D02*
X193802000Y-114808000D01*
X191516000Y0D02*
X195834000Y0D01*
X198374000Y-2540000D02*
G75*
G03*
X195834000Y0I-2540000J0D01*
G01*
X184150000Y-76962000D02*
X184150000Y-96012000D01*
X172720000Y0D02*
X182118000Y-9398000D01*
X193802000Y-114808000D02*
X184150000Y-114808000D01*
X184150000Y-96012000D02*
X193802000Y-96012000D01*
X45720000Y-111760000D02*
X5080000Y-111760000D01*
X5080000Y-111760000D02*
X5080000Y0D01*
X5080000Y0D02*
X172720000Y0D01*
X182118000Y-9398000D02*
X191516000Y0D01*
X188976000Y-33782000D02*
X188976000Y-57658000D01*
X198374000Y-2540000D02*
X198374000Y-33782000D01*
D11*
X67740000Y-4040000D02*
X67740000Y-1040000D01*
X67740000Y-1040000D02*
X64340000Y-1040000D01*
X64340000Y-4040000D02*
X67740000Y-4040000D01*
X64340000Y-1040000D02*
X64340000Y-4040000D01*
X49506000Y-117426000D02*
X46506000Y-117426000D01*
X46506000Y-117426000D02*
X46506000Y-120826000D01*
X49506000Y-120826000D02*
X49506000Y-117426000D01*
X46506000Y-120826000D02*
X49506000Y-120826000D01*
X151560000Y-4040000D02*
X151560000Y-1040000D01*
X151560000Y-1040000D02*
X148160000Y-1040000D01*
X148160000Y-4040000D02*
X151560000Y-4040000D01*
X148160000Y-1040000D02*
X148160000Y-4040000D01*
X147908800Y-111910000D02*
X147908800Y-108910000D01*
X147908800Y-108910000D02*
X144508800Y-108910000D01*
X144508800Y-111910000D02*
X147908800Y-111910000D01*
X144508800Y-108910000D02*
X144508800Y-111910000D01*
X181246300Y-54760000D02*
X181246300Y-51760000D01*
X181246300Y-51760000D02*
X177846300Y-51760000D01*
X177846300Y-54760000D02*
X181246300Y-54760000D01*
X177846300Y-51760000D02*
X177846300Y-54760000D01*
X116952500Y-130960000D02*
X116952500Y-127960000D01*
X116952500Y-127960000D02*
X113552500Y-127960000D01*
X113552500Y-130960000D02*
X116952500Y-130960000D01*
X113552500Y-127960000D02*
X113552500Y-130960000D01*
X147908800Y-30947500D02*
X147908800Y-27947500D01*
X147908800Y-27947500D02*
X144508800Y-27947500D01*
X144508800Y-30947500D02*
X147908800Y-30947500D01*
X144508800Y-27947500D02*
X144508800Y-30947500D01*
X105046300Y-54760000D02*
X105046300Y-51760000D01*
X105046300Y-51760000D02*
X101646300Y-51760000D01*
X101646300Y-54760000D02*
X105046300Y-54760000D01*
X101646300Y-51760000D02*
X101646300Y-54760000D01*
X176483800Y-92860000D02*
X176483800Y-89860000D01*
X176483800Y-89860000D02*
X173083800Y-89860000D01*
X173083800Y-92860000D02*
X176483800Y-92860000D01*
X173083800Y-89860000D02*
X173083800Y-92860000D01*
X128858800Y-30947500D02*
X128858800Y-27947500D01*
X128858800Y-27947500D02*
X125458800Y-27947500D01*
X125458800Y-30947500D02*
X128858800Y-30947500D01*
X125458800Y-27947500D02*
X125458800Y-30947500D01*
X66946300Y-54760000D02*
X66946300Y-51760000D01*
X66946300Y-51760000D02*
X63546300Y-51760000D01*
X63546300Y-54760000D02*
X66946300Y-54760000D01*
X63546300Y-51760000D02*
X63546300Y-54760000D01*
X133621300Y-73810000D02*
X133621300Y-70810000D01*
X133621300Y-70810000D02*
X130221300Y-70810000D01*
X130221300Y-73810000D02*
X133621300Y-73810000D01*
X130221300Y-70810000D02*
X130221300Y-73810000D01*
X78852500Y-111910000D02*
X78852500Y-108910000D01*
X78852500Y-108910000D02*
X75452500Y-108910000D01*
X75452500Y-111910000D02*
X78852500Y-111910000D01*
X75452500Y-108910000D02*
X75452500Y-111910000D01*
X143146300Y-54760000D02*
X143146300Y-51760000D01*
X143146300Y-51760000D02*
X139746300Y-51760000D01*
X139746300Y-54760000D02*
X143146300Y-54760000D01*
X139746300Y-51760000D02*
X139746300Y-54760000D01*
X90758800Y-30947500D02*
X90758800Y-27947500D01*
X90758800Y-27947500D02*
X87358800Y-27947500D01*
X87358800Y-30947500D02*
X90758800Y-30947500D01*
X87358800Y-27947500D02*
X87358800Y-30947500D01*
X71708800Y-73810000D02*
X71708800Y-70810000D01*
X71708800Y-70810000D02*
X68308800Y-70810000D01*
X68308800Y-73810000D02*
X71708800Y-73810000D01*
X68308800Y-70810000D02*
X68308800Y-73810000D01*
X81202000Y-132310000D02*
X81202000Y-129310000D01*
X81202000Y-129310000D02*
X77802000Y-129310000D01*
X77802000Y-132310000D02*
X81202000Y-132310000D01*
X77802000Y-129310000D02*
X77802000Y-132310000D01*
X114571300Y-73810000D02*
X114571300Y-70810000D01*
X114571300Y-70810000D02*
X111171300Y-70810000D01*
X111171300Y-73810000D02*
X114571300Y-73810000D01*
X111171300Y-70810000D02*
X111171300Y-73810000D01*
X109808800Y-111910000D02*
X109808800Y-108910000D01*
X109808800Y-108910000D02*
X106408800Y-108910000D01*
X106408800Y-111910000D02*
X109808800Y-111910000D01*
X106408800Y-108910000D02*
X106408800Y-111910000D01*
X9120000Y-51640000D02*
X6120000Y-51640000D01*
X6120000Y-51640000D02*
X6120000Y-55040000D01*
X9120000Y-55040000D02*
X9120000Y-51640000D01*
X6120000Y-55040000D02*
X9120000Y-55040000D01*
X190771300Y-30947500D02*
X190771300Y-27947500D01*
X190771300Y-27947500D02*
X187371300Y-27947500D01*
X187371300Y-30947500D02*
X190771300Y-30947500D01*
X187371300Y-27947500D02*
X187371300Y-30947500D01*
X108380000Y-4040000D02*
X108380000Y-1040000D01*
X108380000Y-1040000D02*
X104980000Y-1040000D01*
X104980000Y-4040000D02*
X108380000Y-4040000D01*
X104980000Y-1040000D02*
X104980000Y-4040000D01*
X162196300Y-54760000D02*
X162196300Y-51760000D01*
X162196300Y-51760000D02*
X158796300Y-51760000D01*
X158796300Y-54760000D02*
X162196300Y-54760000D01*
X158796300Y-51760000D02*
X158796300Y-54760000D01*
X66946300Y-30947500D02*
X66946300Y-27947500D01*
X66946300Y-27947500D02*
X63546300Y-27947500D01*
X63546300Y-30947500D02*
X66946300Y-30947500D01*
X63546300Y-27947500D02*
X63546300Y-30947500D01*
X186008800Y-111910000D02*
X186008800Y-108910000D01*
X186008800Y-108910000D02*
X182608800Y-108910000D01*
X182608800Y-111910000D02*
X186008800Y-111910000D01*
X182608800Y-108910000D02*
X182608800Y-111910000D01*
X166958800Y-111910000D02*
X166958800Y-108910000D01*
X166958800Y-108910000D02*
X163558800Y-108910000D01*
X163558800Y-111910000D02*
X166958800Y-111910000D01*
X163558800Y-108910000D02*
X163558800Y-111910000D01*
X100283800Y-92860000D02*
X100283800Y-89860000D01*
X100283800Y-89860000D02*
X96883800Y-89860000D01*
X96883800Y-92860000D02*
X100283800Y-92860000D01*
X96883800Y-89860000D02*
X96883800Y-92860000D01*
X93140000Y-130960000D02*
X93140000Y-127960000D01*
X93140000Y-127960000D02*
X89740000Y-127960000D01*
X89740000Y-130960000D02*
X93140000Y-130960000D01*
X89740000Y-127960000D02*
X89740000Y-130960000D01*
X95521300Y-73810000D02*
X95521300Y-70810000D01*
X95521300Y-70810000D02*
X92121300Y-70810000D01*
X92121300Y-73810000D02*
X95521300Y-73810000D01*
X92121300Y-70810000D02*
X92121300Y-73810000D01*
X119333800Y-92860000D02*
X119333800Y-89860000D01*
X119333800Y-89860000D02*
X115933800Y-89860000D01*
X115933800Y-92860000D02*
X119333800Y-92860000D01*
X115933800Y-89860000D02*
X115933800Y-92860000D01*
X182348000Y-128094000D02*
X179348000Y-128094000D01*
X179348000Y-128094000D02*
X179348000Y-131494000D01*
X182348000Y-131494000D02*
X182348000Y-128094000D01*
X179348000Y-131494000D02*
X182348000Y-131494000D01*
X128700000Y-132564000D02*
X128700000Y-129564000D01*
X128700000Y-129564000D02*
X125300000Y-129564000D01*
X125300000Y-132564000D02*
X128700000Y-132564000D01*
X125300000Y-129564000D02*
X125300000Y-132564000D01*
X74090000Y-92860000D02*
X74090000Y-89860000D01*
X74090000Y-89860000D02*
X70690000Y-89860000D01*
X70690000Y-92860000D02*
X74090000Y-92860000D01*
X70690000Y-89860000D02*
X70690000Y-92860000D01*
X69327500Y-130960000D02*
X69327500Y-127960000D01*
X69327500Y-127960000D02*
X65927500Y-127960000D01*
X65927500Y-130960000D02*
X69327500Y-130960000D01*
X65927500Y-127960000D02*
X65927500Y-130960000D01*
X157433800Y-92860000D02*
X157433800Y-89860000D01*
X157433800Y-89860000D02*
X154033800Y-89860000D01*
X154033800Y-92860000D02*
X157433800Y-92860000D01*
X154033800Y-89860000D02*
X154033800Y-92860000D01*
X9120000Y-77040000D02*
X6120000Y-77040000D01*
X6120000Y-77040000D02*
X6120000Y-80440000D01*
X9120000Y-80440000D02*
X9120000Y-77040000D01*
X6120000Y-80440000D02*
X9120000Y-80440000D01*
X128858800Y-111910000D02*
X128858800Y-108910000D01*
X128858800Y-108910000D02*
X125458800Y-108910000D01*
X125458800Y-111910000D02*
X128858800Y-111910000D01*
X125458800Y-108910000D02*
X125458800Y-111910000D01*
X152671300Y-73810000D02*
X152671300Y-70810000D01*
X152671300Y-70810000D02*
X149271300Y-70810000D01*
X149271300Y-73810000D02*
X152671300Y-73810000D01*
X149271300Y-70810000D02*
X149271300Y-73810000D01*
X29640000Y-110720000D02*
X29640000Y-107720000D01*
X29640000Y-107720000D02*
X26240000Y-107720000D01*
X26240000Y-110720000D02*
X29640000Y-110720000D01*
X26240000Y-107720000D02*
X26240000Y-110720000D01*
X157433800Y-130960000D02*
X157433800Y-127960000D01*
X157433800Y-127960000D02*
X154033800Y-127960000D01*
X154033800Y-130960000D02*
X157433800Y-130960000D01*
X154033800Y-127960000D02*
X154033800Y-130960000D01*
X109808800Y-30947500D02*
X109808800Y-27947500D01*
X109808800Y-27947500D02*
X106408800Y-27947500D01*
X106408800Y-30947500D02*
X109808800Y-30947500D01*
X106408800Y-27947500D02*
X106408800Y-30947500D01*
X85996300Y-54760000D02*
X85996300Y-51760000D01*
X85996300Y-51760000D02*
X82596300Y-51760000D01*
X82596300Y-54760000D02*
X85996300Y-54760000D01*
X82596300Y-51760000D02*
X82596300Y-54760000D01*
X138383800Y-92860000D02*
X138383800Y-89860000D01*
X138383800Y-89860000D02*
X134983800Y-89860000D01*
X134983800Y-92860000D02*
X138383800Y-92860000D01*
X134983800Y-89860000D02*
X134983800Y-92860000D01*
X171721300Y-30947500D02*
X171721300Y-27947500D01*
X171721300Y-27947500D02*
X168321300Y-27947500D01*
X168321300Y-30947500D02*
X171721300Y-30947500D01*
X168321300Y-27947500D02*
X168321300Y-30947500D01*
X124096300Y-54760000D02*
X124096300Y-51760000D01*
X124096300Y-51760000D02*
X120696300Y-51760000D01*
X120696300Y-54760000D02*
X124096300Y-54760000D01*
X120696300Y-51760000D02*
X120696300Y-54760000D01*
X171721300Y-73810000D02*
X171721300Y-70810000D01*
X171721300Y-70810000D02*
X168321300Y-70810000D01*
X168321300Y-73810000D02*
X171721300Y-73810000D01*
X168321300Y-70810000D02*
X168321300Y-73810000D01*
X9120000Y-11000000D02*
X6120000Y-11000000D01*
X6120000Y-11000000D02*
X6120000Y-14400000D01*
X9120000Y-14400000D02*
X9120000Y-11000000D01*
X6120000Y-14400000D02*
X9120000Y-14400000D01*
M02*
