G04 #@! TF.GenerationSoftware,KiCad,Pcbnew,7.0.1*
G04 #@! TF.CreationDate,2023-07-18T11:36:22-07:00*
G04 #@! TF.ProjectId,keyboard-left,6b657962-6f61-4726-942d-6c6566742e6b,rev?*
G04 #@! TF.SameCoordinates,Original*
G04 #@! TF.FileFunction,Soldermask,Top*
G04 #@! TF.FilePolarity,Negative*
%FSLAX46Y46*%
G04 Gerber Fmt 4.6, Leading zero omitted, Abs format (unit mm)*
G04 Created by KiCad (PCBNEW 7.0.1) date 2023-07-18 11:36:22*
%MOMM*%
%LPD*%
G01*
G04 APERTURE LIST*
G04 Aperture macros list*
%AMRoundRect*
0 Rectangle with rounded corners*
0 $1 Rounding radius*
0 $2 $3 $4 $5 $6 $7 $8 $9 X,Y pos of 4 corners*
0 Add a 4 corners polygon primitive as box body*
4,1,4,$2,$3,$4,$5,$6,$7,$8,$9,$2,$3,0*
0 Add four circle primitives for the rounded corners*
1,1,$1+$1,$2,$3*
1,1,$1+$1,$4,$5*
1,1,$1+$1,$6,$7*
1,1,$1+$1,$8,$9*
0 Add four rect primitives between the rounded corners*
20,1,$1+$1,$2,$3,$4,$5,0*
20,1,$1+$1,$4,$5,$6,$7,0*
20,1,$1+$1,$6,$7,$8,$9,0*
20,1,$1+$1,$8,$9,$2,$3,0*%
%AMRotRect*
0 Rectangle, with rotation*
0 The origin of the aperture is its center*
0 $1 length*
0 $2 width*
0 $3 Rotation angle, in degrees counterclockwise*
0 Add horizontal line*
21,1,$1,$2,0,0,$3*%
G04 Aperture macros list end*
%ADD10C,2.000000*%
%ADD11R,3.200000X2.000000*%
%ADD12RoundRect,0.250000X-0.300000X0.300000X-0.300000X-0.300000X0.300000X-0.300000X0.300000X0.300000X0*%
%ADD13C,1.750000*%
%ADD14C,3.987800*%
%ADD15RoundRect,0.350000X-0.500500X-0.350000X0.500500X-0.350000X0.500500X0.350000X-0.500500X0.350000X0*%
%ADD16RoundRect,0.123750X0.123750X-0.656250X0.123750X0.656250X-0.123750X0.656250X-0.123750X-0.656250X0*%
%ADD17RoundRect,0.300000X0.550500X0.300000X-0.550500X0.300000X-0.550500X-0.300000X0.550500X-0.300000X0*%
%ADD18C,0.800000*%
%ADD19C,6.400000*%
%ADD20RoundRect,0.350000X0.350000X-0.500500X0.350000X0.500500X-0.350000X0.500500X-0.350000X-0.500500X0*%
%ADD21C,3.000000*%
%ADD22RoundRect,0.150000X0.150000X-0.825000X0.150000X0.825000X-0.150000X0.825000X-0.150000X-0.825000X0*%
%ADD23RoundRect,0.350000X0.500500X0.350000X-0.500500X0.350000X-0.500500X-0.350000X0.500500X-0.350000X0*%
%ADD24RoundRect,0.250000X0.625000X-0.375000X0.625000X0.375000X-0.625000X0.375000X-0.625000X-0.375000X0*%
%ADD25RoundRect,0.123750X-0.656250X-0.123750X0.656250X-0.123750X0.656250X0.123750X-0.656250X0.123750X0*%
%ADD26RoundRect,0.350000X-0.350000X0.500500X-0.350000X-0.500500X0.350000X-0.500500X0.350000X0.500500X0*%
%ADD27C,3.048000*%
%ADD28RoundRect,0.250000X0.787500X0.925000X-0.787500X0.925000X-0.787500X-0.925000X0.787500X-0.925000X0*%
%ADD29RoundRect,0.123750X-0.123750X0.656250X-0.123750X-0.656250X0.123750X-0.656250X0.123750X0.656250X0*%
%ADD30C,0.650000*%
%ADD31RotRect,0.600000X2.450000X135.000000*%
%ADD32RotRect,0.300000X2.450000X135.000000*%
%ADD33RoundRect,0.300000X-0.300000X0.550500X-0.300000X-0.550500X0.300000X-0.550500X0.300000X0.550500X0*%
%ADD34C,1.500000*%
%ADD35C,3.300000*%
%ADD36C,1.600000*%
%ADD37R,0.600000X2.450000*%
%ADD38R,0.300000X2.450000*%
%ADD39O,3.000000X1.000000*%
%ADD40RoundRect,0.250000X0.925000X-0.787500X0.925000X0.787500X-0.925000X0.787500X-0.925000X-0.787500X0*%
%ADD41R,1.600000X1.600000*%
%ADD42O,1.600000X1.600000*%
G04 APERTURE END LIST*
D10*
X10121300Y-21947500D03*
X10121300Y-26947500D03*
X10121300Y-24447500D03*
D11*
X17621300Y-18847500D03*
X17621300Y-30047500D03*
D10*
X24621300Y-26947500D03*
X24621300Y-21947500D03*
D12*
X27940000Y-3767900D03*
X27940000Y-6567900D03*
D13*
X160178800Y-105410000D03*
D14*
X165258800Y-105410000D03*
D13*
X170338800Y-105410000D03*
D15*
X146577000Y-39878000D03*
X149079000Y-39878000D03*
D16*
X46040000Y-23020000D03*
X46990000Y-23020000D03*
X47940000Y-23020000D03*
X47940000Y-20320000D03*
X46990000Y-20320000D03*
X46040000Y-20320000D03*
D17*
X37611000Y-25660000D03*
X33509000Y-25660000D03*
D18*
X8602900Y-5080000D03*
X9305844Y-3382944D03*
X9305844Y-6777056D03*
X11002900Y-2680000D03*
D19*
X11002900Y-5080000D03*
D18*
X11002900Y-7480000D03*
X12699956Y-3382944D03*
X12699956Y-6777056D03*
X13402900Y-5080000D03*
D13*
X79216300Y-48260000D03*
D14*
X84296300Y-48260000D03*
D13*
X89376300Y-48260000D03*
D20*
X146640000Y-13951000D03*
X146640000Y-11449000D03*
X177292000Y-38335000D03*
X177292000Y-35833000D03*
D13*
X62547500Y-124460000D03*
D21*
X63817500Y-121920000D03*
D14*
X67627500Y-124460000D03*
D21*
X70167500Y-119380000D03*
D13*
X72707500Y-124460000D03*
X164941300Y-67310000D03*
D14*
X170021300Y-67310000D03*
D13*
X175101300Y-67310000D03*
D22*
X44069000Y-75873000D03*
X45339000Y-75873000D03*
X46609000Y-75873000D03*
X47879000Y-75873000D03*
X47879000Y-69923000D03*
X46609000Y-69923000D03*
X45339000Y-69923000D03*
X44069000Y-69923000D03*
D18*
X7760000Y-106680000D03*
X8462944Y-104982944D03*
X8462944Y-108377056D03*
X10160000Y-104280000D03*
D19*
X10160000Y-106680000D03*
D18*
X10160000Y-109080000D03*
X11857056Y-104982944D03*
X11857056Y-108377056D03*
X12560000Y-106680000D03*
X48400000Y-106680000D03*
X49102944Y-104982944D03*
X49102944Y-108377056D03*
X50800000Y-104280000D03*
D19*
X50800000Y-106680000D03*
D18*
X50800000Y-109080000D03*
X52497056Y-104982944D03*
X52497056Y-108377056D03*
X53200000Y-106680000D03*
D23*
X24111000Y-58928000D03*
X21609000Y-58928000D03*
D20*
X168148000Y-38335000D03*
X168148000Y-35833000D03*
D18*
X50940000Y-5080000D03*
X51642944Y-3382944D03*
X51642944Y-6777056D03*
X53340000Y-2680000D03*
D19*
X53340000Y-5080000D03*
D18*
X53340000Y-7480000D03*
X55037056Y-3382944D03*
X55037056Y-6777056D03*
X55740000Y-5080000D03*
D13*
X164941300Y-24447500D03*
D14*
X170021300Y-24447500D03*
D13*
X175101300Y-24447500D03*
D24*
X132080000Y-11560000D03*
X132080000Y-8760000D03*
D18*
X30780000Y-5099000D03*
X31482944Y-3401944D03*
X31482944Y-6796056D03*
X33180000Y-2699000D03*
D19*
X33180000Y-5099000D03*
D18*
X33180000Y-7499000D03*
X34877056Y-3401944D03*
X34877056Y-6796056D03*
X35580000Y-5099000D03*
D13*
X141128800Y-105410000D03*
D14*
X146208800Y-105410000D03*
D13*
X151288800Y-105410000D03*
X117316300Y-48260000D03*
D14*
X122396300Y-48260000D03*
D13*
X127476300Y-48260000D03*
D18*
X164683800Y-124460000D03*
X165386744Y-122762944D03*
X165386744Y-126157056D03*
X167083800Y-122060000D03*
D19*
X167083800Y-124460000D03*
D18*
X167083800Y-126860000D03*
X168780856Y-122762944D03*
X168780856Y-126157056D03*
X169483800Y-124460000D03*
D23*
X15221000Y-72980000D03*
X12719000Y-72980000D03*
D25*
X183054000Y-32578000D03*
X183054000Y-34478000D03*
X185754000Y-33528000D03*
D13*
X64928800Y-67310000D03*
D21*
X66198800Y-64770000D03*
D14*
X70008800Y-67310000D03*
D21*
X72548800Y-62230000D03*
D13*
X75088800Y-67310000D03*
D26*
X33704500Y-50419300D03*
X33704500Y-52921300D03*
D20*
X22180000Y-40640000D03*
X22180000Y-38138000D03*
D27*
X65214500Y-98425000D03*
D14*
X65214500Y-113665000D03*
D13*
X72072500Y-105410000D03*
D21*
X73342500Y-102870000D03*
D14*
X77152500Y-105410000D03*
D21*
X79692500Y-100330000D03*
D13*
X82232500Y-105410000D03*
D27*
X89090500Y-98425000D03*
D14*
X89090500Y-113665000D03*
D13*
X60166300Y-48260000D03*
D14*
X65246300Y-48260000D03*
D13*
X70326300Y-48260000D03*
D25*
X37434500Y-53461300D03*
X37434500Y-54411300D03*
X37434500Y-55361300D03*
X40134500Y-55361300D03*
X40134500Y-54411300D03*
X40134500Y-53461300D03*
D15*
X151657000Y-35306000D03*
X154159000Y-35306000D03*
D13*
X103028800Y-105410000D03*
D14*
X108108800Y-105410000D03*
D13*
X113188800Y-105410000D03*
X174466300Y-48260000D03*
D14*
X179546300Y-48260000D03*
D13*
X184626300Y-48260000D03*
D25*
X27612000Y-93096000D03*
X27612000Y-94996000D03*
X30312000Y-94046000D03*
D15*
X151657000Y-33020000D03*
X154159000Y-33020000D03*
D26*
X58420000Y-3829000D03*
X58420000Y-6331000D03*
D15*
X26435000Y-83312000D03*
X28937000Y-83312000D03*
D18*
X47892000Y-129286000D03*
X48594944Y-127588944D03*
X48594944Y-130983056D03*
X50292000Y-126886000D03*
D19*
X50292000Y-129286000D03*
D18*
X50292000Y-131686000D03*
X51989056Y-127588944D03*
X51989056Y-130983056D03*
X52692000Y-129286000D03*
D28*
X146226500Y-6350000D03*
X141301500Y-6350000D03*
D29*
X37780000Y-37940000D03*
X36830000Y-37940000D03*
X35880000Y-37940000D03*
X35880000Y-40640000D03*
X37780000Y-40640000D03*
D20*
X148840000Y-13951000D03*
X148840000Y-11449000D03*
X144440000Y-13951000D03*
X144440000Y-11449000D03*
D26*
X41952000Y-78516000D03*
X41952000Y-81018000D03*
D20*
X142240000Y-13951000D03*
X142240000Y-11449000D03*
D15*
X141497000Y-39878000D03*
X143999000Y-39878000D03*
D16*
X25720000Y-12780000D03*
X27620000Y-12780000D03*
X26670000Y-10080000D03*
D30*
X175589021Y-10616056D03*
X171501944Y-6528979D03*
D31*
X174450579Y-12228259D03*
X173902572Y-11680252D03*
D32*
X173054043Y-10831724D03*
X172346937Y-10124617D03*
X171993383Y-9771063D03*
D31*
X169889741Y-7667421D03*
X170437748Y-8215428D03*
D32*
X170932723Y-8710403D03*
X171639830Y-9417510D03*
X172700490Y-10478170D03*
X173407597Y-11185277D03*
X171286276Y-9063957D03*
D20*
X17780000Y-40640000D03*
X17780000Y-38138000D03*
X170434000Y-38335000D03*
X170434000Y-35833000D03*
D23*
X15221000Y-70780000D03*
X12719000Y-70780000D03*
D20*
X134620000Y-11411000D03*
X134620000Y-8909000D03*
D26*
X144272000Y-129305000D03*
X144272000Y-131807000D03*
D23*
X15221000Y-75180000D03*
X12719000Y-75180000D03*
D20*
X153240000Y-13951000D03*
X153240000Y-11449000D03*
D13*
X110172500Y-124460000D03*
D21*
X111442500Y-121920000D03*
D14*
X115252500Y-124460000D03*
D21*
X117792500Y-119380000D03*
D13*
X120332500Y-124460000D03*
X67310000Y-86360000D03*
D21*
X68580000Y-83820000D03*
D14*
X72390000Y-86360000D03*
D21*
X74930000Y-81280000D03*
D13*
X77470000Y-86360000D03*
X83978800Y-24447500D03*
D14*
X89058800Y-24447500D03*
D13*
X94138800Y-24447500D03*
D25*
X120570000Y-9210000D03*
X120570000Y-11110000D03*
X123270000Y-10160000D03*
D28*
X41324500Y-59271300D03*
X36399500Y-59271300D03*
D23*
X45866000Y-106680000D03*
X43364000Y-106680000D03*
D13*
X126841300Y-67310000D03*
D14*
X131921300Y-67310000D03*
D13*
X137001300Y-67310000D03*
X169703800Y-86360000D03*
D14*
X174783800Y-86360000D03*
D13*
X179863800Y-86360000D03*
D20*
X19980000Y-40640000D03*
X19980000Y-38138000D03*
D24*
X40640000Y-25660000D03*
X40640000Y-22860000D03*
D13*
X141128800Y-24447500D03*
D14*
X146208800Y-24447500D03*
D13*
X151288800Y-24447500D03*
X150653800Y-86360000D03*
D14*
X155733800Y-86360000D03*
D13*
X160813800Y-86360000D03*
D20*
X172720000Y-38335000D03*
X172720000Y-35833000D03*
D15*
X32969000Y-15539000D03*
X35471000Y-15539000D03*
X151657000Y-37592000D03*
X154159000Y-37592000D03*
D33*
X129540000Y-8109000D03*
X129540000Y-12211000D03*
D13*
X98266300Y-48260000D03*
D14*
X103346300Y-48260000D03*
D13*
X108426300Y-48260000D03*
D15*
X13989000Y-10160000D03*
X16491000Y-10160000D03*
X32969000Y-19939000D03*
X35471000Y-19939000D03*
D18*
X162700000Y-5080000D03*
X163402944Y-3382944D03*
X163402944Y-6777056D03*
X165100000Y-2680000D03*
D19*
X165100000Y-5080000D03*
D18*
X165100000Y-7480000D03*
X166797056Y-3382944D03*
X166797056Y-6777056D03*
X167500000Y-5080000D03*
D20*
X26580000Y-40640000D03*
X26580000Y-38138000D03*
D26*
X41910000Y-69489600D03*
X41910000Y-71991600D03*
D20*
X151040000Y-13951000D03*
X151040000Y-11449000D03*
X40640000Y-19272000D03*
X40640000Y-16770000D03*
D15*
X35899000Y-31670000D03*
X38401000Y-31670000D03*
D13*
X122078800Y-105410000D03*
D14*
X127158800Y-105410000D03*
D13*
X132238800Y-105410000D03*
X86360000Y-124460000D03*
D21*
X87630000Y-121920000D03*
D14*
X91440000Y-124460000D03*
D21*
X93980000Y-119380000D03*
D13*
X96520000Y-124460000D03*
D15*
X38822500Y-47841300D03*
X41324500Y-47841300D03*
D34*
X16550000Y-6580000D03*
X21550000Y-6580000D03*
X16550000Y-3580000D03*
X21550000Y-3580000D03*
D15*
X32969000Y-22139000D03*
X35471000Y-22139000D03*
X189249000Y-10160000D03*
X191751000Y-10160000D03*
X32969000Y-13339000D03*
X35471000Y-13339000D03*
D23*
X170923000Y-77216000D03*
X168421000Y-77216000D03*
D18*
X190640000Y-5080000D03*
X191342944Y-3382944D03*
X191342944Y-6777056D03*
X193040000Y-2680000D03*
D19*
X193040000Y-5080000D03*
D18*
X193040000Y-7480000D03*
X194737056Y-3382944D03*
X194737056Y-6777056D03*
X195440000Y-5080000D03*
D25*
X158670000Y-14290000D03*
X158670000Y-15240000D03*
X158670000Y-16190000D03*
X161370000Y-16190000D03*
X161370000Y-15240000D03*
X161370000Y-14290000D03*
D15*
X16529000Y-106680000D03*
X19031000Y-106680000D03*
D26*
X167132000Y-129305000D03*
X167132000Y-131807000D03*
D13*
X60166300Y-24447500D03*
D14*
X65246300Y-24447500D03*
D13*
X70326300Y-24447500D03*
D20*
X24380000Y-40640000D03*
X24380000Y-38138000D03*
X38100000Y-69831000D03*
X38100000Y-67329000D03*
D15*
X44745000Y-56818000D03*
X47247000Y-56818000D03*
D13*
X103028800Y-24447500D03*
D14*
X108108800Y-24447500D03*
D13*
X113188800Y-24447500D03*
X88741300Y-67310000D03*
D14*
X93821300Y-67310000D03*
D13*
X98901300Y-67310000D03*
D14*
X136683800Y-116205000D03*
D27*
X136683800Y-131445000D03*
D13*
X150653800Y-124460000D03*
D21*
X151923800Y-121920000D03*
D14*
X155733800Y-124460000D03*
D21*
X158273800Y-119380000D03*
D13*
X160813800Y-124460000D03*
D14*
X174783800Y-116205000D03*
D27*
X174783800Y-131445000D03*
D15*
X44707000Y-66978000D03*
X47209000Y-66978000D03*
X32969000Y-11139000D03*
X35471000Y-11139000D03*
D16*
X158054000Y-38180000D03*
X159004000Y-38180000D03*
X159954000Y-38180000D03*
X159954000Y-35480000D03*
X159004000Y-35480000D03*
X158054000Y-35480000D03*
D13*
X136366300Y-48260000D03*
D14*
X141446300Y-48260000D03*
D13*
X146526300Y-48260000D03*
D35*
X10096300Y-36710000D03*
X10096300Y-97910000D03*
X44196300Y-36710000D03*
X44196300Y-97910000D03*
D36*
X16986300Y-99410000D03*
X19526300Y-99410000D03*
X22066300Y-99410000D03*
X24606300Y-99410000D03*
X27146300Y-99410000D03*
X29686300Y-99410000D03*
X32226300Y-99410000D03*
X34766300Y-99410000D03*
X37306300Y-99410000D03*
D18*
X141983800Y-124460000D03*
X142686744Y-122762944D03*
X142686744Y-126157056D03*
X144383800Y-122060000D03*
D19*
X144383800Y-124460000D03*
D18*
X144383800Y-126860000D03*
X146080856Y-122762944D03*
X146080856Y-126157056D03*
X146783800Y-124460000D03*
D25*
X183054000Y-37658000D03*
X183054000Y-39558000D03*
X185754000Y-38608000D03*
D20*
X44707000Y-54240000D03*
X44707000Y-51738000D03*
D23*
X158731000Y-5080000D03*
X156229000Y-5080000D03*
D16*
X31120000Y-32760000D03*
X33020000Y-32760000D03*
X32070000Y-30060000D03*
D15*
X35880000Y-34210000D03*
X38382000Y-34210000D03*
D13*
X107791300Y-67310000D03*
D14*
X112871300Y-67310000D03*
D13*
X117951300Y-67310000D03*
D20*
X15580000Y-40640000D03*
X15580000Y-38138000D03*
D13*
X112553800Y-86360000D03*
D14*
X117633800Y-86360000D03*
D13*
X122713800Y-86360000D03*
D18*
X173622000Y-75692000D03*
X174324944Y-73994944D03*
X174324944Y-77389056D03*
X176022000Y-73292000D03*
D19*
X176022000Y-75692000D03*
D18*
X176022000Y-78092000D03*
X177719056Y-73994944D03*
X177719056Y-77389056D03*
X178422000Y-75692000D03*
D20*
X175006000Y-38335000D03*
X175006000Y-35833000D03*
D30*
X46070000Y-5221000D03*
X40290000Y-5221000D03*
D37*
X46405000Y-7166000D03*
X45630000Y-7166000D03*
D38*
X44430000Y-7166000D03*
X43430000Y-7166000D03*
X42930000Y-7166000D03*
D37*
X39955000Y-7166000D03*
X40730000Y-7166000D03*
D38*
X41430000Y-7166000D03*
X42430000Y-7166000D03*
X43930000Y-7166000D03*
X44930000Y-7166000D03*
X41930000Y-7166000D03*
D22*
X44069000Y-83823000D03*
X45339000Y-83823000D03*
X46609000Y-83823000D03*
X47879000Y-83823000D03*
X47879000Y-78873000D03*
X46609000Y-78873000D03*
X45339000Y-78873000D03*
X44069000Y-78873000D03*
D26*
X38100000Y-72155000D03*
X38100000Y-74657000D03*
D13*
X122078800Y-24447500D03*
D14*
X127158800Y-24447500D03*
D13*
X132238800Y-24447500D03*
X145891300Y-67310000D03*
D14*
X150971300Y-67310000D03*
D13*
X156051300Y-67310000D03*
X93503800Y-86360000D03*
D14*
X98583800Y-86360000D03*
D13*
X103663800Y-86360000D03*
D15*
X35880000Y-29130000D03*
X38382000Y-29130000D03*
X32969000Y-17739000D03*
X35471000Y-17739000D03*
X151657000Y-39878000D03*
X154159000Y-39878000D03*
D25*
X35232000Y-93096000D03*
X35232000Y-94996000D03*
X37932000Y-94046000D03*
D12*
X25400000Y-3767900D03*
X25400000Y-6567900D03*
D23*
X15221000Y-68580000D03*
X12719000Y-68580000D03*
D20*
X47247000Y-54278000D03*
X47247000Y-51776000D03*
D13*
X155416300Y-48260000D03*
D14*
X160496300Y-48260000D03*
D13*
X165576300Y-48260000D03*
D39*
X7730000Y-60960000D03*
X7730000Y-63500000D03*
X7730000Y-66040000D03*
X7730000Y-68580000D03*
X7730000Y-71120000D03*
D13*
X179228800Y-105410000D03*
D14*
X184308800Y-105410000D03*
D13*
X189388800Y-105410000D03*
D29*
X47877000Y-60288000D03*
X46927000Y-60288000D03*
X45977000Y-60288000D03*
X45977000Y-62988000D03*
X47877000Y-62988000D03*
D40*
X158242000Y-28624500D03*
X158242000Y-23699500D03*
D15*
X55645000Y-132080000D03*
X58147000Y-132080000D03*
D16*
X31120000Y-40640000D03*
X33020000Y-40640000D03*
X32070000Y-37940000D03*
D20*
X37592000Y-3791000D03*
X37592000Y-1289000D03*
D13*
X131603800Y-86360000D03*
D14*
X136683800Y-86360000D03*
D13*
X141763800Y-86360000D03*
D20*
X165862000Y-38335000D03*
X165862000Y-35833000D03*
D13*
X183991300Y-24447500D03*
D14*
X189071300Y-24447500D03*
D13*
X194151300Y-24447500D03*
D41*
X60980000Y-74945000D03*
D42*
X60980000Y-77485000D03*
X60980000Y-80025000D03*
X60980000Y-82565000D03*
X60980000Y-85105000D03*
X60980000Y-87645000D03*
X60980000Y-90185000D03*
X60980000Y-92725000D03*
X50820000Y-92725000D03*
X50820000Y-90185000D03*
X50820000Y-87645000D03*
X50820000Y-85105000D03*
X50820000Y-82565000D03*
X50820000Y-80025000D03*
X50820000Y-77485000D03*
X50820000Y-74945000D03*
D28*
X134383800Y-76310000D03*
X129458800Y-76310000D03*
D40*
X126100000Y-127092500D03*
X126100000Y-122167500D03*
D28*
X124858800Y-57260000D03*
X119933800Y-57260000D03*
X129621300Y-114410000D03*
X124696300Y-114410000D03*
X129621300Y-33447500D03*
X124696300Y-33447500D03*
X139146300Y-95360000D03*
X134221300Y-95360000D03*
M02*
