G04 #@! TF.GenerationSoftware,KiCad,Pcbnew,7.0.1*
G04 #@! TF.CreationDate,2023-07-18T11:36:22-07:00*
G04 #@! TF.ProjectId,keyboard-left,6b657962-6f61-4726-942d-6c6566742e6b,rev?*
G04 #@! TF.SameCoordinates,Original*
G04 #@! TF.FileFunction,Paste,Bot*
G04 #@! TF.FilePolarity,Positive*
%FSLAX46Y46*%
G04 Gerber Fmt 4.6, Leading zero omitted, Abs format (unit mm)*
G04 Created by KiCad (PCBNEW 7.0.1) date 2023-07-18 11:36:22*
%MOMM*%
%LPD*%
G01*
G04 APERTURE LIST*
G04 Aperture macros list*
%AMRoundRect*
0 Rectangle with rounded corners*
0 $1 Rounding radius*
0 $2 $3 $4 $5 $6 $7 $8 $9 X,Y pos of 4 corners*
0 Add a 4 corners polygon primitive as box body*
4,1,4,$2,$3,$4,$5,$6,$7,$8,$9,$2,$3,0*
0 Add four circle primitives for the rounded corners*
1,1,$1+$1,$2,$3*
1,1,$1+$1,$4,$5*
1,1,$1+$1,$6,$7*
1,1,$1+$1,$8,$9*
0 Add four rect primitives between the rounded corners*
20,1,$1+$1,$2,$3,$4,$5,0*
20,1,$1+$1,$4,$5,$6,$7,0*
20,1,$1+$1,$6,$7,$8,$9,0*
20,1,$1+$1,$8,$9,$2,$3,0*%
G04 Aperture macros list end*
%ADD10R,2.550000X2.500000*%
%ADD11RoundRect,0.350000X-0.500500X-0.350000X0.500500X-0.350000X0.500500X0.350000X-0.500500X0.350000X0*%
%ADD12RoundRect,0.123750X0.123750X-0.656250X0.123750X0.656250X-0.123750X0.656250X-0.123750X-0.656250X0*%
%ADD13RoundRect,0.300000X0.550500X0.300000X-0.550500X0.300000X-0.550500X-0.300000X0.550500X-0.300000X0*%
%ADD14RoundRect,0.350000X0.350000X-0.500500X0.350000X0.500500X-0.350000X0.500500X-0.350000X-0.500500X0*%
%ADD15RoundRect,0.150000X-0.150000X0.825000X-0.150000X-0.825000X0.150000X-0.825000X0.150000X0.825000X0*%
%ADD16RoundRect,0.350000X0.500500X0.350000X-0.500500X0.350000X-0.500500X-0.350000X0.500500X-0.350000X0*%
%ADD17RoundRect,0.250000X0.625000X-0.375000X0.625000X0.375000X-0.625000X0.375000X-0.625000X-0.375000X0*%
%ADD18RoundRect,0.123750X-0.656250X-0.123750X0.656250X-0.123750X0.656250X0.123750X-0.656250X0.123750X0*%
%ADD19RoundRect,0.350000X-0.350000X0.500500X-0.350000X-0.500500X0.350000X-0.500500X0.350000X0.500500X0*%
%ADD20RoundRect,0.250000X0.787500X0.925000X-0.787500X0.925000X-0.787500X-0.925000X0.787500X-0.925000X0*%
%ADD21RoundRect,0.123750X-0.123750X0.656250X-0.123750X-0.656250X0.123750X-0.656250X0.123750X0.656250X0*%
%ADD22RoundRect,0.300000X-0.300000X0.550500X-0.300000X-0.550500X0.300000X-0.550500X0.300000X0.550500X0*%
%ADD23O,3.000000X1.000000*%
%ADD24RoundRect,0.250000X0.925000X-0.787500X0.925000X0.787500X-0.925000X0.787500X-0.925000X-0.787500X0*%
%ADD25R,1.700000X0.820000*%
%ADD26RoundRect,0.205000X0.645000X0.205000X-0.645000X0.205000X-0.645000X-0.205000X0.645000X-0.205000X0*%
%ADD27RoundRect,0.250000X0.300000X-0.300000X0.300000X0.300000X-0.300000X0.300000X-0.300000X-0.300000X0*%
%ADD28R,0.820000X1.700000*%
%ADD29RoundRect,0.205000X-0.205000X0.645000X-0.205000X-0.645000X0.205000X-0.645000X0.205000X0.645000X0*%
%ADD30RoundRect,0.074750X0.423911X-0.318198X-0.318198X0.423911X-0.423911X0.318198X0.318198X-0.423911X0*%
%ADD31RoundRect,0.074750X-0.318198X-0.423911X0.423911X0.318198X0.318198X0.423911X-0.423911X-0.318198X0*%
%ADD32RoundRect,0.250000X-0.300000X0.300000X-0.300000X-0.300000X0.300000X-0.300000X0.300000X0.300000X0*%
%ADD33RoundRect,0.250000X-0.300000X-0.300000X0.300000X-0.300000X0.300000X0.300000X-0.300000X0.300000X0*%
G04 APERTURE END LIST*
D10*
X158173800Y-102870000D03*
X171073800Y-100330000D03*
D11*
X146577000Y-39878000D03*
X149079000Y-39878000D03*
D12*
X46040000Y-20320000D03*
X46990000Y-20320000D03*
X47940000Y-20320000D03*
X47940000Y-23020000D03*
X46990000Y-23020000D03*
X46040000Y-23020000D03*
D13*
X37611000Y-25660000D03*
X33509000Y-25660000D03*
D10*
X77211300Y-45720000D03*
X90111300Y-43180000D03*
D14*
X146640000Y-13951000D03*
X146640000Y-11449000D03*
X177292000Y-38335000D03*
X177292000Y-35833000D03*
D10*
X60542500Y-121920000D03*
X73469500Y-119380000D03*
X162936300Y-64770000D03*
X175836300Y-62230000D03*
D15*
X44069000Y-69923000D03*
X45339000Y-69923000D03*
X46609000Y-69923000D03*
X47879000Y-69923000D03*
X47879000Y-75873000D03*
X46609000Y-75873000D03*
X45339000Y-75873000D03*
X44069000Y-75873000D03*
D16*
X24111000Y-58928000D03*
X21609000Y-58928000D03*
D14*
X168148000Y-38335000D03*
X168148000Y-35833000D03*
D10*
X162936300Y-21907500D03*
X175836300Y-19367500D03*
D17*
X132080000Y-11560000D03*
X132080000Y-8760000D03*
D10*
X139123800Y-102870000D03*
X152023800Y-100330000D03*
X115311300Y-45720000D03*
X128211300Y-43180000D03*
D16*
X15221000Y-72980000D03*
X12719000Y-72980000D03*
D18*
X185754000Y-32578000D03*
X185754000Y-34478000D03*
X183054000Y-33528000D03*
D10*
X62923800Y-64770000D03*
X75850800Y-62230000D03*
D19*
X33704500Y-50419300D03*
X33704500Y-52921300D03*
D14*
X22180000Y-40640000D03*
X22180000Y-38138000D03*
D10*
X70067500Y-102870000D03*
X82994500Y-100330000D03*
X58161300Y-45720000D03*
X71061300Y-43180000D03*
D18*
X40134500Y-53461300D03*
X40134500Y-54411300D03*
X40134500Y-55361300D03*
X37434500Y-55361300D03*
X37434500Y-54411300D03*
X37434500Y-53461300D03*
D11*
X151657000Y-35306000D03*
X154159000Y-35306000D03*
D10*
X101023800Y-102870000D03*
X113923800Y-100330000D03*
X172461300Y-45720000D03*
X185361300Y-43180000D03*
D18*
X30312000Y-93096000D03*
X30312000Y-94996000D03*
X27612000Y-94046000D03*
D11*
X151657000Y-33020000D03*
X154159000Y-33020000D03*
D19*
X58420000Y-3829000D03*
X58420000Y-6331000D03*
D11*
X26435000Y-83312000D03*
X28937000Y-83312000D03*
D20*
X146226500Y-6350000D03*
X141301500Y-6350000D03*
D21*
X37780000Y-40640000D03*
X36830000Y-40640000D03*
X35880000Y-40640000D03*
X35880000Y-37940000D03*
X37780000Y-37940000D03*
D14*
X148840000Y-13951000D03*
X148840000Y-11449000D03*
X144440000Y-13951000D03*
X144440000Y-11449000D03*
D19*
X41952000Y-78516000D03*
X41952000Y-81018000D03*
D14*
X142240000Y-13951000D03*
X142240000Y-11449000D03*
D11*
X141497000Y-39878000D03*
X143999000Y-39878000D03*
D12*
X25720000Y-10080000D03*
X27620000Y-10080000D03*
X26670000Y-12780000D03*
D14*
X17780000Y-40640000D03*
X17780000Y-38138000D03*
X170434000Y-38335000D03*
X170434000Y-35833000D03*
D16*
X15221000Y-70780000D03*
X12719000Y-70780000D03*
D14*
X134620000Y-11411000D03*
X134620000Y-8909000D03*
D19*
X144272000Y-129305000D03*
X144272000Y-131807000D03*
D16*
X15221000Y-75180000D03*
X12719000Y-75180000D03*
D14*
X153240000Y-13951000D03*
X153240000Y-11449000D03*
D10*
X108167500Y-121920000D03*
X121094500Y-119380000D03*
X65305000Y-83820000D03*
X78232000Y-81280000D03*
X81973800Y-21907500D03*
X94873800Y-19367500D03*
D18*
X123270000Y-9210000D03*
X123270000Y-11110000D03*
X120570000Y-10160000D03*
D20*
X41324500Y-59271300D03*
X36399500Y-59271300D03*
D16*
X45866000Y-106680000D03*
X43364000Y-106680000D03*
D10*
X124836300Y-64770000D03*
X137736300Y-62230000D03*
X167698800Y-83820000D03*
X180598800Y-81280000D03*
D14*
X19980000Y-40640000D03*
X19980000Y-38138000D03*
D17*
X40640000Y-25660000D03*
X40640000Y-22860000D03*
D10*
X139123800Y-21907500D03*
X152023800Y-19367500D03*
X148648800Y-83820000D03*
X161548800Y-81280000D03*
D14*
X172720000Y-38335000D03*
X172720000Y-35833000D03*
D11*
X32969000Y-15539000D03*
X35471000Y-15539000D03*
X151657000Y-37592000D03*
X154159000Y-37592000D03*
D22*
X129540000Y-8109000D03*
X129540000Y-12211000D03*
D10*
X96261300Y-45720000D03*
X109161300Y-43180000D03*
D11*
X13989000Y-10160000D03*
X16491000Y-10160000D03*
X32969000Y-19939000D03*
X35471000Y-19939000D03*
D14*
X26580000Y-40640000D03*
X26580000Y-38138000D03*
D19*
X41910000Y-69489600D03*
X41910000Y-71991600D03*
D14*
X151040000Y-13951000D03*
X151040000Y-11449000D03*
X40640000Y-19272000D03*
X40640000Y-16770000D03*
D11*
X35899000Y-31670000D03*
X38401000Y-31670000D03*
D10*
X120073800Y-102870000D03*
X132973800Y-100330000D03*
X84355000Y-121920000D03*
X97282000Y-119380000D03*
D11*
X38822500Y-47841300D03*
X41324500Y-47841300D03*
X32969000Y-22139000D03*
X35471000Y-22139000D03*
X189249000Y-10160000D03*
X191751000Y-10160000D03*
X32969000Y-13339000D03*
X35471000Y-13339000D03*
D16*
X170923000Y-77216000D03*
X168421000Y-77216000D03*
D18*
X161370000Y-14290000D03*
X161370000Y-15240000D03*
X161370000Y-16190000D03*
X158670000Y-16190000D03*
X158670000Y-15240000D03*
X158670000Y-14290000D03*
D11*
X16529000Y-106680000D03*
X19031000Y-106680000D03*
D19*
X167132000Y-129305000D03*
X167132000Y-131807000D03*
D10*
X58161300Y-21907500D03*
X71061300Y-19367500D03*
D14*
X24380000Y-40640000D03*
X24380000Y-38138000D03*
X38100000Y-69831000D03*
X38100000Y-67329000D03*
D11*
X44745000Y-56818000D03*
X47247000Y-56818000D03*
D10*
X101023800Y-21907500D03*
X113923800Y-19367500D03*
X86736300Y-64770000D03*
X99636300Y-62230000D03*
X148648800Y-121920000D03*
X161575800Y-119380000D03*
D11*
X44707000Y-66978000D03*
X47209000Y-66978000D03*
X32969000Y-11139000D03*
X35471000Y-11139000D03*
D12*
X158054000Y-35480000D03*
X159004000Y-35480000D03*
X159954000Y-35480000D03*
X159954000Y-38180000D03*
X159004000Y-38180000D03*
X158054000Y-38180000D03*
D10*
X134361300Y-45720000D03*
X147261300Y-43180000D03*
D18*
X185754000Y-37658000D03*
X185754000Y-39558000D03*
X183054000Y-38608000D03*
D14*
X44707000Y-54240000D03*
X44707000Y-51738000D03*
D16*
X158731000Y-5080000D03*
X156229000Y-5080000D03*
D12*
X31120000Y-30060000D03*
X33020000Y-30060000D03*
X32070000Y-32760000D03*
D11*
X35880000Y-34210000D03*
X38382000Y-34210000D03*
D10*
X105786300Y-64770000D03*
X118686300Y-62230000D03*
D14*
X15580000Y-40640000D03*
X15580000Y-38138000D03*
D10*
X110548800Y-83820000D03*
X123448800Y-81280000D03*
D14*
X175006000Y-38335000D03*
X175006000Y-35833000D03*
D15*
X44069000Y-78873000D03*
X45339000Y-78873000D03*
X46609000Y-78873000D03*
X47879000Y-78873000D03*
X47879000Y-83823000D03*
X46609000Y-83823000D03*
X45339000Y-83823000D03*
X44069000Y-83823000D03*
D19*
X38100000Y-72155000D03*
X38100000Y-74657000D03*
D10*
X120073800Y-21907500D03*
X132973800Y-19367500D03*
X143886300Y-64770000D03*
X156786300Y-62230000D03*
X91498800Y-83820000D03*
X104398800Y-81280000D03*
D11*
X35880000Y-29130000D03*
X38382000Y-29130000D03*
X32969000Y-17739000D03*
X35471000Y-17739000D03*
X151657000Y-39878000D03*
X154159000Y-39878000D03*
D18*
X37932000Y-93096000D03*
X37932000Y-94996000D03*
X35232000Y-94046000D03*
D16*
X15221000Y-68580000D03*
X12719000Y-68580000D03*
D14*
X47247000Y-54278000D03*
X47247000Y-51776000D03*
D10*
X153411300Y-45720000D03*
X166311300Y-43180000D03*
D23*
X7730000Y-60960000D03*
X7730000Y-63500000D03*
X7730000Y-66040000D03*
X7730000Y-68580000D03*
X7730000Y-71120000D03*
D10*
X177223800Y-102870000D03*
X190123800Y-100330000D03*
D21*
X47877000Y-62988000D03*
X46927000Y-62988000D03*
X45977000Y-62988000D03*
X45977000Y-60288000D03*
X47877000Y-60288000D03*
D24*
X158242000Y-28624500D03*
X158242000Y-23699500D03*
D11*
X55645000Y-132080000D03*
X58147000Y-132080000D03*
D12*
X31120000Y-37940000D03*
X33020000Y-37940000D03*
X32070000Y-40640000D03*
D14*
X37592000Y-3791000D03*
X37592000Y-1289000D03*
D10*
X129598800Y-83820000D03*
X142498800Y-81280000D03*
D14*
X165862000Y-38335000D03*
X165862000Y-35833000D03*
D10*
X181986300Y-21907500D03*
X194886300Y-19367500D03*
D25*
X68590000Y-3290000D03*
X68590000Y-1790000D03*
D26*
X63490000Y-1790000D03*
D25*
X63490000Y-3290000D03*
D27*
X166698800Y-88720000D03*
X166698800Y-85920000D03*
D28*
X48756000Y-116576000D03*
X47256000Y-116576000D03*
D29*
X47256000Y-121676000D03*
D28*
X48756000Y-121676000D03*
D25*
X152410000Y-3290000D03*
X152410000Y-1790000D03*
D26*
X147310000Y-1790000D03*
D25*
X147310000Y-3290000D03*
D27*
X90498800Y-88720000D03*
X90498800Y-85920000D03*
D25*
X148758800Y-111160000D03*
X148758800Y-109660000D03*
D26*
X143658800Y-109660000D03*
D25*
X143658800Y-111160000D03*
X182096300Y-54010000D03*
X182096300Y-52510000D03*
D26*
X176996300Y-52510000D03*
D25*
X176996300Y-54010000D03*
X117802500Y-130210000D03*
X117802500Y-128710000D03*
D26*
X112702500Y-128710000D03*
D25*
X112702500Y-130210000D03*
D27*
X161936300Y-69670000D03*
X161936300Y-66870000D03*
D25*
X148758800Y-30197500D03*
X148758800Y-28697500D03*
D26*
X143658800Y-28697500D03*
D25*
X143658800Y-30197500D03*
D30*
X32117514Y-72534213D03*
X31763961Y-72887766D03*
X31410407Y-73241320D03*
X31056854Y-73594872D03*
X30703299Y-73948427D03*
X30349747Y-74301980D03*
X29996194Y-74655532D03*
X29642640Y-75009087D03*
X29289087Y-75362640D03*
X28935532Y-75716194D03*
X28581980Y-76069747D03*
X28228427Y-76423299D03*
X27874872Y-76776854D03*
X27521320Y-77130407D03*
X27167766Y-77483961D03*
X26814213Y-77837514D03*
D31*
X23985787Y-77837514D03*
X23632234Y-77483961D03*
X23278680Y-77130407D03*
X22925128Y-76776854D03*
X22571573Y-76423299D03*
X22218020Y-76069747D03*
X21864468Y-75716194D03*
X21510913Y-75362640D03*
X21157360Y-75009087D03*
X20803806Y-74655532D03*
X20450253Y-74301980D03*
X20096701Y-73948427D03*
X19743146Y-73594872D03*
X19389593Y-73241320D03*
X19036039Y-72887766D03*
X18682486Y-72534213D03*
D30*
X18682486Y-69705787D03*
X19036039Y-69352234D03*
X19389593Y-68998680D03*
X19743146Y-68645128D03*
X20096701Y-68291573D03*
X20450253Y-67938020D03*
X20803806Y-67584468D03*
X21157360Y-67230913D03*
X21510913Y-66877360D03*
X21864468Y-66523806D03*
X22218020Y-66170253D03*
X22571573Y-65816701D03*
X22925128Y-65463146D03*
X23278680Y-65109593D03*
X23632234Y-64756039D03*
X23985787Y-64402486D03*
D31*
X26814213Y-64402486D03*
X27167766Y-64756039D03*
X27521320Y-65109593D03*
X27874872Y-65463146D03*
X28228427Y-65816701D03*
X28581980Y-66170253D03*
X28935532Y-66523806D03*
X29289087Y-66877360D03*
X29642640Y-67230913D03*
X29996194Y-67584468D03*
X30349747Y-67938020D03*
X30703299Y-68291573D03*
X31056854Y-68645128D03*
X31410407Y-68998680D03*
X31763961Y-69352234D03*
X32117514Y-69705787D03*
D25*
X105896300Y-54010000D03*
X105896300Y-52510000D03*
D26*
X100796300Y-52510000D03*
D25*
X100796300Y-54010000D03*
D27*
X119073800Y-26807500D03*
X119073800Y-24007500D03*
X107167500Y-126820000D03*
X107167500Y-124020000D03*
X161936300Y-26807500D03*
X161936300Y-24007500D03*
D25*
X177333800Y-92110000D03*
X177333800Y-90610000D03*
D26*
X172233800Y-90610000D03*
D25*
X172233800Y-92110000D03*
D27*
X69067500Y-107770000D03*
X69067500Y-104970000D03*
D25*
X129708800Y-30197500D03*
X129708800Y-28697500D03*
D26*
X124608800Y-28697500D03*
D25*
X124608800Y-30197500D03*
D27*
X171461300Y-50620000D03*
X171461300Y-47820000D03*
D25*
X67796300Y-54010000D03*
X67796300Y-52510000D03*
D26*
X62696300Y-52510000D03*
D25*
X62696300Y-54010000D03*
X134471300Y-73060000D03*
X134471300Y-71560000D03*
D26*
X129371300Y-71560000D03*
D25*
X129371300Y-73060000D03*
D20*
X134383800Y-76310000D03*
X129458800Y-76310000D03*
D27*
X119073800Y-107770000D03*
X119073800Y-104970000D03*
D25*
X79702500Y-111160000D03*
X79702500Y-109660000D03*
D26*
X74602500Y-109660000D03*
D25*
X74602500Y-111160000D03*
D27*
X152411300Y-50620000D03*
X152411300Y-47820000D03*
X95261300Y-50620000D03*
X95261300Y-47820000D03*
D25*
X143996300Y-54010000D03*
X143996300Y-52510000D03*
D26*
X138896300Y-52510000D03*
D25*
X138896300Y-54010000D03*
X91608800Y-30197500D03*
X91608800Y-28697500D03*
D26*
X86508800Y-28697500D03*
D25*
X86508800Y-30197500D03*
X72558800Y-73060000D03*
X72558800Y-71560000D03*
D26*
X67458800Y-71560000D03*
D25*
X67458800Y-73060000D03*
X82052000Y-131560000D03*
X82052000Y-130060000D03*
D26*
X76952000Y-130060000D03*
D25*
X76952000Y-131560000D03*
X115421300Y-73060000D03*
X115421300Y-71560000D03*
D26*
X110321300Y-71560000D03*
D25*
X110321300Y-73060000D03*
X110658800Y-111160000D03*
X110658800Y-109660000D03*
D26*
X105558800Y-109660000D03*
D25*
X105558800Y-111160000D03*
D32*
X147574000Y-116710000D03*
X147574000Y-119510000D03*
D27*
X180986300Y-26807500D03*
X180986300Y-24007500D03*
D28*
X8370000Y-50790000D03*
X6870000Y-50790000D03*
D29*
X6870000Y-55890000D03*
D28*
X8370000Y-55890000D03*
D27*
X114311300Y-50620000D03*
X114311300Y-47820000D03*
X61923800Y-69670000D03*
X61923800Y-66870000D03*
X138123800Y-26807500D03*
X138123800Y-24007500D03*
D25*
X191621300Y-30197500D03*
X191621300Y-28697500D03*
D26*
X186521300Y-28697500D03*
D25*
X186521300Y-30197500D03*
X109230000Y-3290000D03*
X109230000Y-1790000D03*
D26*
X104130000Y-1790000D03*
D25*
X104130000Y-3290000D03*
X163046300Y-54010000D03*
X163046300Y-52510000D03*
D26*
X157946300Y-52510000D03*
D25*
X157946300Y-54010000D03*
D27*
X100023800Y-26807500D03*
X100023800Y-24007500D03*
X57161300Y-26807500D03*
X57161300Y-24007500D03*
X100023800Y-107770000D03*
X100023800Y-104970000D03*
X109548800Y-88720000D03*
X109548800Y-85920000D03*
D25*
X67796300Y-30197500D03*
X67796300Y-28697500D03*
D26*
X62696300Y-28697500D03*
D25*
X62696300Y-30197500D03*
X186858800Y-111160000D03*
X186858800Y-109660000D03*
D26*
X181758800Y-109660000D03*
D25*
X181758800Y-111160000D03*
D27*
X80973800Y-26807500D03*
X80973800Y-24007500D03*
D24*
X126100000Y-127092500D03*
X126100000Y-122167500D03*
D25*
X167808800Y-111160000D03*
X167808800Y-109660000D03*
D26*
X162708800Y-109660000D03*
D25*
X162708800Y-111160000D03*
D20*
X124858800Y-57260000D03*
X119933800Y-57260000D03*
D27*
X133361300Y-50620000D03*
X133361300Y-47820000D03*
D25*
X101133800Y-92110000D03*
X101133800Y-90610000D03*
D26*
X96033800Y-90610000D03*
D25*
X96033800Y-92110000D03*
X93990000Y-130210000D03*
X93990000Y-128710000D03*
D26*
X88890000Y-128710000D03*
D25*
X88890000Y-130210000D03*
X96371300Y-73060000D03*
X96371300Y-71560000D03*
D26*
X91271300Y-71560000D03*
D25*
X91271300Y-73060000D03*
X120183800Y-92110000D03*
X120183800Y-90610000D03*
D26*
X115083800Y-90610000D03*
D25*
X115083800Y-92110000D03*
D28*
X181598000Y-127244000D03*
X180098000Y-127244000D03*
D29*
X180098000Y-132344000D03*
D28*
X181598000Y-132344000D03*
D27*
X128598800Y-88720000D03*
X128598800Y-85920000D03*
X64305000Y-88720000D03*
X64305000Y-85920000D03*
X157173800Y-107770000D03*
X157173800Y-104970000D03*
D25*
X129550000Y-131814000D03*
X129550000Y-130314000D03*
D26*
X124450000Y-130314000D03*
D25*
X124450000Y-131814000D03*
X74940000Y-92110000D03*
X74940000Y-90610000D03*
D26*
X69840000Y-90610000D03*
D25*
X69840000Y-92110000D03*
X70177500Y-130210000D03*
X70177500Y-128710000D03*
D26*
X65077500Y-128710000D03*
D25*
X65077500Y-130210000D03*
X158283800Y-92110000D03*
X158283800Y-90610000D03*
D26*
X153183800Y-90610000D03*
D25*
X153183800Y-92110000D03*
D27*
X147648800Y-88720000D03*
X147648800Y-85920000D03*
D28*
X8370000Y-76190000D03*
X6870000Y-76190000D03*
D29*
X6870000Y-81290000D03*
D28*
X8370000Y-81290000D03*
D20*
X129621300Y-114410000D03*
X124696300Y-114410000D03*
D27*
X59542500Y-126820000D03*
X59542500Y-124020000D03*
X76211300Y-50620000D03*
X76211300Y-47820000D03*
X142886300Y-69670000D03*
X142886300Y-66870000D03*
X57161300Y-50620000D03*
X57161300Y-47820000D03*
X138123800Y-107770000D03*
X138123800Y-104970000D03*
D25*
X129708800Y-111160000D03*
X129708800Y-109660000D03*
D26*
X124608800Y-109660000D03*
D25*
X124608800Y-111160000D03*
X153521300Y-73060000D03*
X153521300Y-71560000D03*
D26*
X148421300Y-71560000D03*
D25*
X148421300Y-73060000D03*
D27*
X83355000Y-126820000D03*
X83355000Y-124020000D03*
D33*
X26721300Y-21947500D03*
X29521300Y-21947500D03*
D25*
X30490000Y-109970000D03*
X30490000Y-108470000D03*
D26*
X25390000Y-108470000D03*
D25*
X25390000Y-109970000D03*
D27*
X176223800Y-107770000D03*
X176223800Y-104970000D03*
D20*
X129621300Y-33447500D03*
X124696300Y-33447500D03*
D25*
X158283800Y-130210000D03*
X158283800Y-128710000D03*
D26*
X153183800Y-128710000D03*
D25*
X153183800Y-130210000D03*
D27*
X104786300Y-69670000D03*
X104786300Y-66870000D03*
D25*
X110658800Y-30197500D03*
X110658800Y-28697500D03*
D26*
X105558800Y-28697500D03*
D25*
X105558800Y-30197500D03*
D27*
X85736300Y-69670000D03*
X85736300Y-66870000D03*
D25*
X86846300Y-54010000D03*
X86846300Y-52510000D03*
D26*
X81746300Y-52510000D03*
D25*
X81746300Y-54010000D03*
X139233800Y-92110000D03*
X139233800Y-90610000D03*
D26*
X134133800Y-90610000D03*
D25*
X134133800Y-92110000D03*
D27*
X123836300Y-69670000D03*
X123836300Y-66870000D03*
D25*
X172571300Y-30197500D03*
X172571300Y-28697500D03*
D26*
X167471300Y-28697500D03*
D25*
X167471300Y-30197500D03*
X124946300Y-54010000D03*
X124946300Y-52510000D03*
D26*
X119846300Y-52510000D03*
D25*
X119846300Y-54010000D03*
D20*
X139146300Y-95360000D03*
X134221300Y-95360000D03*
D25*
X172571300Y-73060000D03*
X172571300Y-71560000D03*
D26*
X167471300Y-71560000D03*
D25*
X167471300Y-73060000D03*
D28*
X8370000Y-10150000D03*
X6870000Y-10150000D03*
D29*
X6870000Y-15250000D03*
D28*
X8370000Y-15250000D03*
M02*
