M48
; DRILL file {KiCad 7.0.1} date Tue Jul 18 12:01:26 2023
; FORMAT={-:-/ absolute / inch / decimal}
; #@! TF.CreationDate,2023-07-18T12:01:26-07:00
; #@! TF.GenerationSoftware,Kicad,Pcbnew,7.0.1
; #@! TF.FileFunction,NonPlated,1,2,NPTH
FMAT,2
INCH
; #@! TA.AperFunction,NonPlated,NPTH,ComponentDrill
T1C0.0256
; #@! TA.AperFunction,NonPlated,NPTH,ComponentDrill
T2C0.0689
; #@! TA.AperFunction,NonPlated,NPTH,ComponentDrill
T3C0.1181
; #@! TA.AperFunction,NonPlated,NPTH,ComponentDrill
T4C0.1200
; #@! TA.AperFunction,NonPlated,NPTH,ComponentDrill
T5C0.1299
; #@! TA.AperFunction,NonPlated,NPTH,ComponentDrill
T6C0.1570
%
G90
G05
T1
X1.5862Y-0.2056
X1.8138Y-0.2056
X6.752Y-0.257
X6.913Y-0.418
T2
X2.3688Y-0.9625
X2.3688Y-1.9
X2.4625Y-4.9
X2.5563Y-2.65
X2.65Y-3.4
X2.7688Y-0.9625
X2.7688Y-1.9
X2.8375Y-4.15
X2.8625Y-4.9
X2.9563Y-2.65
X3.05Y-3.4
X3.1188Y-1.9
X3.2375Y-4.15
X3.3063Y-0.9625
X3.4Y-4.9
X3.4938Y-2.65
X3.5188Y-1.9
X3.6813Y-3.4
X3.7063Y-0.9625
X3.8Y-4.9
X3.8688Y-1.9
X3.8938Y-2.65
X4.0563Y-0.9625
X4.0563Y-4.15
X4.0813Y-3.4
X4.2438Y-2.65
X4.2688Y-1.9
X4.3375Y-4.9
X4.4313Y-3.4
X4.4563Y-0.9625
X4.4563Y-4.15
X4.6188Y-1.9
X4.6438Y-2.65
X4.7375Y-4.9
X4.8063Y-0.9625
X4.8063Y-4.15
X4.8313Y-3.4
X4.9938Y-2.65
X5.0188Y-1.9
X5.1813Y-3.4
X5.2063Y-0.9625
X5.2063Y-4.15
X5.3688Y-1.9
X5.3938Y-2.65
X5.5563Y-0.9625
X5.5563Y-4.15
X5.5813Y-3.4
X5.7438Y-2.65
X5.7688Y-1.9
X5.9313Y-3.4
X5.9313Y-4.9
X5.9563Y-0.9625
X5.9563Y-4.15
X6.1188Y-1.9
X6.1438Y-2.65
X6.3063Y-4.15
X6.3313Y-3.4
X6.3313Y-4.9
X6.4938Y-0.9625
X6.4938Y-2.65
X6.5188Y-1.9
X6.6813Y-3.4
X6.7063Y-4.15
X6.8688Y-1.9
X6.8938Y-0.9625
X6.8938Y-2.65
X7.0563Y-4.15
X7.0813Y-3.4
X7.2438Y-0.9625
X7.2688Y-1.9
X7.4563Y-4.15
X7.6438Y-0.9625
T3
X2.5125Y-4.8
X2.6063Y-2.55
X2.7Y-3.3
X2.7625Y-4.7
X2.8563Y-2.45
X2.8875Y-4.05
X2.95Y-3.2
X3.1375Y-3.95
X3.45Y-4.8
X3.7Y-4.7
X4.3875Y-4.8
X4.6375Y-4.7
X5.9813Y-4.8
X6.2313Y-4.7
T4
X2.5675Y-3.875
X3.5075Y-3.875
X5.3813Y-5.175
X6.8813Y-5.175
T5
X0.3975Y-1.4453
X0.3975Y-3.8547
X1.74Y-1.4453
X1.74Y-3.8547
T6
X2.5675Y-4.475
X2.5688Y-0.9625
X2.5688Y-1.9
X2.6625Y-4.9
X2.7563Y-2.65
X2.85Y-3.4
X3.0375Y-4.15
X3.3188Y-1.9
X3.5063Y-0.9625
X3.5075Y-4.475
X3.6Y-4.9
X3.6938Y-2.65
X3.8813Y-3.4
X4.0688Y-1.9
X4.2563Y-0.9625
X4.2563Y-4.15
X4.4438Y-2.65
X4.5375Y-4.9
X4.6313Y-3.4
X4.8188Y-1.9
X5.0063Y-0.9625
X5.0063Y-4.15
X5.1938Y-2.65
X5.3813Y-3.4
X5.3813Y-4.575
X5.5688Y-1.9
X5.7563Y-0.9625
X5.7563Y-4.15
X5.9438Y-2.65
X6.1313Y-3.4
X6.1313Y-4.9
X6.3188Y-1.9
X6.5063Y-4.15
X6.6938Y-0.9625
X6.6938Y-2.65
X6.8813Y-3.4
X6.8813Y-4.575
X7.0688Y-1.9
X7.2563Y-4.15
X7.4438Y-0.9625
T0
M30
