M48
; DRILL file {KiCad 7.0.1} date Tue Jul 18 12:01:26 2023
; FORMAT={-:-/ absolute / inch / decimal}
; #@! TF.CreationDate,2023-07-18T12:01:26-07:00
; #@! TF.GenerationSoftware,Kicad,Pcbnew,7.0.1
; #@! TF.FileFunction,Plated,1,2,PTH
FMAT,2
INCH
; #@! TA.AperFunction,Plated,PTH,ViaDrill
T1C0.0118
; #@! TA.AperFunction,Plated,PTH,ComponentDrill
T2C0.0118
; #@! TA.AperFunction,Plated,PTH,ViaDrill
T3C0.0157
; #@! TA.AperFunction,Plated,PTH,ComponentDrill
T4C0.0157
; #@! TA.AperFunction,Plated,PTH,ComponentDrill
T5C0.0197
; #@! TA.AperFunction,Plated,PTH,ViaDrill
T6C0.0236
; #@! TA.AperFunction,Plated,PTH,ComponentDrill
T7C0.0236
; #@! TA.AperFunction,Plated,PTH,ComponentDrill
T8C0.0315
; #@! TA.AperFunction,Plated,PTH,ComponentDrill
T9C0.0394
; #@! TA.AperFunction,Plated,PTH,ComponentDrill
T10C0.0591
; #@! TA.AperFunction,Plated,PTH,ComponentDrill
T11C0.1181
; #@! TA.AperFunction,Plated,PTH,ComponentDrill
T12C0.1260
%
G90
G05
T1
X0.3395Y-0.6536
X1.1015Y-0.6935
X1.2295Y-1.0865
X1.2752Y-2.0637
X1.4103Y-1.2001
X1.6627Y-0.3535
X1.6729Y-2.639
X1.685Y-2.9227
X1.6958Y-0.3657
X1.7356Y-0.3642
X1.7408Y-0.7452
X1.7554Y-0.1873
X1.8693Y-3.3613
X1.9173Y-2.9994
X1.922Y-3.0518
X2.328Y-1.3811
X2.3733Y-2.0721
X2.3944Y-5.0022
X2.4445Y-0.1295
X2.4757Y-5.098
X2.4999Y-2.7526
X2.5906Y-3.0746
X2.6799Y-1.0826
X2.7159Y-3.0005
X2.7159Y-3.0809
X2.9113Y-4.2389
X2.9508Y-2.0064
X2.9545Y-3.3159
X3.0189Y-1.2602
X3.0675Y-3.5742
X3.0713Y-2.7561
X3.1984Y-4.967
X3.2509Y-5.0866
X3.3019Y-2.2764
X3.3062Y-2.1902
X3.4191Y-1.0682
X3.5684Y-1.0826
X3.62Y-1.2456
X3.6535Y-3.5736
X3.6679Y-1.9372
X3.7707Y-5.0347
X3.8101Y-2.9104
X3.8728Y-1.0685
X3.8756Y-4.277
X3.8821Y-2.0553
X3.8879Y-2.9868
X4.0051Y-0.0568
X4.0213Y-3.3276
X4.1223Y-0.1948
X4.2395Y-2.8618
X4.2695Y-4.9717
X4.3508Y-1.2784
X4.3509Y-5.098
X4.3699Y-2.1408
X4.4739Y-1.1305
X4.5551Y-2.7777
X4.5911Y-1.2275
X4.6902Y-4.3996
X4.8485Y-5.1828
X4.8691Y-1.0765
X4.9052Y-2.7878
X5.0306Y-2.8198
X5.0599Y-3.5736
X5.1117Y-3.5536
X5.129Y-1.9409
X5.1879Y-1.1315
X5.1894Y-3.6464
X5.2943Y-3.6908
X5.3846Y-4.2448
X5.4354Y-2.8063
X5.4525Y-2.0302
X5.486Y-2.1902
X5.5287Y-0.0568
X5.5287Y-4.7461
X5.6736Y-2.7994
X5.6765Y-2.7317
X5.7631Y-1.237
X5.7631Y-3.5736
X5.9137Y-4.2997
X5.9588Y-2.0022
X5.9652Y-3.6446
X5.9681Y-5.0748
X5.9975Y-1.2144
X5.9975Y-3.6824
X6.1139Y-4.2768
X6.1907Y-3.7141
X6.2856Y-2.7839
X6.3314Y-4.3943
X6.3324Y-2.7326
X6.3679Y-1.0148
X6.4185Y-3.437
X6.4992Y-2.1658
X6.5424Y-1.1318
X6.5835Y-3.5809
X6.7823Y-2.9104
X6.7958Y-2.2586
X6.8472Y-1.1462
X7.0512Y-1.0008
X7.269Y-1.2199
X7.4866Y-1.0759
T2
X0.5472Y-2.685
X0.5472Y-2.7716
X0.5472Y-2.8582
X0.5472Y-2.9448
X0.5535Y-2.715
X0.5535Y-2.8016
X0.5535Y-2.8882
X0.5535Y-2.9748
X0.5965Y-0.385
X0.5984Y-1.5543
X0.6028Y-0.415
X0.6284Y-1.548
X0.685Y-1.5543
X0.6965Y-4.185
X0.7028Y-4.215
X0.715Y-1.548
X0.7716Y-1.5543
X0.8016Y-1.548
X0.8582Y-1.5543
X0.8882Y-1.548
X0.8972Y-2.305
X0.9035Y-2.335
X0.9448Y-1.5543
X0.9748Y-1.548
X1.0126Y-0.5602
X1.03Y-3.6652
X1.03Y-3.74
X1.0315Y-1.5543
X1.05Y-0.3398
X1.0615Y-1.548
X1.0865Y-3.265
X1.0874Y-0.5602
X1.0928Y-3.295
X1.2252Y-1.3469
X1.2252Y-1.6571
X1.2505Y-3.7026
X1.2626Y-1.1264
X1.2626Y-1.4366
X1.3Y-1.3469
X1.3Y-1.6571
X1.3119Y-2.037
X1.33Y-3.6652
X1.33Y-3.74
X1.3419Y-2.0308
X1.3437Y-0.4235
X1.3437Y-0.5102
X1.3437Y-0.5968
X1.3437Y-0.6834
X1.3437Y-0.77
X1.3437Y-0.8566
X1.35Y-0.4535
X1.35Y-0.5402
X1.35Y-0.6268
X1.35Y-0.7134
X1.35Y-0.8
X1.35Y-0.8866
X1.3657Y-0.9952
X1.4087Y-1.5469
X1.4126Y-1.4366
X1.4126Y-1.6571
X1.4167Y-2.1048
X1.4167Y-2.1422
X1.4167Y-2.1796
X1.435Y-1.0252
X1.45Y-1.4366
X1.4583Y-1.1319
X1.4583Y-1.3319
X1.4591Y-1.2319
X1.4646Y-1.1619
X1.4646Y-1.3619
X1.465Y-0.1035
X1.4654Y-1.2619
X1.485Y-2.7035
X1.485Y-2.8928
X1.4867Y-2.2981
X1.4874Y-1.4366
X1.4874Y-1.6571
X1.4913Y-1.5469
X1.495Y-0.0972
X1.515Y-2.6972
X1.515Y-2.8865
X1.5269Y-2.1008
X1.5269Y-2.1382
X1.5269Y-2.1835
X1.5505Y-3.7026
X1.5733Y-2.3689
X1.5742Y-1.8685
X1.576Y-0.9771
X1.5805Y-1.8985
X1.585Y-0.713
X1.615Y-0.7067
X1.624Y-0.9335
X1.635Y-2.7878
X1.6367Y-3.1432
X1.6372Y-2.1048
X1.6372Y-2.1422
X1.6372Y-2.1796
X1.665Y-2.7816
X1.6667Y-3.1369
X1.735Y-2.8346
X1.735Y-3.1672
X1.7451Y-2.0897
X1.7537Y-4.185
X1.7586Y-2.9054
X1.7586Y-3.2381
X1.76Y-4.215
X1.7751Y-2.0834
X1.785Y-2.8346
X1.785Y-3.1672
X1.8059Y-2.6219
X1.8062Y-2.4267
X1.8074Y-2.2219
X1.8086Y-2.9054
X1.8086Y-3.2381
X1.8087Y-0.8531
X1.8101Y-2.3165
X1.8101Y-2.5369
X1.8121Y-2.6519
X1.8126Y-0.7429
X1.8126Y-0.9634
X1.8136Y-2.2519
X1.835Y-2.8346
X1.835Y-3.1672
X1.8451Y-2.0912
X1.8461Y-0.8531
X1.8475Y-2.3165
X1.85Y-0.7429
X1.85Y-0.9634
X1.8586Y-2.9054
X1.8586Y-3.2381
X1.8751Y-2.0849
X1.8849Y-2.3165
X1.8849Y-2.5369
X1.885Y-2.8346
X1.885Y-3.1672
X1.8874Y-0.7429
X1.8874Y-0.9634
X1.8889Y-2.4267
X1.8913Y-0.8531
X1.9086Y-2.9054
X1.9086Y-3.2381
X2.2365Y-5.185
X2.2428Y-5.215
X2.285Y-0.2028
X2.315Y-0.1965
X4.6898Y-0.3626
X4.6898Y-0.4374
X4.7754Y-2.2898
X4.8621Y-2.2189
X4.9102Y-0.4
X4.9291Y-4.8634
X4.9629Y-1.3523
X4.9629Y-4.5398
X5.0Y-4.95
X5.0496Y-1.2814
X5.0496Y-4.4689
X5.085Y-0.4343
X5.115Y-0.365
X5.1504Y-3.0398
X5.176Y-0.422
X5.224Y-0.3783
X5.2371Y-2.9689
X5.285Y-0.4035
X5.315Y-0.3972
X5.3379Y-3.7898
X5.4246Y-3.7189
X5.585Y-0.5035
X5.615Y-0.4972
X5.6165Y-1.555
X5.6167Y-0.2146
X5.6228Y-1.585
X5.665Y-5.1428
X5.6716Y-0.5035
X5.695Y-5.1365
X5.7016Y-0.4972
X5.7033Y-0.2854
X5.7582Y-0.5035
X5.7882Y-0.4972
X5.8165Y-1.555
X5.8228Y-1.585
X5.8448Y-0.5035
X5.8748Y-0.4972
X5.9315Y-0.5035
X5.9615Y-0.4972
X6.0165Y-1.285
X6.0165Y-1.375
X6.0165Y-1.465
X6.0165Y-1.555
X6.0181Y-0.5035
X6.0228Y-1.315
X6.0228Y-1.405
X6.0228Y-1.495
X6.0228Y-1.585
X6.0481Y-0.4972
X6.1898Y-0.5626
X6.1898Y-0.6
X6.1898Y-0.6374
X6.1946Y-1.0733
X6.1972Y-0.185
X6.2035Y-0.215
X6.2187Y-1.45
X6.2226Y-1.3398
X6.2226Y-1.5602
X6.2561Y-1.45
X6.26Y-1.3398
X6.26Y-1.5602
X6.2654Y-0.9867
X6.2974Y-1.3398
X6.2974Y-1.5602
X6.3Y-0.5587
X6.3Y-0.5961
X6.3Y-0.6413
X6.3013Y-1.45
X6.4102Y-0.5626
X6.4102Y-0.6
X6.4102Y-0.6374
X6.515Y-1.4635
X6.545Y-1.4572
X6.565Y-5.1428
X6.595Y-5.1365
X6.605Y-1.4635
X6.635Y-1.4572
X6.6772Y-3.025
X6.6835Y-3.055
X6.695Y-1.4635
X6.725Y-1.4572
X6.785Y-1.4635
X6.815Y-1.4572
X6.875Y-1.4635
X6.905Y-1.4572
X6.965Y-1.4635
X6.995Y-1.4572
X7.1498Y-1.2826
X7.1498Y-1.3574
X7.1498Y-1.4826
X7.1498Y-1.5574
X7.3702Y-1.32
X7.3702Y-1.52
X7.4965Y-0.385
X7.5028Y-0.415
T3
X0.2742Y-2.548
X0.2742Y-2.8739
X0.2759Y-2.75
X0.7371Y-4.0288
X1.1923Y-2.1573
X1.8579Y-4.4319
X2.831Y-4.3943
X3.0567Y-4.4294
X3.5363Y-2.2764
X4.2839Y-2.1504
X4.3567Y-0.2152
X4.5911Y-2.9245
X5.4983Y-0.3199
X6.95Y-1.564
T4
X2.2188Y-0.8325
X2.2188Y-0.8925
X2.2188Y-1.77
X2.2188Y-1.83
X2.8688Y-0.7325
X2.8688Y-0.7925
X2.8688Y-1.67
X2.8688Y-1.73
X2.9688Y-1.77
X2.9688Y-1.83
X3.1563Y-0.8325
X3.1563Y-0.8925
X3.3438Y-2.52
X3.3438Y-2.58
X3.5313Y-3.27
X3.5313Y-3.33
X3.6188Y-1.67
X3.6188Y-1.73
X3.7188Y-1.77
X3.7188Y-1.83
X3.8063Y-0.7325
X3.8063Y-0.7925
X3.9063Y-0.8325
X3.9063Y-0.8925
X3.9063Y-4.02
X3.9063Y-4.08
X3.9938Y-2.42
X3.9938Y-2.48
X4.0938Y-2.52
X4.0938Y-2.58
X4.1813Y-3.17
X4.1813Y-3.23
X4.2813Y-3.27
X4.2813Y-3.33
X4.3688Y-1.67
X4.3688Y-1.73
X4.4688Y-1.77
X4.4688Y-1.83
X4.5563Y-0.7325
X4.5563Y-0.7925
X4.5563Y-3.92
X4.5563Y-3.98
X4.6563Y-0.8325
X4.6563Y-0.8925
X4.6563Y-4.02
X4.6563Y-4.08
X4.7438Y-2.42
X4.7438Y-2.48
X4.8438Y-2.52
X4.8438Y-2.58
X4.9313Y-3.17
X4.9313Y-3.23
X5.0313Y-3.27
X5.0313Y-3.33
X5.1188Y-1.67
X5.1188Y-1.73
X5.2188Y-1.77
X5.2188Y-1.83
X5.3063Y-0.7325
X5.3063Y-0.7925
X5.3063Y-3.92
X5.3063Y-3.98
X5.4063Y-0.8325
X5.4063Y-0.8925
X5.4063Y-4.02
X5.4063Y-4.08
X5.4938Y-2.42
X5.4938Y-2.48
X5.5938Y-2.52
X5.5938Y-2.58
X5.6813Y-3.17
X5.6813Y-3.23
X5.7813Y-3.27
X5.7813Y-3.33
X5.8688Y-1.67
X5.8688Y-1.73
X5.9688Y-1.77
X5.9688Y-1.83
X6.0563Y-0.7325
X6.0563Y-0.7925
X6.0563Y-3.92
X6.0563Y-3.98
X6.1563Y-4.02
X6.1563Y-4.08
X6.2438Y-2.42
X6.2438Y-2.48
X6.3438Y-0.8325
X6.3438Y-0.8925
X6.3438Y-2.52
X6.3438Y-2.58
X6.4313Y-3.17
X6.4313Y-3.23
X6.5313Y-3.27
X6.5313Y-3.33
X6.6188Y-1.67
X6.6188Y-1.73
X6.7188Y-1.77
X6.7188Y-1.83
X6.8063Y-3.92
X6.8063Y-3.98
X6.9063Y-4.02
X6.9063Y-4.08
X6.9938Y-0.7325
X6.9938Y-0.7925
X6.9938Y-2.42
X6.9938Y-2.48
X7.0938Y-0.8325
X7.0938Y-0.8925
X7.1813Y-3.17
X7.1813Y-3.23
X7.3688Y-1.67
X7.3688Y-1.73
X7.5563Y-3.92
X7.5563Y-3.98
X7.7438Y-0.7325
X7.7438Y-0.7925
T5
X0.3055Y-4.2
X0.3332Y-4.1332
X0.3332Y-4.2668
X0.3387Y-0.2
X0.3664Y-0.1332
X0.3664Y-0.2668
X0.4Y-4.1055
X0.4Y-4.2945
X0.4332Y-0.1055
X0.4332Y-0.2945
X0.4668Y-4.1332
X0.4668Y-4.2668
X0.4945Y-4.2
X0.5Y-0.1332
X0.5Y-0.2668
X0.5277Y-0.2
X1.2118Y-0.2007
X1.2395Y-0.1339
X1.2395Y-0.2676
X1.3063Y-0.1063
X1.3063Y-0.2952
X1.3731Y-0.1339
X1.3731Y-0.2676
X1.4008Y-0.2007
X1.8855Y-5.09
X1.9055Y-4.2
X1.9132Y-5.0232
X1.9132Y-5.1568
X1.9332Y-4.1332
X1.9332Y-4.2668
X1.98Y-4.9955
X1.98Y-5.1845
X2.0Y-4.1055
X2.0Y-4.2945
X2.0055Y-0.2
X2.0332Y-0.1332
X2.0332Y-0.2668
X2.0468Y-5.0232
X2.0468Y-5.1568
X2.0668Y-4.1332
X2.0668Y-4.2668
X2.0745Y-5.09
X2.0945Y-4.2
X2.1Y-0.1055
X2.1Y-0.2945
X2.1668Y-0.1332
X2.1668Y-0.2668
X2.1945Y-0.2
X5.5899Y-4.9
X5.6176Y-4.8332
X5.6176Y-4.9668
X5.6844Y-4.8055
X5.6844Y-4.9945
X5.7512Y-4.8332
X5.7512Y-4.9668
X5.7789Y-4.9
X6.4055Y-0.2
X6.4332Y-0.1332
X6.4332Y-0.2668
X6.4836Y-4.9
X6.5Y-0.1055
X6.5Y-0.2945
X6.5113Y-4.8332
X6.5113Y-4.9668
X6.5668Y-0.1332
X6.5668Y-0.2668
X6.5781Y-4.8055
X6.5781Y-4.9945
X6.5945Y-0.2
X6.6449Y-4.8332
X6.6449Y-4.9668
X6.6726Y-4.9
X6.8355Y-2.98
X6.8632Y-2.9132
X6.8632Y-3.0468
X6.93Y-2.8855
X6.93Y-3.0745
X6.9968Y-2.9132
X6.9968Y-3.0468
X7.0245Y-2.98
X7.5055Y-0.2
X7.5332Y-0.1332
X7.5332Y-0.2668
X7.6Y-0.1055
X7.6Y-0.2945
X7.6668Y-0.1332
X7.6668Y-0.2668
X7.6945Y-0.2
T6
X1.5554Y-2.2567
X1.6611Y-0.5117
X2.4815Y-2.4004
T8
X2.0008Y-2.9506
X2.0008Y-3.0506
X2.0008Y-3.1506
X2.0008Y-3.2506
X2.0008Y-3.3506
X2.0008Y-3.4506
X2.0008Y-3.5506
X2.0008Y-3.6506
X2.4008Y-2.9506
X2.4008Y-3.0506
X2.4008Y-3.1506
X2.4008Y-3.2506
X2.4008Y-3.3506
X2.4008Y-3.4506
X2.4008Y-3.5506
X2.4008Y-3.6506
T9
X0.3985Y-0.8641
X0.3985Y-0.9625
X0.3985Y-1.0609
X0.6516Y-0.1409
X0.6516Y-0.2591
X0.6688Y-3.9138
X0.7688Y-3.9138
X0.8484Y-0.1409
X0.8484Y-0.2591
X0.8688Y-3.9138
X0.9688Y-3.9138
X0.9693Y-0.8641
X0.9693Y-1.0609
X1.0688Y-3.9138
X1.1688Y-3.9138
X1.2688Y-3.9138
X1.3688Y-3.9138
X1.4688Y-3.9138
T11
X2.4188Y-0.8625
X2.4188Y-1.8
X2.6688Y-0.7625
X2.6688Y-1.7
X3.1688Y-1.8
X3.3563Y-0.8625
X3.4188Y-1.7
X3.5438Y-2.55
X3.6063Y-0.7625
X3.7313Y-3.3
X3.7938Y-2.45
X3.9188Y-1.8
X3.9813Y-3.2
X4.1063Y-0.8625
X4.1063Y-4.05
X4.1688Y-1.7
X4.2938Y-2.55
X4.3563Y-0.7625
X4.3563Y-3.95
X4.4813Y-3.3
X4.5438Y-2.45
X4.6688Y-1.8
X4.7313Y-3.2
X4.8563Y-0.8625
X4.8563Y-4.05
X4.9188Y-1.7
X5.0438Y-2.55
X5.1063Y-0.7625
X5.1063Y-3.95
X5.2313Y-3.3
X5.2938Y-2.45
X5.4188Y-1.8
X5.4813Y-3.2
X5.6063Y-0.8625
X5.6063Y-4.05
X5.6688Y-1.7
X5.7938Y-2.55
X5.8563Y-0.7625
X5.8563Y-3.95
X5.9813Y-3.3
X6.0438Y-2.45
X6.1688Y-1.8
X6.2313Y-3.2
X6.3563Y-4.05
X6.4188Y-1.7
X6.5438Y-0.8625
X6.5438Y-2.55
X6.6063Y-3.95
X6.7313Y-3.3
X6.7938Y-0.7625
X6.7938Y-2.45
X6.9188Y-1.8
X6.9813Y-3.2
X7.1063Y-4.05
X7.1688Y-1.7
X7.2938Y-0.8625
X7.3563Y-3.95
X7.5438Y-0.7625
T12
X0.4Y-4.2
X0.4332Y-0.2
X1.3063Y-0.2007
X1.98Y-5.09
X2.0Y-4.2
X2.1Y-0.2
X5.6844Y-4.9
X6.5Y-0.2
X6.5781Y-4.9
X6.93Y-2.98
X7.6Y-0.2
T7
G00X1.5299Y-0.0737
M15
G01X1.5299Y-0.05
M16
G05
G00X1.5299Y-0.2481
M15
G01X1.5299Y-0.2048
M16
G05
G00X1.8701Y-0.0737
M15
G01X1.8701Y-0.05
M16
G05
G00X1.8701Y-0.2481
M15
G01X1.8701Y-0.2048
M16
G05
G00X6.6822Y-0.2473
M15
G01X6.7128Y-0.2167
M16
G05
G00X6.8055Y-0.124
M15
G01X6.8222Y-0.1073
M16
G05
G00X6.9227Y-0.4878
M15
G01X6.9533Y-0.4572
M16
G05
G00X7.046Y-0.3645
M15
G01X7.0627Y-0.3478
M16
G05
T10
G00X0.6682Y-0.742
M15
G01X0.7193Y-0.742
M16
G05
G00X0.6682Y-1.183
M15
G01X0.7193Y-1.183
M16
G05
T0
M30
