G04 #@! TF.GenerationSoftware,KiCad,Pcbnew,7.0.1*
G04 #@! TF.CreationDate,2023-07-18T11:36:22-07:00*
G04 #@! TF.ProjectId,keyboard-left,6b657962-6f61-4726-942d-6c6566742e6b,rev?*
G04 #@! TF.SameCoordinates,Original*
G04 #@! TF.FileFunction,Paste,Top*
G04 #@! TF.FilePolarity,Positive*
%FSLAX46Y46*%
G04 Gerber Fmt 4.6, Leading zero omitted, Abs format (unit mm)*
G04 Created by KiCad (PCBNEW 7.0.1) date 2023-07-18 11:36:22*
%MOMM*%
%LPD*%
G01*
G04 APERTURE LIST*
G04 Aperture macros list*
%AMRoundRect*
0 Rectangle with rounded corners*
0 $1 Rounding radius*
0 $2 $3 $4 $5 $6 $7 $8 $9 X,Y pos of 4 corners*
0 Add a 4 corners polygon primitive as box body*
4,1,4,$2,$3,$4,$5,$6,$7,$8,$9,$2,$3,0*
0 Add four circle primitives for the rounded corners*
1,1,$1+$1,$2,$3*
1,1,$1+$1,$4,$5*
1,1,$1+$1,$6,$7*
1,1,$1+$1,$8,$9*
0 Add four rect primitives between the rounded corners*
20,1,$1+$1,$2,$3,$4,$5,0*
20,1,$1+$1,$4,$5,$6,$7,0*
20,1,$1+$1,$6,$7,$8,$9,0*
20,1,$1+$1,$8,$9,$2,$3,0*%
%AMRotRect*
0 Rectangle, with rotation*
0 The origin of the aperture is its center*
0 $1 length*
0 $2 width*
0 $3 Rotation angle, in degrees counterclockwise*
0 Add horizontal line*
21,1,$1,$2,0,0,$3*%
G04 Aperture macros list end*
%ADD10RoundRect,0.250000X-0.300000X0.300000X-0.300000X-0.300000X0.300000X-0.300000X0.300000X0.300000X0*%
%ADD11RoundRect,0.350000X-0.500500X-0.350000X0.500500X-0.350000X0.500500X0.350000X-0.500500X0.350000X0*%
%ADD12RoundRect,0.123750X0.123750X-0.656250X0.123750X0.656250X-0.123750X0.656250X-0.123750X-0.656250X0*%
%ADD13RoundRect,0.300000X0.550500X0.300000X-0.550500X0.300000X-0.550500X-0.300000X0.550500X-0.300000X0*%
%ADD14RoundRect,0.350000X0.350000X-0.500500X0.350000X0.500500X-0.350000X0.500500X-0.350000X-0.500500X0*%
%ADD15RoundRect,0.150000X0.150000X-0.825000X0.150000X0.825000X-0.150000X0.825000X-0.150000X-0.825000X0*%
%ADD16RoundRect,0.350000X0.500500X0.350000X-0.500500X0.350000X-0.500500X-0.350000X0.500500X-0.350000X0*%
%ADD17RoundRect,0.250000X0.625000X-0.375000X0.625000X0.375000X-0.625000X0.375000X-0.625000X-0.375000X0*%
%ADD18RoundRect,0.123750X-0.656250X-0.123750X0.656250X-0.123750X0.656250X0.123750X-0.656250X0.123750X0*%
%ADD19RoundRect,0.350000X-0.350000X0.500500X-0.350000X-0.500500X0.350000X-0.500500X0.350000X0.500500X0*%
%ADD20RoundRect,0.250000X0.787500X0.925000X-0.787500X0.925000X-0.787500X-0.925000X0.787500X-0.925000X0*%
%ADD21RoundRect,0.123750X-0.123750X0.656250X-0.123750X-0.656250X0.123750X-0.656250X0.123750X0.656250X0*%
%ADD22RotRect,0.600000X2.450000X135.000000*%
%ADD23RotRect,0.300000X2.450000X135.000000*%
%ADD24RoundRect,0.300000X-0.300000X0.550500X-0.300000X-0.550500X0.300000X-0.550500X0.300000X0.550500X0*%
%ADD25R,0.600000X2.450000*%
%ADD26R,0.300000X2.450000*%
%ADD27O,3.000000X1.000000*%
%ADD28RoundRect,0.250000X0.925000X-0.787500X0.925000X0.787500X-0.925000X0.787500X-0.925000X-0.787500X0*%
G04 APERTURE END LIST*
D10*
X27940000Y-3767900D03*
X27940000Y-6567900D03*
D11*
X146577000Y-39878000D03*
X149079000Y-39878000D03*
D12*
X46040000Y-23020000D03*
X46990000Y-23020000D03*
X47940000Y-23020000D03*
X47940000Y-20320000D03*
X46990000Y-20320000D03*
X46040000Y-20320000D03*
D13*
X37611000Y-25660000D03*
X33509000Y-25660000D03*
D14*
X146640000Y-13951000D03*
X146640000Y-11449000D03*
X177292000Y-38335000D03*
X177292000Y-35833000D03*
D15*
X44069000Y-75873000D03*
X45339000Y-75873000D03*
X46609000Y-75873000D03*
X47879000Y-75873000D03*
X47879000Y-69923000D03*
X46609000Y-69923000D03*
X45339000Y-69923000D03*
X44069000Y-69923000D03*
D16*
X24111000Y-58928000D03*
X21609000Y-58928000D03*
D14*
X168148000Y-38335000D03*
X168148000Y-35833000D03*
D17*
X132080000Y-11560000D03*
X132080000Y-8760000D03*
D16*
X15221000Y-72980000D03*
X12719000Y-72980000D03*
D18*
X183054000Y-32578000D03*
X183054000Y-34478000D03*
X185754000Y-33528000D03*
D19*
X33704500Y-50419300D03*
X33704500Y-52921300D03*
D14*
X22180000Y-40640000D03*
X22180000Y-38138000D03*
D18*
X37434500Y-53461300D03*
X37434500Y-54411300D03*
X37434500Y-55361300D03*
X40134500Y-55361300D03*
X40134500Y-54411300D03*
X40134500Y-53461300D03*
D11*
X151657000Y-35306000D03*
X154159000Y-35306000D03*
D18*
X27612000Y-93096000D03*
X27612000Y-94996000D03*
X30312000Y-94046000D03*
D11*
X151657000Y-33020000D03*
X154159000Y-33020000D03*
D19*
X58420000Y-3829000D03*
X58420000Y-6331000D03*
D11*
X26435000Y-83312000D03*
X28937000Y-83312000D03*
D20*
X146226500Y-6350000D03*
X141301500Y-6350000D03*
D21*
X37780000Y-37940000D03*
X36830000Y-37940000D03*
X35880000Y-37940000D03*
X35880000Y-40640000D03*
X37780000Y-40640000D03*
D14*
X148840000Y-13951000D03*
X148840000Y-11449000D03*
X144440000Y-13951000D03*
X144440000Y-11449000D03*
D19*
X41952000Y-78516000D03*
X41952000Y-81018000D03*
D14*
X142240000Y-13951000D03*
X142240000Y-11449000D03*
D11*
X141497000Y-39878000D03*
X143999000Y-39878000D03*
D12*
X25720000Y-12780000D03*
X27620000Y-12780000D03*
X26670000Y-10080000D03*
D22*
X174450579Y-12228259D03*
X173902572Y-11680252D03*
D23*
X173054043Y-10831724D03*
X172346937Y-10124617D03*
X171993383Y-9771063D03*
D22*
X169889741Y-7667421D03*
X170437748Y-8215428D03*
D23*
X170932723Y-8710403D03*
X171639830Y-9417510D03*
X172700490Y-10478170D03*
X173407597Y-11185277D03*
X171286276Y-9063957D03*
D14*
X17780000Y-40640000D03*
X17780000Y-38138000D03*
X170434000Y-38335000D03*
X170434000Y-35833000D03*
D16*
X15221000Y-70780000D03*
X12719000Y-70780000D03*
D14*
X134620000Y-11411000D03*
X134620000Y-8909000D03*
D19*
X144272000Y-129305000D03*
X144272000Y-131807000D03*
D16*
X15221000Y-75180000D03*
X12719000Y-75180000D03*
D14*
X153240000Y-13951000D03*
X153240000Y-11449000D03*
D18*
X120570000Y-9210000D03*
X120570000Y-11110000D03*
X123270000Y-10160000D03*
D20*
X41324500Y-59271300D03*
X36399500Y-59271300D03*
D16*
X45866000Y-106680000D03*
X43364000Y-106680000D03*
D14*
X19980000Y-40640000D03*
X19980000Y-38138000D03*
D17*
X40640000Y-25660000D03*
X40640000Y-22860000D03*
D14*
X172720000Y-38335000D03*
X172720000Y-35833000D03*
D11*
X32969000Y-15539000D03*
X35471000Y-15539000D03*
X151657000Y-37592000D03*
X154159000Y-37592000D03*
D24*
X129540000Y-8109000D03*
X129540000Y-12211000D03*
D11*
X13989000Y-10160000D03*
X16491000Y-10160000D03*
X32969000Y-19939000D03*
X35471000Y-19939000D03*
D14*
X26580000Y-40640000D03*
X26580000Y-38138000D03*
D19*
X41910000Y-69489600D03*
X41910000Y-71991600D03*
D14*
X151040000Y-13951000D03*
X151040000Y-11449000D03*
X40640000Y-19272000D03*
X40640000Y-16770000D03*
D11*
X35899000Y-31670000D03*
X38401000Y-31670000D03*
X38822500Y-47841300D03*
X41324500Y-47841300D03*
X32969000Y-22139000D03*
X35471000Y-22139000D03*
X189249000Y-10160000D03*
X191751000Y-10160000D03*
X32969000Y-13339000D03*
X35471000Y-13339000D03*
D16*
X170923000Y-77216000D03*
X168421000Y-77216000D03*
D18*
X158670000Y-14290000D03*
X158670000Y-15240000D03*
X158670000Y-16190000D03*
X161370000Y-16190000D03*
X161370000Y-15240000D03*
X161370000Y-14290000D03*
D11*
X16529000Y-106680000D03*
X19031000Y-106680000D03*
D19*
X167132000Y-129305000D03*
X167132000Y-131807000D03*
D14*
X24380000Y-40640000D03*
X24380000Y-38138000D03*
X38100000Y-69831000D03*
X38100000Y-67329000D03*
D11*
X44745000Y-56818000D03*
X47247000Y-56818000D03*
X44707000Y-66978000D03*
X47209000Y-66978000D03*
X32969000Y-11139000D03*
X35471000Y-11139000D03*
D12*
X158054000Y-38180000D03*
X159004000Y-38180000D03*
X159954000Y-38180000D03*
X159954000Y-35480000D03*
X159004000Y-35480000D03*
X158054000Y-35480000D03*
D18*
X183054000Y-37658000D03*
X183054000Y-39558000D03*
X185754000Y-38608000D03*
D14*
X44707000Y-54240000D03*
X44707000Y-51738000D03*
D16*
X158731000Y-5080000D03*
X156229000Y-5080000D03*
D12*
X31120000Y-32760000D03*
X33020000Y-32760000D03*
X32070000Y-30060000D03*
D11*
X35880000Y-34210000D03*
X38382000Y-34210000D03*
D14*
X15580000Y-40640000D03*
X15580000Y-38138000D03*
X175006000Y-38335000D03*
X175006000Y-35833000D03*
D25*
X46405000Y-7166000D03*
X45630000Y-7166000D03*
D26*
X44430000Y-7166000D03*
X43430000Y-7166000D03*
X42930000Y-7166000D03*
D25*
X39955000Y-7166000D03*
X40730000Y-7166000D03*
D26*
X41430000Y-7166000D03*
X42430000Y-7166000D03*
X43930000Y-7166000D03*
X44930000Y-7166000D03*
X41930000Y-7166000D03*
D15*
X44069000Y-83823000D03*
X45339000Y-83823000D03*
X46609000Y-83823000D03*
X47879000Y-83823000D03*
X47879000Y-78873000D03*
X46609000Y-78873000D03*
X45339000Y-78873000D03*
X44069000Y-78873000D03*
D19*
X38100000Y-72155000D03*
X38100000Y-74657000D03*
D11*
X35880000Y-29130000D03*
X38382000Y-29130000D03*
X32969000Y-17739000D03*
X35471000Y-17739000D03*
X151657000Y-39878000D03*
X154159000Y-39878000D03*
D18*
X35232000Y-93096000D03*
X35232000Y-94996000D03*
X37932000Y-94046000D03*
D10*
X25400000Y-3767900D03*
X25400000Y-6567900D03*
D16*
X15221000Y-68580000D03*
X12719000Y-68580000D03*
D14*
X47247000Y-54278000D03*
X47247000Y-51776000D03*
D27*
X7730000Y-60960000D03*
X7730000Y-63500000D03*
X7730000Y-66040000D03*
X7730000Y-68580000D03*
X7730000Y-71120000D03*
D21*
X47877000Y-60288000D03*
X46927000Y-60288000D03*
X45977000Y-60288000D03*
X45977000Y-62988000D03*
X47877000Y-62988000D03*
D28*
X158242000Y-28624500D03*
X158242000Y-23699500D03*
D11*
X55645000Y-132080000D03*
X58147000Y-132080000D03*
D12*
X31120000Y-40640000D03*
X33020000Y-40640000D03*
X32070000Y-37940000D03*
D14*
X37592000Y-3791000D03*
X37592000Y-1289000D03*
X165862000Y-38335000D03*
X165862000Y-35833000D03*
D20*
X134383800Y-76310000D03*
X129458800Y-76310000D03*
D28*
X126100000Y-127092500D03*
X126100000Y-122167500D03*
D20*
X124858800Y-57260000D03*
X119933800Y-57260000D03*
X129621300Y-114410000D03*
X124696300Y-114410000D03*
X129621300Y-33447500D03*
X124696300Y-33447500D03*
X139146300Y-95360000D03*
X134221300Y-95360000D03*
M02*
