  0
SECTION
  2
HEADER
  9
$ACADVER
  1
AC1009
  9
$FILLMODE
 70
 0
  9
$SPLFRAME
 70
 1
  9
$EXTMIN
 10
0
 20
0
 30
0.0
  9
$EXTMAX
 10
1058.33
 20
1058.33
 30
0.0
  0
ENDSEC
  0
SECTION
  2
TABLES
  0
TABLE
  2
LAYER
 70
1
  0
LAYER
  2
0
 70
     0
 62
     7
  6
CONTINUOUS
  0
ENDTAB
  0
ENDSEC
  0
SECTION
  2
ENTITIES
  0
LINE
  8
0
 62
     0
 10
5.09598
 20
129.312
 30
0.0
 11
5.09598
 21
5.17042
 31
0.0
  0
LINE
  8
0
 62
     0
 10
5.09598
 20
5.17042
 30
0.0
 11
150.512
 21
5.17042
 31
0.0
  0
LINE
  8
0
 62
     0
 10
150.512
 20
5.17042
 30
0.0
 11
150.512
 21
3.16949
 31
0.0
  0
LINE
  8
0
 62
     0
 10
150.512
 20
3.16949
 30
0.0
 11
150.501
 21
2.93522
 31
0.0
  0
LINE
  8
0
 62
     0
 10
150.501
 20
2.93522
 30
0.0
 11
150.475
 21
2.70095
 31
0.0
  0
LINE
  8
0
 62
     0
 10
150.475
 20
2.70095
 30
0.0
 11
150.428
 21
2.46944
 31
0.0
  0
LINE
  8
0
 62
     0
 10
150.428
 20
2.46944
 30
0.0
 11
150.364
 21
2.24345
 31
0.0
  0
LINE
  8
0
 62
     0
 10
150.364
 20
2.24345
 30
0.0
 11
150.282
 21
2.02158
 31
0.0
  0
LINE
  8
0
 62
     0
 10
150.282
 20
2.02158
 30
0.0
 11
150.184
 21
1.80799
 31
0.0
  0
LINE
  8
0
 62
     0
 10
150.184
 20
1.80799
 30
0.0
 11
150.068
 21
1.60266
 31
0.0
  0
LINE
  8
0
 62
     0
 10
150.068
 20
1.60266
 30
0.0
 11
149.939
 21
1.40698
 31
0.0
  0
LINE
  8
0
 62
     0
 10
149.939
 20
1.40698
 30
0.0
 11
149.793
 21
1.22232
 31
0.0
  0
LINE
  8
0
 62
     0
 10
149.793
 20
1.22232
 30
0.0
 11
149.633
 21
1.04869
 31
0.0
  0
LINE
  8
0
 62
     0
 10
149.633
 20
1.04869
 30
0.0
 11
149.459
 21
0.888834
 31
0.0
  0
LINE
  8
0
 62
     0
 10
149.459
 20
0.888834
 30
0.0
 11
149.275
 21
0.742763
 31
0.0
  0
LINE
  8
0
 62
     0
 10
149.275
 20
0.742763
 30
0.0
 11
149.079
 21
0.611851
 31
0.0
  0
LINE
  8
0
 62
     0
 10
149.079
 20
0.611851
 30
0.0
 11
148.872
 21
0.497473
 31
0.0
  0
LINE
  8
0
 62
     0
 10
148.872
 20
0.497473
 30
0.0
 11
148.66
 21
0.398254
 31
0.0
  0
LINE
  8
0
 62
     0
 10
148.66
 20
0.398254
 30
0.0
 11
148.438
 21
0.316949
 31
0.0
  0
LINE
  8
0
 62
     0
 10
148.438
 20
0.316949
 30
0.0
 11
148.212
 21
0.252181
 31
0.0
  0
LINE
  8
0
 62
     0
 10
148.212
 20
0.252181
 30
0.0
 11
147.981
 21
0.206706
 31
0.0
  0
LINE
  8
0
 62
     0
 10
147.981
 20
0.206706
 30
0.0
 11
147.747
 21
0.179145
 31
0.0
  0
LINE
  8
0
 62
     0
 10
147.747
 20
0.179145
 30
0.0
 11
147.511
 21
0.169499
 31
0.0
  0
LINE
  8
0
 62
     0
 10
147.511
 20
0.169499
 30
0.0
 11
3.09507
 21
0.169499
 31
0.0
  0
LINE
  8
0
 62
     0
 10
3.09507
 20
0.169499
 30
0.0
 11
2.85943
 21
0.179145
 31
0.0
  0
LINE
  8
0
 62
     0
 10
2.85943
 20
0.179145
 30
0.0
 11
2.62516
 21
0.206706
 31
0.0
  0
LINE
  8
0
 62
     0
 10
2.62516
 20
0.206706
 30
0.0
 11
2.39503
 21
0.252181
 31
0.0
  0
LINE
  8
0
 62
     0
 10
2.39503
 20
0.252181
 30
0.0
 11
2.16765
 21
0.316949
 31
0.0
  0
LINE
  8
0
 62
     0
 10
2.16765
 20
0.316949
 30
0.0
 11
1.94717
 21
0.398254
 31
0.0
  0
LINE
  8
0
 62
     0
 10
1.94717
 20
0.398254
 30
0.0
 11
1.73357
 21
0.497473
 31
0.0
  0
LINE
  8
0
 62
     0
 10
1.73357
 20
0.497473
 30
0.0
 11
1.52687
 21
0.611851
 31
0.0
  0
LINE
  8
0
 62
     0
 10
1.52687
 20
0.611851
 30
0.0
 11
1.33119
 21
0.742763
 31
0.0
  0
LINE
  8
0
 62
     0
 10
1.33119
 20
0.742763
 30
0.0
 11
1.14653
 21
0.888834
 31
0.0
  0
LINE
  8
0
 62
     0
 10
1.14653
 20
0.888834
 30
0.0
 11
0.972894
 21
1.04869
 31
0.0
  0
LINE
  8
0
 62
     0
 10
0.972894
 20
1.04869
 30
0.0
 11
0.813043
 21
1.22232
 31
0.0
  0
LINE
  8
0
 62
     0
 10
0.813043
 20
1.22232
 30
0.0
 11
0.666972
 21
1.40698
 31
0.0
  0
LINE
  8
0
 62
     0
 10
0.666972
 20
1.40698
 30
0.0
 11
0.537436
 21
1.60266
 31
0.0
  0
LINE
  8
0
 62
     0
 10
0.537436
 20
1.60266
 30
0.0
 11
0.421679
 21
1.80799
 31
0.0
  0
LINE
  8
0
 62
     0
 10
0.421679
 20
1.80799
 30
0.0
 11
0.323839
 21
2.02158
 31
0.0
  0
LINE
  8
0
 62
     0
 10
0.323839
 20
2.02158
 30
0.0
 11
0.241157
 21
2.24345
 31
0.0
  0
LINE
  8
0
 62
     0
 10
0.241157
 20
2.24345
 30
0.0
 11
0.177767
 21
2.46944
 31
0.0
  0
LINE
  8
0
 62
     0
 10
0.177767
 20
2.46944
 30
0.0
 11
0.130914
 21
2.70095
 31
0.0
  0
LINE
  8
0
 62
     0
 10
0.130914
 20
2.70095
 30
0.0
 11
0.104731
 21
2.93522
 31
0.0
  0
LINE
  8
0
 62
     0
 10
0.104731
 20
2.93522
 30
0.0
 11
0.0950846
 21
3.16949
 31
0.0
  0
LINE
  8
0
 62
     0
 10
0.0950846
 20
3.16949
 30
0.0
 11
0.0950846
 21
131.313
 31
0.0
  0
LINE
  8
0
 62
     0
 10
0.0950846
 20
131.313
 30
0.0
 11
0.104731
 21
131.549
 31
0.0
  0
LINE
  8
0
 62
     0
 10
0.104731
 20
131.549
 30
0.0
 11
0.130914
 21
131.783
 31
0.0
  0
LINE
  8
0
 62
     0
 10
0.130914
 20
131.783
 30
0.0
 11
0.177767
 21
132.013
 31
0.0
  0
LINE
  8
0
 62
     0
 10
0.177767
 20
132.013
 30
0.0
 11
0.241157
 21
132.241
 31
0.0
  0
LINE
  8
0
 62
     0
 10
0.241157
 20
132.241
 30
0.0
 11
0.323839
 21
132.461
 31
0.0
  0
LINE
  8
0
 62
     0
 10
0.323839
 20
132.461
 30
0.0
 11
0.421679
 21
132.675
 31
0.0
  0
LINE
  8
0
 62
     0
 10
0.421679
 20
132.675
 30
0.0
 11
0.537436
 21
132.882
 31
0.0
  0
LINE
  8
0
 62
     0
 10
0.537436
 20
132.882
 30
0.0
 11
0.666972
 21
133.077
 31
0.0
  0
LINE
  8
0
 62
     0
 10
0.666972
 20
133.077
 30
0.0
 11
0.813043
 21
133.262
 31
0.0
  0
LINE
  8
0
 62
     0
 10
0.813043
 20
133.262
 30
0.0
 11
0.972894
 21
133.435
 31
0.0
  0
LINE
  8
0
 62
     0
 10
0.972894
 20
133.435
 30
0.0
 11
1.14653
 21
133.595
 31
0.0
  0
LINE
  8
0
 62
     0
 10
1.14653
 20
133.595
 30
0.0
 11
1.33119
 21
133.741
 31
0.0
  0
LINE
  8
0
 62
     0
 10
1.33119
 20
133.741
 30
0.0
 11
1.52687
 21
133.871
 31
0.0
  0
LINE
  8
0
 62
     0
 10
1.52687
 20
133.871
 30
0.0
 11
1.73357
 21
133.987
 31
0.0
  0
LINE
  8
0
 62
     0
 10
1.73357
 20
133.987
 30
0.0
 11
1.94717
 21
134.084
 31
0.0
  0
LINE
  8
0
 62
     0
 10
1.94717
 20
134.084
 30
0.0
 11
2.16765
 21
134.167
 31
0.0
  0
LINE
  8
0
 62
     0
 10
2.16765
 20
134.167
 30
0.0
 11
2.39503
 21
134.231
 31
0.0
  0
LINE
  8
0
 62
     0
 10
2.39503
 20
134.231
 30
0.0
 11
2.62516
 21
134.277
 31
0.0
  0
LINE
  8
0
 62
     0
 10
2.62516
 20
134.277
 30
0.0
 11
2.85943
 21
134.304
 31
0.0
  0
LINE
  8
0
 62
     0
 10
2.85943
 20
134.304
 30
0.0
 11
3.09507
 21
134.313
 31
0.0
  0
LINE
  8
0
 62
     0
 10
3.09507
 20
134.313
 30
0.0
 11
147.512
 21
134.313
 31
0.0
  0
LINE
  8
0
 62
     0
 10
147.512
 20
134.313
 30
0.0
 11
147.747
 21
134.304
 31
0.0
  0
LINE
  8
0
 62
     0
 10
147.747
 20
134.304
 30
0.0
 11
147.981
 21
134.277
 31
0.0
  0
LINE
  8
0
 62
     0
 10
147.981
 20
134.277
 30
0.0
 11
148.212
 21
134.231
 31
0.0
  0
LINE
  8
0
 62
     0
 10
148.212
 20
134.231
 30
0.0
 11
148.438
 21
134.167
 31
0.0
  0
LINE
  8
0
 62
     0
 10
148.438
 20
134.167
 30
0.0
 11
148.66
 21
134.084
 31
0.0
  0
LINE
  8
0
 62
     0
 10
148.66
 20
134.084
 30
0.0
 11
148.872
 21
133.987
 31
0.0
  0
LINE
  8
0
 62
     0
 10
148.872
 20
133.987
 30
0.0
 11
149.079
 21
133.871
 31
0.0
  0
LINE
  8
0
 62
     0
 10
149.079
 20
133.871
 30
0.0
 11
149.275
 21
133.741
 31
0.0
  0
LINE
  8
0
 62
     0
 10
149.275
 20
133.741
 30
0.0
 11
149.459
 21
133.595
 31
0.0
  0
LINE
  8
0
 62
     0
 10
149.459
 20
133.595
 30
0.0
 11
149.633
 21
133.435
 31
0.0
  0
LINE
  8
0
 62
     0
 10
149.633
 20
133.435
 30
0.0
 11
149.793
 21
133.262
 31
0.0
  0
LINE
  8
0
 62
     0
 10
149.793
 20
133.262
 30
0.0
 11
149.939
 21
133.077
 31
0.0
  0
LINE
  8
0
 62
     0
 10
149.939
 20
133.077
 30
0.0
 11
150.068
 21
132.882
 31
0.0
  0
LINE
  8
0
 62
     0
 10
150.068
 20
132.882
 30
0.0
 11
150.184
 21
132.675
 31
0.0
  0
LINE
  8
0
 62
     0
 10
150.184
 20
132.675
 30
0.0
 11
150.282
 21
132.461
 31
0.0
  0
LINE
  8
0
 62
     0
 10
150.282
 20
132.461
 30
0.0
 11
150.364
 21
132.241
 31
0.0
  0
LINE
  8
0
 62
     0
 10
150.364
 20
132.241
 30
0.0
 11
150.428
 21
132.013
 31
0.0
  0
LINE
  8
0
 62
     0
 10
150.428
 20
132.013
 30
0.0
 11
150.475
 21
131.783
 31
0.0
  0
LINE
  8
0
 62
     0
 10
150.475
 20
131.783
 30
0.0
 11
150.501
 21
131.549
 31
0.0
  0
LINE
  8
0
 62
     0
 10
150.501
 20
131.549
 30
0.0
 11
150.512
 21
131.313
 31
0.0
  0
LINE
  8
0
 62
     0
 10
150.512
 20
131.313
 30
0.0
 11
150.512
 21
129.312
 31
0.0
  0
LINE
  8
0
 62
     0
 10
150.512
 20
129.312
 30
0.0
 11
5.09598
 21
129.312
 31
0.0
  0
LINE
  8
0
 62
     0
 10
2.13183
 20
4.09691
 30
0.0
 11
1.7129
 21
3.88331
 31
0.0
  0
LINE
  8
0
 62
     0
 10
1.7129
 20
3.88331
 30
0.0
 11
1.38217
 21
3.5512
 31
0.0
  0
LINE
  8
0
 62
     0
 10
1.38217
 20
3.5512
 30
0.0
 11
1.16858
 21
3.13366
 31
0.0
  0
LINE
  8
0
 62
     0
 10
1.16858
 20
3.13366
 30
0.0
 11
1.09416
 21
2.66926
 31
0.0
  0
LINE
  8
0
 62
     0
 10
1.09416
 20
2.66926
 30
0.0
 11
1.16858
 21
2.20624
 31
0.0
  0
LINE
  8
0
 62
     0
 10
1.16858
 20
2.20624
 30
0.0
 11
1.38217
 21
1.78732
 31
0.0
  0
LINE
  8
0
 62
     0
 10
1.38217
 20
1.78732
 30
0.0
 11
1.7129
 21
1.45521
 31
0.0
  0
LINE
  8
0
 62
     0
 10
1.7129
 20
1.45521
 30
0.0
 11
2.13183
 21
1.24299
 31
0.0
  0
LINE
  8
0
 62
     0
 10
2.13183
 20
1.24299
 30
0.0
 11
2.59485
 21
1.16996
 31
0.0
  0
LINE
  8
0
 62
     0
 10
2.59485
 20
1.16996
 30
0.0
 11
3.05787
 21
1.24299
 31
0.0
  0
LINE
  8
0
 62
     0
 10
3.05787
 20
1.24299
 30
0.0
 11
3.47679
 21
1.45521
 31
0.0
  0
LINE
  8
0
 62
     0
 10
3.47679
 20
1.45521
 30
0.0
 11
3.80891
 21
1.78732
 31
0.0
  0
LINE
  8
0
 62
     0
 10
3.80891
 20
1.78732
 30
0.0
 11
4.0211
 21
2.20624
 31
0.0
  0
LINE
  8
0
 62
     0
 10
4.0211
 20
2.20624
 30
0.0
 11
4.09554
 21
2.66926
 31
0.0
  0
LINE
  8
0
 62
     0
 10
4.09554
 20
2.66926
 30
0.0
 11
4.0211
 21
3.13366
 31
0.0
  0
LINE
  8
0
 62
     0
 10
4.0211
 20
3.13366
 30
0.0
 11
3.80891
 21
3.5512
 31
0.0
  0
LINE
  8
0
 62
     0
 10
3.80891
 20
3.5512
 30
0.0
 11
3.47679
 21
3.88331
 31
0.0
  0
LINE
  8
0
 62
     0
 10
3.47679
 20
3.88331
 30
0.0
 11
3.05787
 21
4.09691
 31
0.0
  0
LINE
  8
0
 62
     0
 10
3.05787
 20
4.09691
 30
0.0
 11
2.59485
 21
4.16994
 31
0.0
  0
LINE
  8
0
 62
     0
 10
2.59485
 20
4.16994
 30
0.0
 11
2.13183
 21
4.09691
 31
0.0
  0
LINE
  8
0
 62
     0
 10
147.548
 20
4.09691
 30
0.0
 11
147.129
 21
3.88331
 31
0.0
  0
LINE
  8
0
 62
     0
 10
147.129
 20
3.88331
 30
0.0
 11
146.797
 21
3.5512
 31
0.0
  0
LINE
  8
0
 62
     0
 10
146.797
 20
3.5512
 30
0.0
 11
146.585
 21
3.13366
 31
0.0
  0
LINE
  8
0
 62
     0
 10
146.585
 20
3.13366
 30
0.0
 11
146.51
 21
2.66926
 31
0.0
  0
LINE
  8
0
 62
     0
 10
146.51
 20
2.66926
 30
0.0
 11
146.585
 21
2.20624
 31
0.0
  0
LINE
  8
0
 62
     0
 10
146.585
 20
2.20624
 30
0.0
 11
146.797
 21
1.78732
 31
0.0
  0
LINE
  8
0
 62
     0
 10
146.797
 20
1.78732
 30
0.0
 11
147.129
 21
1.45521
 31
0.0
  0
LINE
  8
0
 62
     0
 10
147.129
 20
1.45521
 30
0.0
 11
147.548
 21
1.24299
 31
0.0
  0
LINE
  8
0
 62
     0
 10
147.548
 20
1.24299
 30
0.0
 11
148.011
 21
1.16996
 31
0.0
  0
LINE
  8
0
 62
     0
 10
148.011
 20
1.16996
 30
0.0
 11
148.474
 21
1.24299
 31
0.0
  0
LINE
  8
0
 62
     0
 10
148.474
 20
1.24299
 30
0.0
 11
148.893
 21
1.45521
 31
0.0
  0
LINE
  8
0
 62
     0
 10
148.893
 20
1.45521
 30
0.0
 11
149.225
 21
1.78732
 31
0.0
  0
LINE
  8
0
 62
     0
 10
149.225
 20
1.78732
 30
0.0
 11
149.437
 21
2.20624
 31
0.0
  0
LINE
  8
0
 62
     0
 10
149.437
 20
2.20624
 30
0.0
 11
149.512
 21
2.66926
 31
0.0
  0
LINE
  8
0
 62
     0
 10
149.512
 20
2.66926
 30
0.0
 11
149.437
 21
3.13366
 31
0.0
  0
LINE
  8
0
 62
     0
 10
149.437
 20
3.13366
 30
0.0
 11
149.225
 21
3.5512
 31
0.0
  0
LINE
  8
0
 62
     0
 10
149.225
 20
3.5512
 30
0.0
 11
148.893
 21
3.88331
 31
0.0
  0
LINE
  8
0
 62
     0
 10
148.893
 20
3.88331
 30
0.0
 11
148.474
 21
4.09691
 31
0.0
  0
LINE
  8
0
 62
     0
 10
148.474
 20
4.09691
 30
0.0
 11
148.011
 21
4.16994
 31
0.0
  0
LINE
  8
0
 62
     0
 10
148.011
 20
4.16994
 30
0.0
 11
147.548
 21
4.09691
 31
0.0
  0
LINE
  8
0
 62
     0
 10
2.13183
 20
133.24
 30
0.0
 11
1.7129
 21
133.026
 31
0.0
  0
LINE
  8
0
 62
     0
 10
1.7129
 20
133.026
 30
0.0
 11
1.38217
 21
132.696
 31
0.0
  0
LINE
  8
0
 62
     0
 10
1.38217
 20
132.696
 30
0.0
 11
1.16858
 21
132.276
 31
0.0
  0
LINE
  8
0
 62
     0
 10
1.16858
 20
132.276
 30
0.0
 11
1.09416
 21
131.814
 31
0.0
  0
LINE
  8
0
 62
     0
 10
1.09416
 20
131.814
 30
0.0
 11
1.16858
 21
131.35
 31
0.0
  0
LINE
  8
0
 62
     0
 10
1.16858
 20
131.35
 30
0.0
 11
1.38217
 21
130.932
 31
0.0
  0
LINE
  8
0
 62
     0
 10
1.38217
 20
130.932
 30
0.0
 11
1.7129
 21
130.599
 31
0.0
  0
LINE
  8
0
 62
     0
 10
1.7129
 20
130.599
 30
0.0
 11
2.13183
 21
130.387
 31
0.0
  0
LINE
  8
0
 62
     0
 10
2.13183
 20
130.387
 30
0.0
 11
2.59485
 21
130.313
 31
0.0
  0
LINE
  8
0
 62
     0
 10
2.59485
 20
130.313
 30
0.0
 11
3.05787
 21
130.387
 31
0.0
  0
LINE
  8
0
 62
     0
 10
3.05787
 20
130.387
 30
0.0
 11
3.47679
 21
130.599
 31
0.0
  0
LINE
  8
0
 62
     0
 10
3.47679
 20
130.599
 30
0.0
 11
3.80891
 21
130.932
 31
0.0
  0
LINE
  8
0
 62
     0
 10
3.80891
 20
130.932
 30
0.0
 11
4.0211
 21
131.35
 31
0.0
  0
LINE
  8
0
 62
     0
 10
4.0211
 20
131.35
 30
0.0
 11
4.09554
 21
131.814
 31
0.0
  0
LINE
  8
0
 62
     0
 10
4.09554
 20
131.814
 30
0.0
 11
4.0211
 21
132.276
 31
0.0
  0
LINE
  8
0
 62
     0
 10
4.0211
 20
132.276
 30
0.0
 11
3.80891
 21
132.696
 31
0.0
  0
LINE
  8
0
 62
     0
 10
3.80891
 20
132.696
 30
0.0
 11
3.47679
 21
133.026
 31
0.0
  0
LINE
  8
0
 62
     0
 10
3.47679
 20
133.026
 30
0.0
 11
3.05787
 21
133.24
 31
0.0
  0
LINE
  8
0
 62
     0
 10
3.05787
 20
133.24
 30
0.0
 11
2.59485
 21
133.313
 31
0.0
  0
LINE
  8
0
 62
     0
 10
2.59485
 20
133.313
 30
0.0
 11
2.13183
 21
133.24
 31
0.0
  0
LINE
  8
0
 62
     0
 10
147.548
 20
133.24
 30
0.0
 11
147.129
 21
133.026
 31
0.0
  0
LINE
  8
0
 62
     0
 10
147.129
 20
133.026
 30
0.0
 11
146.797
 21
132.696
 31
0.0
  0
LINE
  8
0
 62
     0
 10
146.797
 20
132.696
 30
0.0
 11
146.585
 21
132.276
 31
0.0
  0
LINE
  8
0
 62
     0
 10
146.585
 20
132.276
 30
0.0
 11
146.51
 21
131.814
 31
0.0
  0
LINE
  8
0
 62
     0
 10
146.51
 20
131.814
 30
0.0
 11
146.585
 21
131.35
 31
0.0
  0
LINE
  8
0
 62
     0
 10
146.585
 20
131.35
 30
0.0
 11
146.797
 21
130.932
 31
0.0
  0
LINE
  8
0
 62
     0
 10
146.797
 20
130.932
 30
0.0
 11
147.129
 21
130.599
 31
0.0
  0
LINE
  8
0
 62
     0
 10
147.129
 20
130.599
 30
0.0
 11
147.548
 21
130.387
 31
0.0
  0
LINE
  8
0
 62
     0
 10
147.548
 20
130.387
 30
0.0
 11
148.011
 21
130.313
 31
0.0
  0
LINE
  8
0
 62
     0
 10
148.011
 20
130.313
 30
0.0
 11
148.474
 21
130.387
 31
0.0
  0
LINE
  8
0
 62
     0
 10
148.474
 20
130.387
 30
0.0
 11
148.893
 21
130.599
 31
0.0
  0
LINE
  8
0
 62
     0
 10
148.893
 20
130.599
 30
0.0
 11
149.225
 21
130.932
 31
0.0
  0
LINE
  8
0
 62
     0
 10
149.225
 20
130.932
 30
0.0
 11
149.437
 21
131.35
 31
0.0
  0
LINE
  8
0
 62
     0
 10
149.437
 20
131.35
 30
0.0
 11
149.512
 21
131.814
 31
0.0
  0
LINE
  8
0
 62
     0
 10
149.512
 20
131.814
 30
0.0
 11
149.437
 21
132.276
 31
0.0
  0
LINE
  8
0
 62
     0
 10
149.437
 20
132.276
 30
0.0
 11
149.225
 21
132.696
 31
0.0
  0
LINE
  8
0
 62
     0
 10
149.225
 20
132.696
 30
0.0
 11
148.893
 21
133.026
 31
0.0
  0
LINE
  8
0
 62
     0
 10
148.893
 20
133.026
 30
0.0
 11
148.474
 21
133.24
 31
0.0
  0
LINE
  8
0
 62
     0
 10
148.474
 20
133.24
 30
0.0
 11
148.011
 21
133.313
 31
0.0
  0
LINE
  8
0
 62
     0
 10
148.011
 20
133.313
 30
0.0
 11
147.548
 21
133.24
 31
0.0
  0
ENDSEC
  0
EOF
