  0
SECTION
  2
HEADER
  9
$ACADVER
  1
AC1009
  9
$FILLMODE
 70
 0
  9
$SPLFRAME
 70
 1
  9
$EXTMIN
 10
0
 20
0
 30
0.0
  9
$EXTMAX
 10
1058.33
 20
1058.33
 30
0.0
  0
ENDSEC
  0
SECTION
  2
TABLES
  0
TABLE
  2
LAYER
 70
1
  0
LAYER
  2
0
 70
     0
 62
     7
  6
CONTINUOUS
  0
ENDTAB
  0
ENDSEC
  0
SECTION
  2
ENTITIES
  0
LINE
  8
0
 62
     0
 10
147.512
 20
134.313
 30
0.0
 11
147.747
 21
134.304
 31
0.0
  0
LINE
  8
0
 62
     0
 10
147.747
 20
134.304
 30
0.0
 11
147.981
 21
134.277
 31
0.0
  0
LINE
  8
0
 62
     0
 10
147.981
 20
134.277
 30
0.0
 11
148.212
 21
134.231
 31
0.0
  0
LINE
  8
0
 62
     0
 10
148.212
 20
134.231
 30
0.0
 11
148.438
 21
134.167
 31
0.0
  0
LINE
  8
0
 62
     0
 10
148.438
 20
134.167
 30
0.0
 11
148.66
 21
134.084
 31
0.0
  0
LINE
  8
0
 62
     0
 10
148.66
 20
134.084
 30
0.0
 11
148.872
 21
133.987
 31
0.0
  0
LINE
  8
0
 62
     0
 10
148.872
 20
133.987
 30
0.0
 11
149.079
 21
133.871
 31
0.0
  0
LINE
  8
0
 62
     0
 10
149.079
 20
133.871
 30
0.0
 11
149.275
 21
133.741
 31
0.0
  0
LINE
  8
0
 62
     0
 10
149.275
 20
133.741
 30
0.0
 11
149.459
 21
133.595
 31
0.0
  0
LINE
  8
0
 62
     0
 10
149.459
 20
133.595
 30
0.0
 11
149.633
 21
133.435
 31
0.0
  0
LINE
  8
0
 62
     0
 10
149.633
 20
133.435
 30
0.0
 11
149.793
 21
133.262
 31
0.0
  0
LINE
  8
0
 62
     0
 10
149.793
 20
133.262
 30
0.0
 11
149.939
 21
133.077
 31
0.0
  0
LINE
  8
0
 62
     0
 10
149.939
 20
133.077
 30
0.0
 11
150.068
 21
132.882
 31
0.0
  0
LINE
  8
0
 62
     0
 10
150.068
 20
132.882
 30
0.0
 11
150.184
 21
132.675
 31
0.0
  0
LINE
  8
0
 62
     0
 10
150.184
 20
132.675
 30
0.0
 11
150.282
 21
132.461
 31
0.0
  0
LINE
  8
0
 62
     0
 10
150.282
 20
132.461
 30
0.0
 11
150.364
 21
132.241
 31
0.0
  0
LINE
  8
0
 62
     0
 10
150.364
 20
132.241
 30
0.0
 11
150.428
 21
132.013
 31
0.0
  0
LINE
  8
0
 62
     0
 10
150.428
 20
132.013
 30
0.0
 11
150.475
 21
131.783
 31
0.0
  0
LINE
  8
0
 62
     0
 10
150.475
 20
131.783
 30
0.0
 11
150.501
 21
131.549
 31
0.0
  0
LINE
  8
0
 62
     0
 10
150.501
 20
131.549
 30
0.0
 11
150.512
 21
131.313
 31
0.0
  0
LINE
  8
0
 62
     0
 10
150.512
 20
131.313
 30
0.0
 11
150.512
 21
126.798
 31
0.0
  0
LINE
  8
0
 62
     0
 10
150.512
 20
126.798
 30
0.0
 11
150.509
 21
126.798
 31
0.0
  0
LINE
  8
0
 62
     0
 10
150.509
 20
126.798
 30
0.0
 11
150.509
 21
107.749
 31
0.0
  0
LINE
  8
0
 62
     0
 10
150.509
 20
107.749
 30
0.0
 11
140.986
 21
107.749
 31
0.0
  0
LINE
  8
0
 62
     0
 10
140.986
 20
107.749
 30
0.0
 11
140.986
 21
83.9364
 31
0.0
  0
LINE
  8
0
 62
     0
 10
140.986
 20
83.9364
 30
0.0
 11
131.459
 21
83.9364
 31
0.0
  0
LINE
  8
0
 62
     0
 10
131.459
 20
83.9364
 30
0.0
 11
131.459
 21
64.8353
 31
0.0
  0
LINE
  8
0
 62
     0
 10
131.459
 20
64.8353
 30
0.0
 11
136.222
 21
64.8353
 31
0.0
  0
LINE
  8
0
 62
     0
 10
136.222
 20
64.8353
 30
0.0
 11
136.222
 21
45.7853
 31
0.0
  0
LINE
  8
0
 62
     0
 10
136.222
 20
45.7853
 30
0.0
 11
145.747
 21
45.7853
 31
0.0
  0
LINE
  8
0
 62
     0
 10
145.747
 20
45.7853
 30
0.0
 11
145.747
 21
26.7863
 31
0.0
  0
LINE
  8
0
 62
     0
 10
145.747
 20
26.7863
 30
0.0
 11
131.461
 21
26.7863
 31
0.0
  0
LINE
  8
0
 62
     0
 10
131.461
 20
26.7863
 30
0.0
 11
131.461
 21
7.68533
 31
0.0
  0
LINE
  8
0
 62
     0
 10
131.461
 20
7.68533
 30
0.0
 11
150.512
 21
7.68533
 31
0.0
  0
LINE
  8
0
 62
     0
 10
150.512
 20
7.68533
 30
0.0
 11
150.512
 21
3.16949
 31
0.0
  0
LINE
  8
0
 62
     0
 10
150.512
 20
3.16949
 30
0.0
 11
150.501
 21
2.93522
 31
0.0
  0
LINE
  8
0
 62
     0
 10
150.501
 20
2.93522
 30
0.0
 11
150.475
 21
2.70095
 31
0.0
  0
LINE
  8
0
 62
     0
 10
150.475
 20
2.70095
 30
0.0
 11
150.428
 21
2.46944
 31
0.0
  0
LINE
  8
0
 62
     0
 10
150.428
 20
2.46944
 30
0.0
 11
150.364
 21
2.24345
 31
0.0
  0
LINE
  8
0
 62
     0
 10
150.364
 20
2.24345
 30
0.0
 11
150.282
 21
2.02158
 31
0.0
  0
LINE
  8
0
 62
     0
 10
150.282
 20
2.02158
 30
0.0
 11
150.184
 21
1.80799
 31
0.0
  0
LINE
  8
0
 62
     0
 10
150.184
 20
1.80799
 30
0.0
 11
150.068
 21
1.60266
 31
0.0
  0
LINE
  8
0
 62
     0
 10
150.068
 20
1.60266
 30
0.0
 11
149.939
 21
1.40698
 31
0.0
  0
LINE
  8
0
 62
     0
 10
149.939
 20
1.40698
 30
0.0
 11
149.793
 21
1.22232
 31
0.0
  0
LINE
  8
0
 62
     0
 10
149.793
 20
1.22232
 30
0.0
 11
149.633
 21
1.04869
 31
0.0
  0
LINE
  8
0
 62
     0
 10
149.633
 20
1.04869
 30
0.0
 11
149.459
 21
0.888834
 31
0.0
  0
LINE
  8
0
 62
     0
 10
149.459
 20
0.888834
 30
0.0
 11
149.275
 21
0.742763
 31
0.0
  0
LINE
  8
0
 62
     0
 10
149.275
 20
0.742763
 30
0.0
 11
149.079
 21
0.611851
 31
0.0
  0
LINE
  8
0
 62
     0
 10
149.079
 20
0.611851
 30
0.0
 11
148.872
 21
0.497473
 31
0.0
  0
LINE
  8
0
 62
     0
 10
148.872
 20
0.497473
 30
0.0
 11
148.66
 21
0.398254
 31
0.0
  0
LINE
  8
0
 62
     0
 10
148.66
 20
0.398254
 30
0.0
 11
148.438
 21
0.316949
 31
0.0
  0
LINE
  8
0
 62
     0
 10
148.438
 20
0.316949
 30
0.0
 11
148.212
 21
0.252181
 31
0.0
  0
LINE
  8
0
 62
     0
 10
148.212
 20
0.252181
 30
0.0
 11
147.981
 21
0.206706
 31
0.0
  0
LINE
  8
0
 62
     0
 10
147.981
 20
0.206706
 30
0.0
 11
147.747
 21
0.179145
 31
0.0
  0
LINE
  8
0
 62
     0
 10
147.747
 20
0.179145
 30
0.0
 11
147.511
 21
0.169499
 31
0.0
  0
LINE
  8
0
 62
     0
 10
147.511
 20
0.169499
 30
0.0
 11
3.09507
 21
0.169499
 31
0.0
  0
LINE
  8
0
 62
     0
 10
3.09507
 20
0.169499
 30
0.0
 11
2.85943
 21
0.179145
 31
0.0
  0
LINE
  8
0
 62
     0
 10
2.85943
 20
0.179145
 30
0.0
 11
2.62516
 21
0.206706
 31
0.0
  0
LINE
  8
0
 62
     0
 10
2.62516
 20
0.206706
 30
0.0
 11
2.39503
 21
0.252181
 31
0.0
  0
LINE
  8
0
 62
     0
 10
2.39503
 20
0.252181
 30
0.0
 11
2.16765
 21
0.316949
 31
0.0
  0
LINE
  8
0
 62
     0
 10
2.16765
 20
0.316949
 30
0.0
 11
1.94717
 21
0.398254
 31
0.0
  0
LINE
  8
0
 62
     0
 10
1.94717
 20
0.398254
 30
0.0
 11
1.73357
 21
0.497473
 31
0.0
  0
LINE
  8
0
 62
     0
 10
1.73357
 20
0.497473
 30
0.0
 11
1.52687
 21
0.611851
 31
0.0
  0
LINE
  8
0
 62
     0
 10
1.52687
 20
0.611851
 30
0.0
 11
1.33119
 21
0.742763
 31
0.0
  0
LINE
  8
0
 62
     0
 10
1.33119
 20
0.742763
 30
0.0
 11
1.14653
 21
0.888834
 31
0.0
  0
LINE
  8
0
 62
     0
 10
1.14653
 20
0.888834
 30
0.0
 11
0.972894
 21
1.04869
 31
0.0
  0
LINE
  8
0
 62
     0
 10
0.972894
 20
1.04869
 30
0.0
 11
0.813043
 21
1.22232
 31
0.0
  0
LINE
  8
0
 62
     0
 10
0.813043
 20
1.22232
 30
0.0
 11
0.666972
 21
1.40698
 31
0.0
  0
LINE
  8
0
 62
     0
 10
0.666972
 20
1.40698
 30
0.0
 11
0.537436
 21
1.60266
 31
0.0
  0
LINE
  8
0
 62
     0
 10
0.537436
 20
1.60266
 30
0.0
 11
0.421679
 21
1.80799
 31
0.0
  0
LINE
  8
0
 62
     0
 10
0.421679
 20
1.80799
 30
0.0
 11
0.323839
 21
2.02158
 31
0.0
  0
LINE
  8
0
 62
     0
 10
0.323839
 20
2.02158
 30
0.0
 11
0.241157
 21
2.24345
 31
0.0
  0
LINE
  8
0
 62
     0
 10
0.241157
 20
2.24345
 30
0.0
 11
0.177767
 21
2.46944
 31
0.0
  0
LINE
  8
0
 62
     0
 10
0.177767
 20
2.46944
 30
0.0
 11
0.130914
 21
2.70095
 31
0.0
  0
LINE
  8
0
 62
     0
 10
0.130914
 20
2.70095
 30
0.0
 11
0.104731
 21
2.93522
 31
0.0
  0
LINE
  8
0
 62
     0
 10
0.104731
 20
2.93522
 30
0.0
 11
0.0950846
 21
3.16949
 31
0.0
  0
LINE
  8
0
 62
     0
 10
0.0950846
 20
3.16949
 30
0.0
 11
0.0950846
 21
131.313
 31
0.0
  0
LINE
  8
0
 62
     0
 10
0.0950846
 20
131.313
 30
0.0
 11
0.104731
 21
131.549
 31
0.0
  0
LINE
  8
0
 62
     0
 10
0.104731
 20
131.549
 30
0.0
 11
0.130914
 21
131.783
 31
0.0
  0
LINE
  8
0
 62
     0
 10
0.130914
 20
131.783
 30
0.0
 11
0.177767
 21
132.013
 31
0.0
  0
LINE
  8
0
 62
     0
 10
0.177767
 20
132.013
 30
0.0
 11
0.241157
 21
132.241
 31
0.0
  0
LINE
  8
0
 62
     0
 10
0.241157
 20
132.241
 30
0.0
 11
0.323839
 21
132.461
 31
0.0
  0
LINE
  8
0
 62
     0
 10
0.323839
 20
132.461
 30
0.0
 11
0.421679
 21
132.675
 31
0.0
  0
LINE
  8
0
 62
     0
 10
0.421679
 20
132.675
 30
0.0
 11
0.537436
 21
132.882
 31
0.0
  0
LINE
  8
0
 62
     0
 10
0.537436
 20
132.882
 30
0.0
 11
0.666972
 21
133.077
 31
0.0
  0
LINE
  8
0
 62
     0
 10
0.666972
 20
133.077
 30
0.0
 11
0.813043
 21
133.262
 31
0.0
  0
LINE
  8
0
 62
     0
 10
0.813043
 20
133.262
 30
0.0
 11
0.972894
 21
133.435
 31
0.0
  0
LINE
  8
0
 62
     0
 10
0.972894
 20
133.435
 30
0.0
 11
1.14653
 21
133.595
 31
0.0
  0
LINE
  8
0
 62
     0
 10
1.14653
 20
133.595
 30
0.0
 11
1.33119
 21
133.741
 31
0.0
  0
LINE
  8
0
 62
     0
 10
1.33119
 20
133.741
 30
0.0
 11
1.52687
 21
133.871
 31
0.0
  0
LINE
  8
0
 62
     0
 10
1.52687
 20
133.871
 30
0.0
 11
1.73357
 21
133.987
 31
0.0
  0
LINE
  8
0
 62
     0
 10
1.73357
 20
133.987
 30
0.0
 11
1.94717
 21
134.084
 31
0.0
  0
LINE
  8
0
 62
     0
 10
1.94717
 20
134.084
 30
0.0
 11
2.16765
 21
134.167
 31
0.0
  0
LINE
  8
0
 62
     0
 10
2.16765
 20
134.167
 30
0.0
 11
2.39503
 21
134.231
 31
0.0
  0
LINE
  8
0
 62
     0
 10
2.39503
 20
134.231
 30
0.0
 11
2.62516
 21
134.277
 31
0.0
  0
LINE
  8
0
 62
     0
 10
2.62516
 20
134.277
 30
0.0
 11
2.85943
 21
134.304
 31
0.0
  0
LINE
  8
0
 62
     0
 10
2.85943
 20
134.304
 30
0.0
 11
3.09507
 21
134.313
 31
0.0
  0
LINE
  8
0
 62
     0
 10
3.09507
 20
134.313
 30
0.0
 11
147.512
 21
134.313
 31
0.0
  0
LINE
  8
0
 62
     0
 10
2.13183
 20
4.09691
 30
0.0
 11
1.7129
 21
3.88331
 31
0.0
  0
LINE
  8
0
 62
     0
 10
1.7129
 20
3.88331
 30
0.0
 11
1.38217
 21
3.5512
 31
0.0
  0
LINE
  8
0
 62
     0
 10
1.38217
 20
3.5512
 30
0.0
 11
1.16858
 21
3.13366
 31
0.0
  0
LINE
  8
0
 62
     0
 10
1.16858
 20
3.13366
 30
0.0
 11
1.09416
 21
2.66926
 31
0.0
  0
LINE
  8
0
 62
     0
 10
1.09416
 20
2.66926
 30
0.0
 11
1.16858
 21
2.20624
 31
0.0
  0
LINE
  8
0
 62
     0
 10
1.16858
 20
2.20624
 30
0.0
 11
1.38217
 21
1.78732
 31
0.0
  0
LINE
  8
0
 62
     0
 10
1.38217
 20
1.78732
 30
0.0
 11
1.7129
 21
1.45521
 31
0.0
  0
LINE
  8
0
 62
     0
 10
1.7129
 20
1.45521
 30
0.0
 11
2.13183
 21
1.24299
 31
0.0
  0
LINE
  8
0
 62
     0
 10
2.13183
 20
1.24299
 30
0.0
 11
2.59485
 21
1.16996
 31
0.0
  0
LINE
  8
0
 62
     0
 10
2.59485
 20
1.16996
 30
0.0
 11
3.05787
 21
1.24299
 31
0.0
  0
LINE
  8
0
 62
     0
 10
3.05787
 20
1.24299
 30
0.0
 11
3.47679
 21
1.45521
 31
0.0
  0
LINE
  8
0
 62
     0
 10
3.47679
 20
1.45521
 30
0.0
 11
3.80891
 21
1.78732
 31
0.0
  0
LINE
  8
0
 62
     0
 10
3.80891
 20
1.78732
 30
0.0
 11
4.0211
 21
2.20624
 31
0.0
  0
LINE
  8
0
 62
     0
 10
4.0211
 20
2.20624
 30
0.0
 11
4.09554
 21
2.66926
 31
0.0
  0
LINE
  8
0
 62
     0
 10
4.09554
 20
2.66926
 30
0.0
 11
4.0211
 21
3.13366
 31
0.0
  0
LINE
  8
0
 62
     0
 10
4.0211
 20
3.13366
 30
0.0
 11
3.80891
 21
3.5512
 31
0.0
  0
LINE
  8
0
 62
     0
 10
3.80891
 20
3.5512
 30
0.0
 11
3.47679
 21
3.88331
 31
0.0
  0
LINE
  8
0
 62
     0
 10
3.47679
 20
3.88331
 30
0.0
 11
3.05787
 21
4.09691
 31
0.0
  0
LINE
  8
0
 62
     0
 10
3.05787
 20
4.09691
 30
0.0
 11
2.59485
 21
4.16994
 31
0.0
  0
LINE
  8
0
 62
     0
 10
2.59485
 20
4.16994
 30
0.0
 11
2.13183
 21
4.09691
 31
0.0
  0
LINE
  8
0
 62
     0
 10
147.548
 20
4.09691
 30
0.0
 11
147.129
 21
3.88331
 31
0.0
  0
LINE
  8
0
 62
     0
 10
147.129
 20
3.88331
 30
0.0
 11
146.797
 21
3.5512
 31
0.0
  0
LINE
  8
0
 62
     0
 10
146.797
 20
3.5512
 30
0.0
 11
146.585
 21
3.13366
 31
0.0
  0
LINE
  8
0
 62
     0
 10
146.585
 20
3.13366
 30
0.0
 11
146.51
 21
2.66926
 31
0.0
  0
LINE
  8
0
 62
     0
 10
146.51
 20
2.66926
 30
0.0
 11
146.585
 21
2.20624
 31
0.0
  0
LINE
  8
0
 62
     0
 10
146.585
 20
2.20624
 30
0.0
 11
146.797
 21
1.78732
 31
0.0
  0
LINE
  8
0
 62
     0
 10
146.797
 20
1.78732
 30
0.0
 11
147.129
 21
1.45521
 31
0.0
  0
LINE
  8
0
 62
     0
 10
147.129
 20
1.45521
 30
0.0
 11
147.548
 21
1.24299
 31
0.0
  0
LINE
  8
0
 62
     0
 10
147.548
 20
1.24299
 30
0.0
 11
148.011
 21
1.16996
 31
0.0
  0
LINE
  8
0
 62
     0
 10
148.011
 20
1.16996
 30
0.0
 11
148.474
 21
1.24299
 31
0.0
  0
LINE
  8
0
 62
     0
 10
148.474
 20
1.24299
 30
0.0
 11
148.893
 21
1.45521
 31
0.0
  0
LINE
  8
0
 62
     0
 10
148.893
 20
1.45521
 30
0.0
 11
149.225
 21
1.78732
 31
0.0
  0
LINE
  8
0
 62
     0
 10
149.225
 20
1.78732
 30
0.0
 11
149.437
 21
2.20624
 31
0.0
  0
LINE
  8
0
 62
     0
 10
149.437
 20
2.20624
 30
0.0
 11
149.512
 21
2.66926
 31
0.0
  0
LINE
  8
0
 62
     0
 10
149.512
 20
2.66926
 30
0.0
 11
149.437
 21
3.13366
 31
0.0
  0
LINE
  8
0
 62
     0
 10
149.437
 20
3.13366
 30
0.0
 11
149.225
 21
3.5512
 31
0.0
  0
LINE
  8
0
 62
     0
 10
149.225
 20
3.5512
 30
0.0
 11
148.893
 21
3.88331
 31
0.0
  0
LINE
  8
0
 62
     0
 10
148.893
 20
3.88331
 30
0.0
 11
148.474
 21
4.09691
 31
0.0
  0
LINE
  8
0
 62
     0
 10
148.474
 20
4.09691
 30
0.0
 11
148.011
 21
4.16994
 31
0.0
  0
LINE
  8
0
 62
     0
 10
148.011
 20
4.16994
 30
0.0
 11
147.548
 21
4.09691
 31
0.0
  0
LINE
  8
0
 62
     0
 10
12.5415
 20
24.2356
 30
0.0
 11
12.5415
 21
23.2365
 31
0.0
  0
LINE
  8
0
 62
     0
 10
12.5415
 20
23.2365
 30
0.0
 11
11.7409
 21
23.2365
 31
0.0
  0
LINE
  8
0
 62
     0
 10
11.7409
 20
23.2365
 30
0.0
 11
11.7409
 21
20.1359
 31
0.0
  0
LINE
  8
0
 62
     0
 10
11.7409
 20
20.1359
 30
0.0
 11
12.5415
 21
20.1359
 31
0.0
  0
LINE
  8
0
 62
     0
 10
12.5415
 20
20.1359
 30
0.0
 11
12.5415
 21
14.3357
 31
0.0
  0
LINE
  8
0
 62
     0
 10
12.5415
 20
14.3357
 30
0.0
 11
11.7409
 21
14.3357
 31
0.0
  0
LINE
  8
0
 62
     0
 10
11.7409
 20
14.3357
 30
0.0
 11
11.7409
 21
11.2365
 31
0.0
  0
LINE
  8
0
 62
     0
 10
11.7409
 20
11.2365
 30
0.0
 11
12.5415
 21
11.2365
 31
0.0
  0
LINE
  8
0
 62
     0
 10
12.5415
 20
11.2365
 30
0.0
 11
12.5415
 21
10.2361
 31
0.0
  0
LINE
  8
0
 62
     0
 10
12.5415
 20
10.2361
 30
0.0
 11
26.541
 21
10.2361
 31
0.0
  0
LINE
  8
0
 62
     0
 10
26.541
 20
10.2361
 30
0.0
 11
26.541
 21
11.2365
 31
0.0
  0
LINE
  8
0
 62
     0
 10
26.541
 20
11.2365
 30
0.0
 11
27.3417
 21
11.2365
 31
0.0
  0
LINE
  8
0
 62
     0
 10
27.3417
 20
11.2365
 30
0.0
 11
27.3417
 21
14.3357
 31
0.0
  0
LINE
  8
0
 62
     0
 10
27.3417
 20
14.3357
 30
0.0
 11
26.541
 21
14.3357
 31
0.0
  0
LINE
  8
0
 62
     0
 10
26.541
 20
14.3357
 30
0.0
 11
26.541
 21
20.1359
 31
0.0
  0
LINE
  8
0
 62
     0
 10
26.541
 20
20.1359
 30
0.0
 11
27.3417
 21
20.1359
 31
0.0
  0
LINE
  8
0
 62
     0
 10
27.3417
 20
20.1359
 30
0.0
 11
27.3417
 21
23.2365
 31
0.0
  0
LINE
  8
0
 62
     0
 10
27.3417
 20
23.2365
 30
0.0
 11
26.541
 21
23.2365
 31
0.0
  0
LINE
  8
0
 62
     0
 10
26.541
 20
23.2365
 30
0.0
 11
26.541
 21
24.2356
 31
0.0
  0
LINE
  8
0
 62
     0
 10
26.541
 20
24.2356
 30
0.0
 11
12.5415
 21
24.2356
 31
0.0
  0
LINE
  8
0
 62
     0
 10
36.3541
 20
24.2356
 30
0.0
 11
36.3541
 21
23.2365
 31
0.0
  0
LINE
  8
0
 62
     0
 10
36.3541
 20
23.2365
 30
0.0
 11
35.5533
 21
23.2365
 31
0.0
  0
LINE
  8
0
 62
     0
 10
35.5533
 20
23.2365
 30
0.0
 11
35.5533
 21
20.1359
 31
0.0
  0
LINE
  8
0
 62
     0
 10
35.5533
 20
20.1359
 30
0.0
 11
36.3541
 21
20.1359
 31
0.0
  0
LINE
  8
0
 62
     0
 10
36.3541
 20
20.1359
 30
0.0
 11
36.3541
 21
14.3357
 31
0.0
  0
LINE
  8
0
 62
     0
 10
36.3541
 20
14.3357
 30
0.0
 11
35.5533
 21
14.3357
 31
0.0
  0
LINE
  8
0
 62
     0
 10
35.5533
 20
14.3357
 30
0.0
 11
35.5533
 21
11.2365
 31
0.0
  0
LINE
  8
0
 62
     0
 10
35.5533
 20
11.2365
 30
0.0
 11
36.3541
 21
11.2365
 31
0.0
  0
LINE
  8
0
 62
     0
 10
36.3541
 20
11.2365
 30
0.0
 11
36.3541
 21
10.2361
 31
0.0
  0
LINE
  8
0
 62
     0
 10
36.3541
 20
10.2361
 30
0.0
 11
50.3534
 21
10.2361
 31
0.0
  0
LINE
  8
0
 62
     0
 10
50.3534
 20
10.2361
 30
0.0
 11
50.3534
 21
11.2365
 31
0.0
  0
LINE
  8
0
 62
     0
 10
50.3534
 20
11.2365
 30
0.0
 11
51.1542
 21
11.2365
 31
0.0
  0
LINE
  8
0
 62
     0
 10
51.1542
 20
11.2365
 30
0.0
 11
51.1542
 21
14.3357
 31
0.0
  0
LINE
  8
0
 62
     0
 10
51.1542
 20
14.3357
 30
0.0
 11
50.3534
 21
14.3357
 31
0.0
  0
LINE
  8
0
 62
     0
 10
50.3534
 20
14.3357
 30
0.0
 11
50.3534
 21
20.1359
 31
0.0
  0
LINE
  8
0
 62
     0
 10
50.3534
 20
20.1359
 30
0.0
 11
51.1542
 21
20.1359
 31
0.0
  0
LINE
  8
0
 62
     0
 10
51.1542
 20
20.1359
 30
0.0
 11
51.1542
 21
23.2365
 31
0.0
  0
LINE
  8
0
 62
     0
 10
51.1542
 20
23.2365
 30
0.0
 11
50.3534
 21
23.2365
 31
0.0
  0
LINE
  8
0
 62
     0
 10
50.3534
 20
23.2365
 30
0.0
 11
50.3534
 21
24.2356
 31
0.0
  0
LINE
  8
0
 62
     0
 10
50.3534
 20
24.2356
 30
0.0
 11
36.3541
 21
24.2356
 31
0.0
  0
LINE
  8
0
 62
     0
 10
60.1666
 20
24.2356
 30
0.0
 11
60.1666
 21
23.2365
 31
0.0
  0
LINE
  8
0
 62
     0
 10
60.1666
 20
23.2365
 30
0.0
 11
59.3658
 21
23.2365
 31
0.0
  0
LINE
  8
0
 62
     0
 10
59.3658
 20
23.2365
 30
0.0
 11
59.3658
 21
20.1359
 31
0.0
  0
LINE
  8
0
 62
     0
 10
59.3658
 20
20.1359
 30
0.0
 11
60.1666
 21
20.1359
 31
0.0
  0
LINE
  8
0
 62
     0
 10
60.1666
 20
20.1359
 30
0.0
 11
60.1666
 21
14.3357
 31
0.0
  0
LINE
  8
0
 62
     0
 10
60.1666
 20
14.3357
 30
0.0
 11
59.3658
 21
14.3357
 31
0.0
  0
LINE
  8
0
 62
     0
 10
59.3658
 20
14.3357
 30
0.0
 11
59.3658
 21
11.2365
 31
0.0
  0
LINE
  8
0
 62
     0
 10
59.3658
 20
11.2365
 30
0.0
 11
60.1666
 21
11.2365
 31
0.0
  0
LINE
  8
0
 62
     0
 10
60.1666
 20
11.2365
 30
0.0
 11
60.1666
 21
10.2361
 31
0.0
  0
LINE
  8
0
 62
     0
 10
60.1666
 20
10.2361
 30
0.0
 11
74.1659
 21
10.2361
 31
0.0
  0
LINE
  8
0
 62
     0
 10
74.1659
 20
10.2361
 30
0.0
 11
74.1659
 21
11.2365
 31
0.0
  0
LINE
  8
0
 62
     0
 10
74.1659
 20
11.2365
 30
0.0
 11
74.9667
 21
11.2365
 31
0.0
  0
LINE
  8
0
 62
     0
 10
74.9667
 20
11.2365
 30
0.0
 11
74.9667
 21
14.3357
 31
0.0
  0
LINE
  8
0
 62
     0
 10
74.9667
 20
14.3357
 30
0.0
 11
74.1659
 21
14.3357
 31
0.0
  0
LINE
  8
0
 62
     0
 10
74.1659
 20
14.3357
 30
0.0
 11
74.1659
 21
20.1359
 31
0.0
  0
LINE
  8
0
 62
     0
 10
74.1659
 20
20.1359
 30
0.0
 11
74.9667
 21
20.1359
 31
0.0
  0
LINE
  8
0
 62
     0
 10
74.9667
 20
20.1359
 30
0.0
 11
74.9667
 21
23.2365
 31
0.0
  0
LINE
  8
0
 62
     0
 10
74.9667
 20
23.2365
 30
0.0
 11
74.1659
 21
23.2365
 31
0.0
  0
LINE
  8
0
 62
     0
 10
74.1659
 20
23.2365
 30
0.0
 11
74.1659
 21
24.2356
 31
0.0
  0
LINE
  8
0
 62
     0
 10
74.1659
 20
24.2356
 30
0.0
 11
60.1666
 21
24.2356
 31
0.0
  0
LINE
  8
0
 62
     0
 10
86.9474
 20
25.2057
 30
0.0
 11
86.9474
 21
24.0054
 31
0.0
  0
LINE
  8
0
 62
     0
 10
86.9474
 20
24.0054
 30
0.0
 11
85.2219
 21
24.0054
 31
0.0
  0
LINE
  8
0
 62
     0
 10
85.2219
 20
24.0054
 30
0.0
 11
85.2219
 21
17.7353
 31
0.0
  0
LINE
  8
0
 62
     0
 10
85.2219
 20
17.7353
 30
0.0
 11
84.3979
 21
17.7353
 31
0.0
  0
LINE
  8
0
 62
     0
 10
84.3979
 20
17.7353
 30
0.0
 11
84.3979
 21
14.9352
 31
0.0
  0
LINE
  8
0
 62
     0
 10
84.3979
 20
14.9352
 30
0.0
 11
85.2219
 21
14.9352
 31
0.0
  0
LINE
  8
0
 62
     0
 10
85.2219
 20
14.9352
 30
0.0
 11
85.2219
 21
11.7064
 31
0.0
  0
LINE
  8
0
 62
     0
 10
85.2219
 20
11.7064
 30
0.0
 11
91.973
 21
11.7064
 31
0.0
  0
LINE
  8
0
 62
     0
 10
91.973
 20
11.7064
 30
0.0
 11
91.973
 21
14.9352
 31
0.0
  0
LINE
  8
0
 62
     0
 10
91.973
 20
14.9352
 30
0.0
 11
100.648
 21
14.9352
 31
0.0
  0
LINE
  8
0
 62
     0
 10
100.648
 20
14.9352
 30
0.0
 11
100.648
 21
14.3357
 31
0.0
  0
LINE
  8
0
 62
     0
 10
100.648
 20
14.3357
 30
0.0
 11
99.847
 21
14.3357
 31
0.0
  0
LINE
  8
0
 62
     0
 10
99.847
 20
14.3357
 30
0.0
 11
99.847
 21
11.2365
 31
0.0
  0
LINE
  8
0
 62
     0
 10
99.847
 20
11.2365
 30
0.0
 11
100.648
 21
11.2365
 31
0.0
  0
LINE
  8
0
 62
     0
 10
100.648
 20
11.2365
 30
0.0
 11
100.648
 21
10.2361
 31
0.0
  0
LINE
  8
0
 62
     0
 10
100.648
 20
10.2361
 30
0.0
 11
114.647
 21
10.2361
 31
0.0
  0
LINE
  8
0
 62
     0
 10
114.647
 20
10.2361
 30
0.0
 11
114.647
 21
11.2365
 31
0.0
  0
LINE
  8
0
 62
     0
 10
114.647
 20
11.2365
 30
0.0
 11
115.448
 21
11.2365
 31
0.0
  0
LINE
  8
0
 62
     0
 10
115.448
 20
11.2365
 30
0.0
 11
115.448
 21
14.3357
 31
0.0
  0
LINE
  8
0
 62
     0
 10
115.448
 20
14.3357
 30
0.0
 11
114.647
 21
14.3357
 31
0.0
  0
LINE
  8
0
 62
     0
 10
114.647
 20
14.3357
 30
0.0
 11
114.647
 21
14.9352
 31
0.0
  0
LINE
  8
0
 62
     0
 10
114.647
 20
14.9352
 30
0.0
 11
123.322
 21
14.9352
 31
0.0
  0
LINE
  8
0
 62
     0
 10
123.322
 20
14.9352
 30
0.0
 11
123.322
 21
11.7064
 31
0.0
  0
LINE
  8
0
 62
     0
 10
123.322
 20
11.7064
 30
0.0
 11
130.073
 21
11.7064
 31
0.0
  0
LINE
  8
0
 62
     0
 10
130.073
 20
11.7064
 30
0.0
 11
130.073
 21
14.9352
 31
0.0
  0
LINE
  8
0
 62
     0
 10
130.073
 20
14.9352
 30
0.0
 11
130.897
 21
14.9352
 31
0.0
  0
LINE
  8
0
 62
     0
 10
130.897
 20
14.9352
 30
0.0
 11
130.897
 21
17.7353
 31
0.0
  0
LINE
  8
0
 62
     0
 10
130.897
 20
17.7353
 30
0.0
 11
130.073
 21
17.7353
 31
0.0
  0
LINE
  8
0
 62
     0
 10
130.073
 20
17.7353
 30
0.0
 11
130.073
 21
24.0054
 31
0.0
  0
LINE
  8
0
 62
     0
 10
130.073
 20
24.0054
 30
0.0
 11
128.348
 21
24.0054
 31
0.0
  0
LINE
  8
0
 62
     0
 10
128.348
 20
24.0054
 30
0.0
 11
128.348
 21
25.2057
 31
0.0
  0
LINE
  8
0
 62
     0
 10
128.348
 20
25.2057
 30
0.0
 11
125.047
 21
25.2057
 31
0.0
  0
LINE
  8
0
 62
     0
 10
125.047
 20
25.2057
 30
0.0
 11
125.047
 21
24.0054
 31
0.0
  0
LINE
  8
0
 62
     0
 10
125.047
 20
24.0054
 30
0.0
 11
123.322
 21
24.0054
 31
0.0
  0
LINE
  8
0
 62
     0
 10
123.322
 20
24.0054
 30
0.0
 11
123.322
 21
19.5364
 31
0.0
  0
LINE
  8
0
 62
     0
 10
123.322
 20
19.5364
 30
0.0
 11
114.647
 21
19.5364
 31
0.0
  0
LINE
  8
0
 62
     0
 10
114.647
 20
19.5364
 30
0.0
 11
114.647
 21
20.1359
 31
0.0
  0
LINE
  8
0
 62
     0
 10
114.647
 20
20.1359
 30
0.0
 11
115.448
 21
20.1359
 31
0.0
  0
LINE
  8
0
 62
     0
 10
115.448
 20
20.1359
 30
0.0
 11
115.448
 21
23.2365
 31
0.0
  0
LINE
  8
0
 62
     0
 10
115.448
 20
23.2365
 30
0.0
 11
114.647
 21
23.2365
 31
0.0
  0
LINE
  8
0
 62
     0
 10
114.647
 20
23.2365
 30
0.0
 11
114.647
 21
24.2356
 31
0.0
  0
LINE
  8
0
 62
     0
 10
114.647
 20
24.2356
 30
0.0
 11
100.648
 21
24.2356
 31
0.0
  0
LINE
  8
0
 62
     0
 10
100.648
 20
24.2356
 30
0.0
 11
100.648
 21
23.2365
 31
0.0
  0
LINE
  8
0
 62
     0
 10
100.648
 20
23.2365
 30
0.0
 11
99.847
 21
23.2365
 31
0.0
  0
LINE
  8
0
 62
     0
 10
99.847
 20
23.2365
 30
0.0
 11
99.847
 21
20.1359
 31
0.0
  0
LINE
  8
0
 62
     0
 10
99.847
 20
20.1359
 30
0.0
 11
100.648
 21
20.1359
 31
0.0
  0
LINE
  8
0
 62
     0
 10
100.648
 20
20.1359
 30
0.0
 11
100.648
 21
19.5364
 31
0.0
  0
LINE
  8
0
 62
     0
 10
100.648
 20
19.5364
 30
0.0
 11
91.973
 21
19.5364
 31
0.0
  0
LINE
  8
0
 62
     0
 10
91.973
 20
19.5364
 30
0.0
 11
91.973
 21
24.0054
 31
0.0
  0
LINE
  8
0
 62
     0
 10
91.973
 20
24.0054
 30
0.0
 11
90.2476
 21
24.0054
 31
0.0
  0
LINE
  8
0
 62
     0
 10
90.2476
 20
24.0054
 30
0.0
 11
90.2476
 21
25.2057
 31
0.0
  0
LINE
  8
0
 62
     0
 10
90.2476
 20
25.2057
 30
0.0
 11
86.9474
 21
25.2057
 31
0.0
  0
LINE
  8
0
 62
     0
 10
22.0665
 20
43.2855
 30
0.0
 11
22.0665
 21
42.2864
 31
0.0
  0
LINE
  8
0
 62
     0
 10
22.0665
 20
42.2864
 30
0.0
 11
21.2659
 21
42.2864
 31
0.0
  0
LINE
  8
0
 62
     0
 10
21.2659
 20
42.2864
 30
0.0
 11
21.2659
 21
39.1859
 31
0.0
  0
LINE
  8
0
 62
     0
 10
21.2659
 20
39.1859
 30
0.0
 11
22.0665
 21
39.1859
 31
0.0
  0
LINE
  8
0
 62
     0
 10
22.0665
 20
39.1859
 30
0.0
 11
22.0665
 21
38.5865
 31
0.0
  0
LINE
  8
0
 62
     0
 10
22.0665
 20
38.5865
 30
0.0
 11
20.5411
 21
38.5865
 31
0.0
  0
LINE
  8
0
 62
     0
 10
20.5411
 20
38.5865
 30
0.0
 11
20.5411
 21
41.8151
 31
0.0
  0
LINE
  8
0
 62
     0
 10
20.5411
 20
41.8151
 30
0.0
 11
13.7914
 21
41.8151
 31
0.0
  0
LINE
  8
0
 62
     0
 10
13.7914
 20
41.8151
 30
0.0
 11
13.7914
 21
38.5865
 31
0.0
  0
LINE
  8
0
 62
     0
 10
13.7914
 20
38.5865
 30
0.0
 11
12.966
 21
38.5865
 31
0.0
  0
LINE
  8
0
 62
     0
 10
12.966
 20
38.5865
 30
0.0
 11
12.966
 21
35.7861
 31
0.0
  0
LINE
  8
0
 62
     0
 10
12.966
 20
35.7861
 30
0.0
 11
13.7914
 21
35.7861
 31
0.0
  0
LINE
  8
0
 62
     0
 10
13.7914
 20
35.7861
 30
0.0
 11
13.7914
 21
29.5162
 31
0.0
  0
LINE
  8
0
 62
     0
 10
13.7914
 20
29.5162
 30
0.0
 11
15.5167
 21
29.5162
 31
0.0
  0
LINE
  8
0
 62
     0
 10
15.5167
 20
29.5162
 30
0.0
 11
15.5167
 21
28.3159
 31
0.0
  0
LINE
  8
0
 62
     0
 10
15.5167
 20
28.3159
 30
0.0
 11
18.8171
 21
28.3159
 31
0.0
  0
LINE
  8
0
 62
     0
 10
18.8171
 20
28.3159
 30
0.0
 11
18.8171
 21
29.5162
 31
0.0
  0
LINE
  8
0
 62
     0
 10
18.8171
 20
29.5162
 30
0.0
 11
20.5411
 21
29.5162
 31
0.0
  0
LINE
  8
0
 62
     0
 10
20.5411
 20
29.5162
 30
0.0
 11
20.5411
 21
33.9852
 31
0.0
  0
LINE
  8
0
 62
     0
 10
20.5411
 20
33.9852
 30
0.0
 11
22.0665
 21
33.9852
 31
0.0
  0
LINE
  8
0
 62
     0
 10
22.0665
 20
33.9852
 30
0.0
 11
22.0665
 21
33.3857
 31
0.0
  0
LINE
  8
0
 62
     0
 10
22.0665
 20
33.3857
 30
0.0
 11
21.2659
 21
33.3857
 31
0.0
  0
LINE
  8
0
 62
     0
 10
21.2659
 20
33.3857
 30
0.0
 11
21.2659
 21
30.2865
 31
0.0
  0
LINE
  8
0
 62
     0
 10
21.2659
 20
30.2865
 30
0.0
 11
22.0665
 21
30.2865
 31
0.0
  0
LINE
  8
0
 62
     0
 10
22.0665
 20
30.2865
 30
0.0
 11
22.0665
 21
29.2861
 31
0.0
  0
LINE
  8
0
 62
     0
 10
22.0665
 20
29.2861
 30
0.0
 11
36.0659
 21
29.2861
 31
0.0
  0
LINE
  8
0
 62
     0
 10
36.0659
 20
29.2861
 30
0.0
 11
36.0659
 21
30.2865
 31
0.0
  0
LINE
  8
0
 62
     0
 10
36.0659
 20
30.2865
 30
0.0
 11
36.8667
 21
30.2865
 31
0.0
  0
LINE
  8
0
 62
     0
 10
36.8667
 20
30.2865
 30
0.0
 11
36.8667
 21
33.3857
 31
0.0
  0
LINE
  8
0
 62
     0
 10
36.8667
 20
33.3857
 30
0.0
 11
36.0659
 21
33.3857
 31
0.0
  0
LINE
  8
0
 62
     0
 10
36.0659
 20
33.3857
 30
0.0
 11
36.0659
 21
33.9852
 31
0.0
  0
LINE
  8
0
 62
     0
 10
36.0659
 20
33.9852
 30
0.0
 11
37.5916
 21
33.9852
 31
0.0
  0
LINE
  8
0
 62
     0
 10
37.5916
 20
33.9852
 30
0.0
 11
37.5916
 21
29.5162
 31
0.0
  0
LINE
  8
0
 62
     0
 10
37.5916
 20
29.5162
 30
0.0
 11
39.3167
 21
29.5162
 31
0.0
  0
LINE
  8
0
 62
     0
 10
39.3167
 20
29.5162
 30
0.0
 11
39.3167
 21
28.3159
 31
0.0
  0
LINE
  8
0
 62
     0
 10
39.3167
 20
28.3159
 30
0.0
 11
42.6159
 21
28.3159
 31
0.0
  0
LINE
  8
0
 62
     0
 10
42.6159
 20
28.3159
 30
0.0
 11
42.6159
 21
29.5162
 31
0.0
  0
LINE
  8
0
 62
     0
 10
42.6159
 20
29.5162
 30
0.0
 11
44.341
 21
29.5162
 31
0.0
  0
LINE
  8
0
 62
     0
 10
44.341
 20
29.5162
 30
0.0
 11
44.341
 21
35.7861
 31
0.0
  0
LINE
  8
0
 62
     0
 10
44.341
 20
35.7861
 30
0.0
 11
45.1665
 21
35.7861
 31
0.0
  0
LINE
  8
0
 62
     0
 10
45.1665
 20
35.7861
 30
0.0
 11
45.1665
 21
38.5865
 31
0.0
  0
LINE
  8
0
 62
     0
 10
45.1665
 20
38.5865
 30
0.0
 11
44.341
 21
38.5865
 31
0.0
  0
LINE
  8
0
 62
     0
 10
44.341
 20
38.5865
 30
0.0
 11
44.341
 21
41.8151
 31
0.0
  0
LINE
  8
0
 62
     0
 10
44.341
 20
41.8151
 30
0.0
 11
37.5916
 21
41.8151
 31
0.0
  0
LINE
  8
0
 62
     0
 10
37.5916
 20
41.8151
 30
0.0
 11
37.5916
 21
38.5865
 31
0.0
  0
LINE
  8
0
 62
     0
 10
37.5916
 20
38.5865
 30
0.0
 11
36.0659
 21
38.5865
 31
0.0
  0
LINE
  8
0
 62
     0
 10
36.0659
 20
38.5865
 30
0.0
 11
36.0659
 21
39.1859
 31
0.0
  0
LINE
  8
0
 62
     0
 10
36.0659
 20
39.1859
 30
0.0
 11
36.8667
 21
39.1859
 31
0.0
  0
LINE
  8
0
 62
     0
 10
36.8667
 20
39.1859
 30
0.0
 11
36.8667
 21
42.2864
 31
0.0
  0
LINE
  8
0
 62
     0
 10
36.8667
 20
42.2864
 30
0.0
 11
36.0659
 21
42.2864
 31
0.0
  0
LINE
  8
0
 62
     0
 10
36.0659
 20
42.2864
 30
0.0
 11
36.0659
 21
43.2855
 31
0.0
  0
LINE
  8
0
 62
     0
 10
36.0659
 20
43.2855
 30
0.0
 11
22.0665
 21
43.2855
 31
0.0
  0
LINE
  8
0
 62
     0
 10
53.0229
 20
43.2855
 30
0.0
 11
53.0229
 21
42.2864
 31
0.0
  0
LINE
  8
0
 62
     0
 10
53.0229
 20
42.2864
 30
0.0
 11
52.222
 21
42.2864
 31
0.0
  0
LINE
  8
0
 62
     0
 10
52.222
 20
42.2864
 30
0.0
 11
52.222
 21
39.1859
 31
0.0
  0
LINE
  8
0
 62
     0
 10
52.222
 20
39.1859
 30
0.0
 11
53.0229
 21
39.1859
 31
0.0
  0
LINE
  8
0
 62
     0
 10
53.0229
 20
39.1859
 30
0.0
 11
53.0229
 21
33.3857
 31
0.0
  0
LINE
  8
0
 62
     0
 10
53.0229
 20
33.3857
 30
0.0
 11
52.222
 21
33.3857
 31
0.0
  0
LINE
  8
0
 62
     0
 10
52.222
 20
33.3857
 30
0.0
 11
52.222
 21
30.2865
 31
0.0
  0
LINE
  8
0
 62
     0
 10
52.222
 20
30.2865
 30
0.0
 11
53.0229
 21
30.2865
 31
0.0
  0
LINE
  8
0
 62
     0
 10
53.0229
 20
30.2865
 30
0.0
 11
53.0229
 21
29.2861
 31
0.0
  0
LINE
  8
0
 62
     0
 10
53.0229
 20
29.2861
 30
0.0
 11
67.0221
 21
29.2861
 31
0.0
  0
LINE
  8
0
 62
     0
 10
67.0221
 20
29.2861
 30
0.0
 11
67.0221
 21
30.2865
 31
0.0
  0
LINE
  8
0
 62
     0
 10
67.0221
 20
30.2865
 30
0.0
 11
67.8229
 21
30.2865
 31
0.0
  0
LINE
  8
0
 62
     0
 10
67.8229
 20
30.2865
 30
0.0
 11
67.8229
 21
33.3857
 31
0.0
  0
LINE
  8
0
 62
     0
 10
67.8229
 20
33.3857
 30
0.0
 11
67.0221
 21
33.3857
 31
0.0
  0
LINE
  8
0
 62
     0
 10
67.0221
 20
33.3857
 30
0.0
 11
67.0221
 21
39.1859
 31
0.0
  0
LINE
  8
0
 62
     0
 10
67.0221
 20
39.1859
 30
0.0
 11
67.8229
 21
39.1859
 31
0.0
  0
LINE
  8
0
 62
     0
 10
67.8229
 20
39.1859
 30
0.0
 11
67.8229
 21
42.2864
 31
0.0
  0
LINE
  8
0
 62
     0
 10
67.8229
 20
42.2864
 30
0.0
 11
67.0221
 21
42.2864
 31
0.0
  0
LINE
  8
0
 62
     0
 10
67.0221
 20
42.2864
 30
0.0
 11
67.0221
 21
43.2855
 31
0.0
  0
LINE
  8
0
 62
     0
 10
67.0221
 20
43.2855
 30
0.0
 11
53.0229
 21
43.2855
 31
0.0
  0
LINE
  8
0
 62
     0
 10
72.0729
 20
43.2855
 30
0.0
 11
72.0729
 21
42.2864
 31
0.0
  0
LINE
  8
0
 62
     0
 10
72.0729
 20
42.2864
 30
0.0
 11
71.272
 21
42.2864
 31
0.0
  0
LINE
  8
0
 62
     0
 10
71.272
 20
42.2864
 30
0.0
 11
71.272
 21
39.1859
 31
0.0
  0
LINE
  8
0
 62
     0
 10
71.272
 20
39.1859
 30
0.0
 11
72.0729
 21
39.1859
 31
0.0
  0
LINE
  8
0
 62
     0
 10
72.0729
 20
39.1859
 30
0.0
 11
72.0729
 21
33.3857
 31
0.0
  0
LINE
  8
0
 62
     0
 10
72.0729
 20
33.3857
 30
0.0
 11
71.272
 21
33.3857
 31
0.0
  0
LINE
  8
0
 62
     0
 10
71.272
 20
33.3857
 30
0.0
 11
71.272
 21
30.2865
 31
0.0
  0
LINE
  8
0
 62
     0
 10
71.272
 20
30.2865
 30
0.0
 11
72.0729
 21
30.2865
 31
0.0
  0
LINE
  8
0
 62
     0
 10
72.0729
 20
30.2865
 30
0.0
 11
72.0729
 21
29.2861
 31
0.0
  0
LINE
  8
0
 62
     0
 10
72.0729
 20
29.2861
 30
0.0
 11
86.0721
 21
29.2861
 31
0.0
  0
LINE
  8
0
 62
     0
 10
86.0721
 20
29.2861
 30
0.0
 11
86.0721
 21
30.2865
 31
0.0
  0
LINE
  8
0
 62
     0
 10
86.0721
 20
30.2865
 30
0.0
 11
86.8729
 21
30.2865
 31
0.0
  0
LINE
  8
0
 62
     0
 10
86.8729
 20
30.2865
 30
0.0
 11
86.8729
 21
33.3857
 31
0.0
  0
LINE
  8
0
 62
     0
 10
86.8729
 20
33.3857
 30
0.0
 11
86.0721
 21
33.3857
 31
0.0
  0
LINE
  8
0
 62
     0
 10
86.0721
 20
33.3857
 30
0.0
 11
86.0721
 21
39.1859
 31
0.0
  0
LINE
  8
0
 62
     0
 10
86.0721
 20
39.1859
 30
0.0
 11
86.8729
 21
39.1859
 31
0.0
  0
LINE
  8
0
 62
     0
 10
86.8729
 20
39.1859
 30
0.0
 11
86.8729
 21
42.2864
 31
0.0
  0
LINE
  8
0
 62
     0
 10
86.8729
 20
42.2864
 30
0.0
 11
86.0721
 21
42.2864
 31
0.0
  0
LINE
  8
0
 62
     0
 10
86.0721
 20
42.2864
 30
0.0
 11
86.0721
 21
43.2855
 31
0.0
  0
LINE
  8
0
 62
     0
 10
86.0721
 20
43.2855
 30
0.0
 11
72.0729
 21
43.2855
 31
0.0
  0
LINE
  8
0
 62
     0
 10
91.1229
 20
43.2855
 30
0.0
 11
91.1229
 21
42.2864
 31
0.0
  0
LINE
  8
0
 62
     0
 10
91.1229
 20
42.2864
 30
0.0
 11
90.322
 21
42.2864
 31
0.0
  0
LINE
  8
0
 62
     0
 10
90.322
 20
42.2864
 30
0.0
 11
90.322
 21
39.1859
 31
0.0
  0
LINE
  8
0
 62
     0
 10
90.322
 20
39.1859
 30
0.0
 11
91.1229
 21
39.1859
 31
0.0
  0
LINE
  8
0
 62
     0
 10
91.1229
 20
39.1859
 30
0.0
 11
91.1229
 21
33.3857
 31
0.0
  0
LINE
  8
0
 62
     0
 10
91.1229
 20
33.3857
 30
0.0
 11
90.322
 21
33.3857
 31
0.0
  0
LINE
  8
0
 62
     0
 10
90.322
 20
33.3857
 30
0.0
 11
90.322
 21
30.2865
 31
0.0
  0
LINE
  8
0
 62
     0
 10
90.322
 20
30.2865
 30
0.0
 11
91.1229
 21
30.2865
 31
0.0
  0
LINE
  8
0
 62
     0
 10
91.1229
 20
30.2865
 30
0.0
 11
91.1229
 21
29.2861
 31
0.0
  0
LINE
  8
0
 62
     0
 10
91.1229
 20
29.2861
 30
0.0
 11
105.122
 21
29.2861
 31
0.0
  0
LINE
  8
0
 62
     0
 10
105.122
 20
29.2861
 30
0.0
 11
105.122
 21
30.2865
 31
0.0
  0
LINE
  8
0
 62
     0
 10
105.122
 20
30.2865
 30
0.0
 11
105.923
 21
30.2865
 31
0.0
  0
LINE
  8
0
 62
     0
 10
105.923
 20
30.2865
 30
0.0
 11
105.923
 21
33.3857
 31
0.0
  0
LINE
  8
0
 62
     0
 10
105.923
 20
33.3857
 30
0.0
 11
105.122
 21
33.3857
 31
0.0
  0
LINE
  8
0
 62
     0
 10
105.122
 20
33.3857
 30
0.0
 11
105.122
 21
39.1859
 31
0.0
  0
LINE
  8
0
 62
     0
 10
105.122
 20
39.1859
 30
0.0
 11
105.923
 21
39.1859
 31
0.0
  0
LINE
  8
0
 62
     0
 10
105.923
 20
39.1859
 30
0.0
 11
105.923
 21
42.2864
 31
0.0
  0
LINE
  8
0
 62
     0
 10
105.923
 20
42.2864
 30
0.0
 11
105.122
 21
42.2864
 31
0.0
  0
LINE
  8
0
 62
     0
 10
105.122
 20
42.2864
 30
0.0
 11
105.122
 21
43.2855
 31
0.0
  0
LINE
  8
0
 62
     0
 10
105.122
 20
43.2855
 30
0.0
 11
91.1229
 21
43.2855
 31
0.0
  0
LINE
  8
0
 62
     0
 10
110.173
 20
43.2855
 30
0.0
 11
110.173
 21
42.2864
 31
0.0
  0
LINE
  8
0
 62
     0
 10
110.173
 20
42.2864
 30
0.0
 11
109.372
 21
42.2864
 31
0.0
  0
LINE
  8
0
 62
     0
 10
109.372
 20
42.2864
 30
0.0
 11
109.372
 21
39.1859
 31
0.0
  0
LINE
  8
0
 62
     0
 10
109.372
 20
39.1859
 30
0.0
 11
110.173
 21
39.1859
 31
0.0
  0
LINE
  8
0
 62
     0
 10
110.173
 20
39.1859
 30
0.0
 11
110.173
 21
33.3857
 31
0.0
  0
LINE
  8
0
 62
     0
 10
110.173
 20
33.3857
 30
0.0
 11
109.372
 21
33.3857
 31
0.0
  0
LINE
  8
0
 62
     0
 10
109.372
 20
33.3857
 30
0.0
 11
109.372
 21
30.2865
 31
0.0
  0
LINE
  8
0
 62
     0
 10
109.372
 20
30.2865
 30
0.0
 11
110.173
 21
30.2865
 31
0.0
  0
LINE
  8
0
 62
     0
 10
110.173
 20
30.2865
 30
0.0
 11
110.173
 21
29.2861
 31
0.0
  0
LINE
  8
0
 62
     0
 10
110.173
 20
29.2861
 30
0.0
 11
124.172
 21
29.2861
 31
0.0
  0
LINE
  8
0
 62
     0
 10
124.172
 20
29.2861
 30
0.0
 11
124.172
 21
30.2865
 31
0.0
  0
LINE
  8
0
 62
     0
 10
124.172
 20
30.2865
 30
0.0
 11
124.973
 21
30.2865
 31
0.0
  0
LINE
  8
0
 62
     0
 10
124.973
 20
30.2865
 30
0.0
 11
124.973
 21
33.3857
 31
0.0
  0
LINE
  8
0
 62
     0
 10
124.973
 20
33.3857
 30
0.0
 11
124.172
 21
33.3857
 31
0.0
  0
LINE
  8
0
 62
     0
 10
124.172
 20
33.3857
 30
0.0
 11
124.172
 21
39.1859
 31
0.0
  0
LINE
  8
0
 62
     0
 10
124.172
 20
39.1859
 30
0.0
 11
124.973
 21
39.1859
 31
0.0
  0
LINE
  8
0
 62
     0
 10
124.973
 20
39.1859
 30
0.0
 11
124.973
 21
42.2864
 31
0.0
  0
LINE
  8
0
 62
     0
 10
124.973
 20
42.2864
 30
0.0
 11
124.172
 21
42.2864
 31
0.0
  0
LINE
  8
0
 62
     0
 10
124.172
 20
42.2864
 30
0.0
 11
124.172
 21
43.2855
 31
0.0
  0
LINE
  8
0
 62
     0
 10
124.172
 20
43.2855
 30
0.0
 11
110.173
 21
43.2855
 31
0.0
  0
LINE
  8
0
 62
     0
 10
129.223
 20
43.2855
 30
0.0
 11
129.223
 21
42.2864
 31
0.0
  0
LINE
  8
0
 62
     0
 10
129.223
 20
42.2864
 30
0.0
 11
128.422
 21
42.2864
 31
0.0
  0
LINE
  8
0
 62
     0
 10
128.422
 20
42.2864
 30
0.0
 11
128.422
 21
39.1859
 31
0.0
  0
LINE
  8
0
 62
     0
 10
128.422
 20
39.1859
 30
0.0
 11
129.223
 21
39.1859
 31
0.0
  0
LINE
  8
0
 62
     0
 10
129.223
 20
39.1859
 30
0.0
 11
129.223
 21
33.3857
 31
0.0
  0
LINE
  8
0
 62
     0
 10
129.223
 20
33.3857
 30
0.0
 11
128.422
 21
33.3857
 31
0.0
  0
LINE
  8
0
 62
     0
 10
128.422
 20
33.3857
 30
0.0
 11
128.422
 21
30.2865
 31
0.0
  0
LINE
  8
0
 62
     0
 10
128.422
 20
30.2865
 30
0.0
 11
129.223
 21
30.2865
 31
0.0
  0
LINE
  8
0
 62
     0
 10
129.223
 20
30.2865
 30
0.0
 11
129.223
 21
29.2861
 31
0.0
  0
LINE
  8
0
 62
     0
 10
129.223
 20
29.2861
 30
0.0
 11
143.222
 21
29.2861
 31
0.0
  0
LINE
  8
0
 62
     0
 10
143.222
 20
29.2861
 30
0.0
 11
143.222
 21
30.2865
 31
0.0
  0
LINE
  8
0
 62
     0
 10
143.222
 20
30.2865
 30
0.0
 11
144.023
 21
30.2865
 31
0.0
  0
LINE
  8
0
 62
     0
 10
144.023
 20
30.2865
 30
0.0
 11
144.023
 21
33.3857
 31
0.0
  0
LINE
  8
0
 62
     0
 10
144.023
 20
33.3857
 30
0.0
 11
143.222
 21
33.3857
 31
0.0
  0
LINE
  8
0
 62
     0
 10
143.222
 20
33.3857
 30
0.0
 11
143.222
 21
39.1859
 31
0.0
  0
LINE
  8
0
 62
     0
 10
143.222
 20
39.1859
 30
0.0
 11
144.023
 21
39.1859
 31
0.0
  0
LINE
  8
0
 62
     0
 10
144.023
 20
39.1859
 30
0.0
 11
144.023
 21
42.2864
 31
0.0
  0
LINE
  8
0
 62
     0
 10
144.023
 20
42.2864
 30
0.0
 11
143.222
 21
42.2864
 31
0.0
  0
LINE
  8
0
 62
     0
 10
143.222
 20
42.2864
 30
0.0
 11
143.222
 21
43.2855
 31
0.0
  0
LINE
  8
0
 62
     0
 10
143.222
 20
43.2855
 30
0.0
 11
129.223
 21
43.2855
 31
0.0
  0
LINE
  8
0
 62
     0
 10
17.304
 20
62.3355
 30
0.0
 11
17.304
 21
61.3364
 31
0.0
  0
LINE
  8
0
 62
     0
 10
17.304
 20
61.3364
 30
0.0
 11
16.5034
 21
61.3364
 31
0.0
  0
LINE
  8
0
 62
     0
 10
16.5034
 20
61.3364
 30
0.0
 11
16.5034
 21
58.2359
 31
0.0
  0
LINE
  8
0
 62
     0
 10
16.5034
 20
58.2359
 30
0.0
 11
17.304
 21
58.2359
 31
0.0
  0
LINE
  8
0
 62
     0
 10
17.304
 20
58.2359
 30
0.0
 11
17.304
 21
52.4358
 31
0.0
  0
LINE
  8
0
 62
     0
 10
17.304
 20
52.4358
 30
0.0
 11
16.5034
 21
52.4358
 31
0.0
  0
LINE
  8
0
 62
     0
 10
16.5034
 20
52.4358
 30
0.0
 11
16.5034
 21
49.3367
 31
0.0
  0
LINE
  8
0
 62
     0
 10
16.5034
 20
49.3367
 30
0.0
 11
17.304
 21
49.3367
 31
0.0
  0
LINE
  8
0
 62
     0
 10
17.304
 20
49.3367
 30
0.0
 11
17.304
 21
48.3362
 31
0.0
  0
LINE
  8
0
 62
     0
 10
17.304
 20
48.3362
 30
0.0
 11
31.3035
 21
48.3362
 31
0.0
  0
LINE
  8
0
 62
     0
 10
31.3035
 20
48.3362
 30
0.0
 11
31.3035
 21
49.3367
 31
0.0
  0
LINE
  8
0
 62
     0
 10
31.3035
 20
49.3367
 30
0.0
 11
32.1042
 21
49.3367
 31
0.0
  0
LINE
  8
0
 62
     0
 10
32.1042
 20
49.3367
 30
0.0
 11
32.1042
 21
52.4358
 31
0.0
  0
LINE
  8
0
 62
     0
 10
32.1042
 20
52.4358
 30
0.0
 11
31.3035
 21
52.4358
 31
0.0
  0
LINE
  8
0
 62
     0
 10
31.3035
 20
52.4358
 30
0.0
 11
31.3035
 21
58.2359
 31
0.0
  0
LINE
  8
0
 62
     0
 10
31.3035
 20
58.2359
 30
0.0
 11
32.1042
 21
58.2359
 31
0.0
  0
LINE
  8
0
 62
     0
 10
32.1042
 20
58.2359
 30
0.0
 11
32.1042
 21
61.3364
 31
0.0
  0
LINE
  8
0
 62
     0
 10
32.1042
 20
61.3364
 30
0.0
 11
31.3035
 21
61.3364
 31
0.0
  0
LINE
  8
0
 62
     0
 10
31.3035
 20
61.3364
 30
0.0
 11
31.3035
 21
62.3355
 31
0.0
  0
LINE
  8
0
 62
     0
 10
31.3035
 20
62.3355
 30
0.0
 11
17.304
 21
62.3355
 31
0.0
  0
LINE
  8
0
 62
     0
 10
43.4979
 20
62.3355
 30
0.0
 11
43.4979
 21
61.3364
 31
0.0
  0
LINE
  8
0
 62
     0
 10
43.4979
 20
61.3364
 30
0.0
 11
42.697
 21
61.3364
 31
0.0
  0
LINE
  8
0
 62
     0
 10
42.697
 20
61.3364
 30
0.0
 11
42.697
 21
58.2359
 31
0.0
  0
LINE
  8
0
 62
     0
 10
42.697
 20
58.2359
 30
0.0
 11
43.4979
 21
58.2359
 31
0.0
  0
LINE
  8
0
 62
     0
 10
43.4979
 20
58.2359
 30
0.0
 11
43.4979
 21
52.4358
 31
0.0
  0
LINE
  8
0
 62
     0
 10
43.4979
 20
52.4358
 30
0.0
 11
42.697
 21
52.4358
 31
0.0
  0
LINE
  8
0
 62
     0
 10
42.697
 20
52.4358
 30
0.0
 11
42.697
 21
49.3367
 31
0.0
  0
LINE
  8
0
 62
     0
 10
42.697
 20
49.3367
 30
0.0
 11
43.4979
 21
49.3367
 31
0.0
  0
LINE
  8
0
 62
     0
 10
43.4979
 20
49.3367
 30
0.0
 11
43.4979
 21
48.3362
 31
0.0
  0
LINE
  8
0
 62
     0
 10
43.4979
 20
48.3362
 30
0.0
 11
57.4971
 21
48.3362
 31
0.0
  0
LINE
  8
0
 62
     0
 10
57.4971
 20
48.3362
 30
0.0
 11
57.4971
 21
49.3367
 31
0.0
  0
LINE
  8
0
 62
     0
 10
57.4971
 20
49.3367
 30
0.0
 11
58.2979
 21
49.3367
 31
0.0
  0
LINE
  8
0
 62
     0
 10
58.2979
 20
49.3367
 30
0.0
 11
58.2979
 21
52.4358
 31
0.0
  0
LINE
  8
0
 62
     0
 10
58.2979
 20
52.4358
 30
0.0
 11
57.4971
 21
52.4358
 31
0.0
  0
LINE
  8
0
 62
     0
 10
57.4971
 20
52.4358
 30
0.0
 11
57.4971
 21
58.2359
 31
0.0
  0
LINE
  8
0
 62
     0
 10
57.4971
 20
58.2359
 30
0.0
 11
58.2979
 21
58.2359
 31
0.0
  0
LINE
  8
0
 62
     0
 10
58.2979
 20
58.2359
 30
0.0
 11
58.2979
 21
61.3364
 31
0.0
  0
LINE
  8
0
 62
     0
 10
58.2979
 20
61.3364
 30
0.0
 11
57.4971
 21
61.3364
 31
0.0
  0
LINE
  8
0
 62
     0
 10
57.4971
 20
61.3364
 30
0.0
 11
57.4971
 21
62.3355
 31
0.0
  0
LINE
  8
0
 62
     0
 10
57.4971
 20
62.3355
 30
0.0
 11
43.4979
 21
62.3355
 31
0.0
  0
LINE
  8
0
 62
     0
 10
62.5479
 20
62.3355
 30
0.0
 11
62.5479
 21
61.3364
 31
0.0
  0
LINE
  8
0
 62
     0
 10
62.5479
 20
61.3364
 30
0.0
 11
61.747
 21
61.3364
 31
0.0
  0
LINE
  8
0
 62
     0
 10
61.747
 20
61.3364
 30
0.0
 11
61.747
 21
58.2359
 31
0.0
  0
LINE
  8
0
 62
     0
 10
61.747
 20
58.2359
 30
0.0
 11
62.5479
 21
58.2359
 31
0.0
  0
LINE
  8
0
 62
     0
 10
62.5479
 20
58.2359
 30
0.0
 11
62.5479
 21
52.4358
 31
0.0
  0
LINE
  8
0
 62
     0
 10
62.5479
 20
52.4358
 30
0.0
 11
61.747
 21
52.4358
 31
0.0
  0
LINE
  8
0
 62
     0
 10
61.747
 20
52.4358
 30
0.0
 11
61.747
 21
49.3367
 31
0.0
  0
LINE
  8
0
 62
     0
 10
61.747
 20
49.3367
 30
0.0
 11
62.5479
 21
49.3367
 31
0.0
  0
LINE
  8
0
 62
     0
 10
62.5479
 20
49.3367
 30
0.0
 11
62.5479
 21
48.3362
 31
0.0
  0
LINE
  8
0
 62
     0
 10
62.5479
 20
48.3362
 30
0.0
 11
76.5471
 21
48.3362
 31
0.0
  0
LINE
  8
0
 62
     0
 10
76.5471
 20
48.3362
 30
0.0
 11
76.5471
 21
49.3367
 31
0.0
  0
LINE
  8
0
 62
     0
 10
76.5471
 20
49.3367
 30
0.0
 11
77.3479
 21
49.3367
 31
0.0
  0
LINE
  8
0
 62
     0
 10
77.3479
 20
49.3367
 30
0.0
 11
77.3479
 21
52.4358
 31
0.0
  0
LINE
  8
0
 62
     0
 10
77.3479
 20
52.4358
 30
0.0
 11
76.5471
 21
52.4358
 31
0.0
  0
LINE
  8
0
 62
     0
 10
76.5471
 20
52.4358
 30
0.0
 11
76.5471
 21
58.2359
 31
0.0
  0
LINE
  8
0
 62
     0
 10
76.5471
 20
58.2359
 30
0.0
 11
77.3479
 21
58.2359
 31
0.0
  0
LINE
  8
0
 62
     0
 10
77.3479
 20
58.2359
 30
0.0
 11
77.3479
 21
61.3364
 31
0.0
  0
LINE
  8
0
 62
     0
 10
77.3479
 20
61.3364
 30
0.0
 11
76.5471
 21
61.3364
 31
0.0
  0
LINE
  8
0
 62
     0
 10
76.5471
 20
61.3364
 30
0.0
 11
76.5471
 21
62.3355
 31
0.0
  0
LINE
  8
0
 62
     0
 10
76.5471
 20
62.3355
 30
0.0
 11
62.5479
 21
62.3355
 31
0.0
  0
LINE
  8
0
 62
     0
 10
81.5979
 20
62.3355
 30
0.0
 11
81.5979
 21
61.3364
 31
0.0
  0
LINE
  8
0
 62
     0
 10
81.5979
 20
61.3364
 30
0.0
 11
80.797
 21
61.3364
 31
0.0
  0
LINE
  8
0
 62
     0
 10
80.797
 20
61.3364
 30
0.0
 11
80.797
 21
58.2359
 31
0.0
  0
LINE
  8
0
 62
     0
 10
80.797
 20
58.2359
 30
0.0
 11
81.5979
 21
58.2359
 31
0.0
  0
LINE
  8
0
 62
     0
 10
81.5979
 20
58.2359
 30
0.0
 11
81.5979
 21
52.4358
 31
0.0
  0
LINE
  8
0
 62
     0
 10
81.5979
 20
52.4358
 30
0.0
 11
80.797
 21
52.4358
 31
0.0
  0
LINE
  8
0
 62
     0
 10
80.797
 20
52.4358
 30
0.0
 11
80.797
 21
49.3367
 31
0.0
  0
LINE
  8
0
 62
     0
 10
80.797
 20
49.3367
 30
0.0
 11
81.5979
 21
49.3367
 31
0.0
  0
LINE
  8
0
 62
     0
 10
81.5979
 20
49.3367
 30
0.0
 11
81.5979
 21
48.3362
 31
0.0
  0
LINE
  8
0
 62
     0
 10
81.5979
 20
48.3362
 30
0.0
 11
95.5971
 21
48.3362
 31
0.0
  0
LINE
  8
0
 62
     0
 10
95.5971
 20
48.3362
 30
0.0
 11
95.5971
 21
49.3367
 31
0.0
  0
LINE
  8
0
 62
     0
 10
95.5971
 20
49.3367
 30
0.0
 11
96.3979
 21
49.3367
 31
0.0
  0
LINE
  8
0
 62
     0
 10
96.3979
 20
49.3367
 30
0.0
 11
96.3979
 21
52.4358
 31
0.0
  0
LINE
  8
0
 62
     0
 10
96.3979
 20
52.4358
 30
0.0
 11
95.5971
 21
52.4358
 31
0.0
  0
LINE
  8
0
 62
     0
 10
95.5971
 20
52.4358
 30
0.0
 11
95.5971
 21
58.2359
 31
0.0
  0
LINE
  8
0
 62
     0
 10
95.5971
 20
58.2359
 30
0.0
 11
96.3979
 21
58.2359
 31
0.0
  0
LINE
  8
0
 62
     0
 10
96.3979
 20
58.2359
 30
0.0
 11
96.3979
 21
61.3364
 31
0.0
  0
LINE
  8
0
 62
     0
 10
96.3979
 20
61.3364
 30
0.0
 11
95.5971
 21
61.3364
 31
0.0
  0
LINE
  8
0
 62
     0
 10
95.5971
 20
61.3364
 30
0.0
 11
95.5971
 21
62.3355
 31
0.0
  0
LINE
  8
0
 62
     0
 10
95.5971
 20
62.3355
 30
0.0
 11
81.5979
 21
62.3355
 31
0.0
  0
LINE
  8
0
 62
     0
 10
100.648
 20
62.3355
 30
0.0
 11
100.648
 21
61.3364
 31
0.0
  0
LINE
  8
0
 62
     0
 10
100.648
 20
61.3364
 30
0.0
 11
99.847
 21
61.3364
 31
0.0
  0
LINE
  8
0
 62
     0
 10
99.847
 20
61.3364
 30
0.0
 11
99.847
 21
58.2359
 31
0.0
  0
LINE
  8
0
 62
     0
 10
99.847
 20
58.2359
 30
0.0
 11
100.648
 21
58.2359
 31
0.0
  0
LINE
  8
0
 62
     0
 10
100.648
 20
58.2359
 30
0.0
 11
100.648
 21
52.4358
 31
0.0
  0
LINE
  8
0
 62
     0
 10
100.648
 20
52.4358
 30
0.0
 11
99.847
 21
52.4358
 31
0.0
  0
LINE
  8
0
 62
     0
 10
99.847
 20
52.4358
 30
0.0
 11
99.847
 21
49.3367
 31
0.0
  0
LINE
  8
0
 62
     0
 10
99.847
 20
49.3367
 30
0.0
 11
100.648
 21
49.3367
 31
0.0
  0
LINE
  8
0
 62
     0
 10
100.648
 20
49.3367
 30
0.0
 11
100.648
 21
48.3362
 31
0.0
  0
LINE
  8
0
 62
     0
 10
100.648
 20
48.3362
 30
0.0
 11
114.647
 21
48.3362
 31
0.0
  0
LINE
  8
0
 62
     0
 10
114.647
 20
48.3362
 30
0.0
 11
114.647
 21
49.3367
 31
0.0
  0
LINE
  8
0
 62
     0
 10
114.647
 20
49.3367
 30
0.0
 11
115.448
 21
49.3367
 31
0.0
  0
LINE
  8
0
 62
     0
 10
115.448
 20
49.3367
 30
0.0
 11
115.448
 21
52.4358
 31
0.0
  0
LINE
  8
0
 62
     0
 10
115.448
 20
52.4358
 30
0.0
 11
114.647
 21
52.4358
 31
0.0
  0
LINE
  8
0
 62
     0
 10
114.647
 20
52.4358
 30
0.0
 11
114.647
 21
58.2359
 31
0.0
  0
LINE
  8
0
 62
     0
 10
114.647
 20
58.2359
 30
0.0
 11
115.448
 21
58.2359
 31
0.0
  0
LINE
  8
0
 62
     0
 10
115.448
 20
58.2359
 30
0.0
 11
115.448
 21
61.3364
 31
0.0
  0
LINE
  8
0
 62
     0
 10
115.448
 20
61.3364
 30
0.0
 11
114.647
 21
61.3364
 31
0.0
  0
LINE
  8
0
 62
     0
 10
114.647
 20
61.3364
 30
0.0
 11
114.647
 21
62.3355
 31
0.0
  0
LINE
  8
0
 62
     0
 10
114.647
 20
62.3355
 30
0.0
 11
100.648
 21
62.3355
 31
0.0
  0
LINE
  8
0
 62
     0
 10
119.698
 20
62.3355
 30
0.0
 11
119.698
 21
61.3364
 31
0.0
  0
LINE
  8
0
 62
     0
 10
119.698
 20
61.3364
 30
0.0
 11
118.897
 21
61.3364
 31
0.0
  0
LINE
  8
0
 62
     0
 10
118.897
 20
61.3364
 30
0.0
 11
118.897
 21
58.2359
 31
0.0
  0
LINE
  8
0
 62
     0
 10
118.897
 20
58.2359
 30
0.0
 11
119.698
 21
58.2359
 31
0.0
  0
LINE
  8
0
 62
     0
 10
119.698
 20
58.2359
 30
0.0
 11
119.698
 21
52.4358
 31
0.0
  0
LINE
  8
0
 62
     0
 10
119.698
 20
52.4358
 30
0.0
 11
118.897
 21
52.4358
 31
0.0
  0
LINE
  8
0
 62
     0
 10
118.897
 20
52.4358
 30
0.0
 11
118.897
 21
49.3367
 31
0.0
  0
LINE
  8
0
 62
     0
 10
118.897
 20
49.3367
 30
0.0
 11
119.698
 21
49.3367
 31
0.0
  0
LINE
  8
0
 62
     0
 10
119.698
 20
49.3367
 30
0.0
 11
119.698
 21
48.3362
 31
0.0
  0
LINE
  8
0
 62
     0
 10
119.698
 20
48.3362
 30
0.0
 11
133.697
 21
48.3362
 31
0.0
  0
LINE
  8
0
 62
     0
 10
133.697
 20
48.3362
 30
0.0
 11
133.697
 21
49.3367
 31
0.0
  0
LINE
  8
0
 62
     0
 10
133.697
 20
49.3367
 30
0.0
 11
134.498
 21
49.3367
 31
0.0
  0
LINE
  8
0
 62
     0
 10
134.498
 20
49.3367
 30
0.0
 11
134.498
 21
52.4358
 31
0.0
  0
LINE
  8
0
 62
     0
 10
134.498
 20
52.4358
 30
0.0
 11
133.697
 21
52.4358
 31
0.0
  0
LINE
  8
0
 62
     0
 10
133.697
 20
52.4358
 30
0.0
 11
133.697
 21
58.2359
 31
0.0
  0
LINE
  8
0
 62
     0
 10
133.697
 20
58.2359
 30
0.0
 11
134.498
 21
58.2359
 31
0.0
  0
LINE
  8
0
 62
     0
 10
134.498
 20
58.2359
 30
0.0
 11
134.498
 21
61.3364
 31
0.0
  0
LINE
  8
0
 62
     0
 10
134.498
 20
61.3364
 30
0.0
 11
133.697
 21
61.3364
 31
0.0
  0
LINE
  8
0
 62
     0
 10
133.697
 20
61.3364
 30
0.0
 11
133.697
 21
62.3355
 31
0.0
  0
LINE
  8
0
 62
     0
 10
133.697
 20
62.3355
 30
0.0
 11
119.698
 21
62.3355
 31
0.0
  0
LINE
  8
0
 62
     0
 10
14.9228
 20
81.3855
 30
0.0
 11
14.9228
 21
80.3864
 31
0.0
  0
LINE
  8
0
 62
     0
 10
14.9228
 20
80.3864
 30
0.0
 11
14.1222
 21
80.3864
 31
0.0
  0
LINE
  8
0
 62
     0
 10
14.1222
 20
80.3864
 30
0.0
 11
14.1222
 21
77.2859
 31
0.0
  0
LINE
  8
0
 62
     0
 10
14.1222
 20
77.2859
 30
0.0
 11
14.9228
 21
77.2859
 31
0.0
  0
LINE
  8
0
 62
     0
 10
14.9228
 20
77.2859
 30
0.0
 11
14.9228
 21
71.4858
 31
0.0
  0
LINE
  8
0
 62
     0
 10
14.9228
 20
71.4858
 30
0.0
 11
14.1222
 21
71.4858
 31
0.0
  0
LINE
  8
0
 62
     0
 10
14.1222
 20
71.4858
 30
0.0
 11
14.1222
 21
68.3867
 31
0.0
  0
LINE
  8
0
 62
     0
 10
14.1222
 20
68.3867
 30
0.0
 11
14.9228
 21
68.3867
 31
0.0
  0
LINE
  8
0
 62
     0
 10
14.9228
 20
68.3867
 30
0.0
 11
14.9228
 21
67.3862
 31
0.0
  0
LINE
  8
0
 62
     0
 10
14.9228
 20
67.3862
 30
0.0
 11
28.9223
 21
67.3862
 31
0.0
  0
LINE
  8
0
 62
     0
 10
28.9223
 20
67.3862
 30
0.0
 11
28.9223
 21
68.3867
 31
0.0
  0
LINE
  8
0
 62
     0
 10
28.9223
 20
68.3867
 30
0.0
 11
29.7229
 21
68.3867
 31
0.0
  0
LINE
  8
0
 62
     0
 10
29.7229
 20
68.3867
 30
0.0
 11
29.7229
 21
71.4858
 31
0.0
  0
LINE
  8
0
 62
     0
 10
29.7229
 20
71.4858
 30
0.0
 11
28.9223
 21
71.4858
 31
0.0
  0
LINE
  8
0
 62
     0
 10
28.9223
 20
71.4858
 30
0.0
 11
28.9223
 21
77.2859
 31
0.0
  0
LINE
  8
0
 62
     0
 10
28.9223
 20
77.2859
 30
0.0
 11
29.7229
 21
77.2859
 31
0.0
  0
LINE
  8
0
 62
     0
 10
29.7229
 20
77.2859
 30
0.0
 11
29.7229
 21
80.3864
 31
0.0
  0
LINE
  8
0
 62
     0
 10
29.7229
 20
80.3864
 30
0.0
 11
28.9223
 21
80.3864
 31
0.0
  0
LINE
  8
0
 62
     0
 10
28.9223
 20
80.3864
 30
0.0
 11
28.9223
 21
81.3855
 31
0.0
  0
LINE
  8
0
 62
     0
 10
28.9223
 20
81.3855
 30
0.0
 11
14.9228
 21
81.3855
 31
0.0
  0
LINE
  8
0
 62
     0
 10
38.7354
 20
81.3855
 30
0.0
 11
38.7354
 21
80.3864
 31
0.0
  0
LINE
  8
0
 62
     0
 10
38.7354
 20
80.3864
 30
0.0
 11
37.936
 21
80.3864
 31
0.0
  0
LINE
  8
0
 62
     0
 10
37.936
 20
80.3864
 30
0.0
 11
37.936
 21
77.2859
 31
0.0
  0
LINE
  8
0
 62
     0
 10
37.936
 20
77.2859
 30
0.0
 11
38.7354
 21
77.2859
 31
0.0
  0
LINE
  8
0
 62
     0
 10
38.7354
 20
77.2859
 30
0.0
 11
38.7354
 21
71.4858
 31
0.0
  0
LINE
  8
0
 62
     0
 10
38.7354
 20
71.4858
 30
0.0
 11
37.936
 21
71.4858
 31
0.0
  0
LINE
  8
0
 62
     0
 10
37.936
 20
71.4858
 30
0.0
 11
37.936
 21
68.3867
 31
0.0
  0
LINE
  8
0
 62
     0
 10
37.936
 20
68.3867
 30
0.0
 11
38.7354
 21
68.3867
 31
0.0
  0
LINE
  8
0
 62
     0
 10
38.7354
 20
68.3867
 30
0.0
 11
38.7354
 21
67.3862
 31
0.0
  0
LINE
  8
0
 62
     0
 10
38.7354
 20
67.3862
 30
0.0
 11
52.736
 21
67.3862
 31
0.0
  0
LINE
  8
0
 62
     0
 10
52.736
 20
67.3862
 30
0.0
 11
52.736
 21
68.3867
 31
0.0
  0
LINE
  8
0
 62
     0
 10
52.736
 20
68.3867
 30
0.0
 11
53.5354
 21
68.3867
 31
0.0
  0
LINE
  8
0
 62
     0
 10
53.5354
 20
68.3867
 30
0.0
 11
53.5354
 21
71.4858
 31
0.0
  0
LINE
  8
0
 62
     0
 10
53.5354
 20
71.4858
 30
0.0
 11
52.736
 21
71.4858
 31
0.0
  0
LINE
  8
0
 62
     0
 10
52.736
 20
71.4858
 30
0.0
 11
52.736
 21
77.2859
 31
0.0
  0
LINE
  8
0
 62
     0
 10
52.736
 20
77.2859
 30
0.0
 11
53.5354
 21
77.2859
 31
0.0
  0
LINE
  8
0
 62
     0
 10
53.5354
 20
77.2859
 30
0.0
 11
53.5354
 21
80.3864
 31
0.0
  0
LINE
  8
0
 62
     0
 10
53.5354
 20
80.3864
 30
0.0
 11
52.736
 21
80.3864
 31
0.0
  0
LINE
  8
0
 62
     0
 10
52.736
 20
80.3864
 30
0.0
 11
52.736
 21
81.3855
 31
0.0
  0
LINE
  8
0
 62
     0
 10
52.736
 20
81.3855
 30
0.0
 11
38.7354
 21
81.3855
 31
0.0
  0
LINE
  8
0
 62
     0
 10
57.7854
 20
81.3855
 30
0.0
 11
57.7854
 21
80.3864
 31
0.0
  0
LINE
  8
0
 62
     0
 10
57.7854
 20
80.3864
 30
0.0
 11
56.986
 21
80.3864
 31
0.0
  0
LINE
  8
0
 62
     0
 10
56.986
 20
80.3864
 30
0.0
 11
56.986
 21
77.2859
 31
0.0
  0
LINE
  8
0
 62
     0
 10
56.986
 20
77.2859
 30
0.0
 11
57.7854
 21
77.2859
 31
0.0
  0
LINE
  8
0
 62
     0
 10
57.7854
 20
77.2859
 30
0.0
 11
57.7854
 21
71.4858
 31
0.0
  0
LINE
  8
0
 62
     0
 10
57.7854
 20
71.4858
 30
0.0
 11
56.986
 21
71.4858
 31
0.0
  0
LINE
  8
0
 62
     0
 10
56.986
 20
71.4858
 30
0.0
 11
56.986
 21
68.3867
 31
0.0
  0
LINE
  8
0
 62
     0
 10
56.986
 20
68.3867
 30
0.0
 11
57.7854
 21
68.3867
 31
0.0
  0
LINE
  8
0
 62
     0
 10
57.7854
 20
68.3867
 30
0.0
 11
57.7854
 21
67.3862
 31
0.0
  0
LINE
  8
0
 62
     0
 10
57.7854
 20
67.3862
 30
0.0
 11
71.786
 21
67.3862
 31
0.0
  0
LINE
  8
0
 62
     0
 10
71.786
 20
67.3862
 30
0.0
 11
71.786
 21
68.3867
 31
0.0
  0
LINE
  8
0
 62
     0
 10
71.786
 20
68.3867
 30
0.0
 11
72.5854
 21
68.3867
 31
0.0
  0
LINE
  8
0
 62
     0
 10
72.5854
 20
68.3867
 30
0.0
 11
72.5854
 21
71.4858
 31
0.0
  0
LINE
  8
0
 62
     0
 10
72.5854
 20
71.4858
 30
0.0
 11
71.786
 21
71.4858
 31
0.0
  0
LINE
  8
0
 62
     0
 10
71.786
 20
71.4858
 30
0.0
 11
71.786
 21
77.2859
 31
0.0
  0
LINE
  8
0
 62
     0
 10
71.786
 20
77.2859
 30
0.0
 11
72.5854
 21
77.2859
 31
0.0
  0
LINE
  8
0
 62
     0
 10
72.5854
 20
77.2859
 30
0.0
 11
72.5854
 21
80.3864
 31
0.0
  0
LINE
  8
0
 62
     0
 10
72.5854
 20
80.3864
 30
0.0
 11
71.786
 21
80.3864
 31
0.0
  0
LINE
  8
0
 62
     0
 10
71.786
 20
80.3864
 30
0.0
 11
71.786
 21
81.3855
 31
0.0
  0
LINE
  8
0
 62
     0
 10
71.786
 20
81.3855
 30
0.0
 11
57.7854
 21
81.3855
 31
0.0
  0
LINE
  8
0
 62
     0
 10
76.8354
 20
81.3855
 30
0.0
 11
76.8354
 21
80.3864
 31
0.0
  0
LINE
  8
0
 62
     0
 10
76.8354
 20
80.3864
 30
0.0
 11
76.036
 21
80.3864
 31
0.0
  0
LINE
  8
0
 62
     0
 10
76.036
 20
80.3864
 30
0.0
 11
76.036
 21
77.2859
 31
0.0
  0
LINE
  8
0
 62
     0
 10
76.036
 20
77.2859
 30
0.0
 11
76.8354
 21
77.2859
 31
0.0
  0
LINE
  8
0
 62
     0
 10
76.8354
 20
77.2859
 30
0.0
 11
76.8354
 21
71.4858
 31
0.0
  0
LINE
  8
0
 62
     0
 10
76.8354
 20
71.4858
 30
0.0
 11
76.036
 21
71.4858
 31
0.0
  0
LINE
  8
0
 62
     0
 10
76.036
 20
71.4858
 30
0.0
 11
76.036
 21
68.3867
 31
0.0
  0
LINE
  8
0
 62
     0
 10
76.036
 20
68.3867
 30
0.0
 11
76.8354
 21
68.3867
 31
0.0
  0
LINE
  8
0
 62
     0
 10
76.8354
 20
68.3867
 30
0.0
 11
76.8354
 21
67.3862
 31
0.0
  0
LINE
  8
0
 62
     0
 10
76.8354
 20
67.3862
 30
0.0
 11
90.836
 21
67.3862
 31
0.0
  0
LINE
  8
0
 62
     0
 10
90.836
 20
67.3862
 30
0.0
 11
90.836
 21
68.3867
 31
0.0
  0
LINE
  8
0
 62
     0
 10
90.836
 20
68.3867
 30
0.0
 11
91.634
 21
68.3867
 31
0.0
  0
LINE
  8
0
 62
     0
 10
91.634
 20
68.3867
 30
0.0
 11
91.634
 21
71.4858
 31
0.0
  0
LINE
  8
0
 62
     0
 10
91.634
 20
71.4858
 30
0.0
 11
90.836
 21
71.4858
 31
0.0
  0
LINE
  8
0
 62
     0
 10
90.836
 20
71.4858
 30
0.0
 11
90.836
 21
77.2859
 31
0.0
  0
LINE
  8
0
 62
     0
 10
90.836
 20
77.2859
 30
0.0
 11
91.634
 21
77.2859
 31
0.0
  0
LINE
  8
0
 62
     0
 10
91.634
 20
77.2859
 30
0.0
 11
91.634
 21
80.3864
 31
0.0
  0
LINE
  8
0
 62
     0
 10
91.634
 20
80.3864
 30
0.0
 11
90.836
 21
80.3864
 31
0.0
  0
LINE
  8
0
 62
     0
 10
90.836
 20
80.3864
 30
0.0
 11
90.836
 21
81.3855
 31
0.0
  0
LINE
  8
0
 62
     0
 10
90.836
 20
81.3855
 30
0.0
 11
76.8354
 21
81.3855
 31
0.0
  0
LINE
  8
0
 62
     0
 10
95.8839
 20
81.3855
 30
0.0
 11
95.8839
 21
80.3864
 31
0.0
  0
LINE
  8
0
 62
     0
 10
95.8839
 20
80.3864
 30
0.0
 11
95.086
 21
80.3864
 31
0.0
  0
LINE
  8
0
 62
     0
 10
95.086
 20
80.3864
 30
0.0
 11
95.086
 21
77.2859
 31
0.0
  0
LINE
  8
0
 62
     0
 10
95.086
 20
77.2859
 30
0.0
 11
95.8839
 21
77.2859
 31
0.0
  0
LINE
  8
0
 62
     0
 10
95.8839
 20
77.2859
 30
0.0
 11
95.8839
 21
71.4858
 31
0.0
  0
LINE
  8
0
 62
     0
 10
95.8839
 20
71.4858
 30
0.0
 11
95.086
 21
71.4858
 31
0.0
  0
LINE
  8
0
 62
     0
 10
95.086
 20
71.4858
 30
0.0
 11
95.086
 21
68.3867
 31
0.0
  0
LINE
  8
0
 62
     0
 10
95.086
 20
68.3867
 30
0.0
 11
95.8839
 21
68.3867
 31
0.0
  0
LINE
  8
0
 62
     0
 10
95.8839
 20
68.3867
 30
0.0
 11
95.8839
 21
67.3862
 31
0.0
  0
LINE
  8
0
 62
     0
 10
95.8839
 20
67.3862
 30
0.0
 11
109.885
 21
67.3862
 31
0.0
  0
LINE
  8
0
 62
     0
 10
109.885
 20
67.3862
 30
0.0
 11
109.885
 21
68.3867
 31
0.0
  0
LINE
  8
0
 62
     0
 10
109.885
 20
68.3867
 30
0.0
 11
110.684
 21
68.3867
 31
0.0
  0
LINE
  8
0
 62
     0
 10
110.684
 20
68.3867
 30
0.0
 11
110.684
 21
71.4858
 31
0.0
  0
LINE
  8
0
 62
     0
 10
110.684
 20
71.4858
 30
0.0
 11
109.885
 21
71.4858
 31
0.0
  0
LINE
  8
0
 62
     0
 10
109.885
 20
71.4858
 30
0.0
 11
109.885
 21
77.2859
 31
0.0
  0
LINE
  8
0
 62
     0
 10
109.885
 20
77.2859
 30
0.0
 11
110.684
 21
77.2859
 31
0.0
  0
LINE
  8
0
 62
     0
 10
110.684
 20
77.2859
 30
0.0
 11
110.684
 21
80.3864
 31
0.0
  0
LINE
  8
0
 62
     0
 10
110.684
 20
80.3864
 30
0.0
 11
109.885
 21
80.3864
 31
0.0
  0
LINE
  8
0
 62
     0
 10
109.885
 20
80.3864
 30
0.0
 11
109.885
 21
81.3855
 31
0.0
  0
LINE
  8
0
 62
     0
 10
109.885
 20
81.3855
 30
0.0
 11
95.8839
 21
81.3855
 31
0.0
  0
LINE
  8
0
 62
     0
 10
114.934
 20
81.3855
 30
0.0
 11
114.934
 21
80.3864
 31
0.0
  0
LINE
  8
0
 62
     0
 10
114.934
 20
80.3864
 30
0.0
 11
114.135
 21
80.3864
 31
0.0
  0
LINE
  8
0
 62
     0
 10
114.135
 20
80.3864
 30
0.0
 11
114.135
 21
77.2859
 31
0.0
  0
LINE
  8
0
 62
     0
 10
114.135
 20
77.2859
 30
0.0
 11
114.934
 21
77.2859
 31
0.0
  0
LINE
  8
0
 62
     0
 10
114.934
 20
77.2859
 30
0.0
 11
114.934
 21
71.4858
 31
0.0
  0
LINE
  8
0
 62
     0
 10
114.934
 20
71.4858
 30
0.0
 11
114.135
 21
71.4858
 31
0.0
  0
LINE
  8
0
 62
     0
 10
114.135
 20
71.4858
 30
0.0
 11
114.135
 21
68.3867
 31
0.0
  0
LINE
  8
0
 62
     0
 10
114.135
 20
68.3867
 30
0.0
 11
114.934
 21
68.3867
 31
0.0
  0
LINE
  8
0
 62
     0
 10
114.934
 20
68.3867
 30
0.0
 11
114.934
 21
67.3862
 31
0.0
  0
LINE
  8
0
 62
     0
 10
114.934
 20
67.3862
 30
0.0
 11
128.935
 21
67.3862
 31
0.0
  0
LINE
  8
0
 62
     0
 10
128.935
 20
67.3862
 30
0.0
 11
128.935
 21
68.3867
 31
0.0
  0
LINE
  8
0
 62
     0
 10
128.935
 20
68.3867
 30
0.0
 11
129.735
 21
68.3867
 31
0.0
  0
LINE
  8
0
 62
     0
 10
129.735
 20
68.3867
 30
0.0
 11
129.735
 21
71.4858
 31
0.0
  0
LINE
  8
0
 62
     0
 10
129.735
 20
71.4858
 30
0.0
 11
128.935
 21
71.4858
 31
0.0
  0
LINE
  8
0
 62
     0
 10
128.935
 20
71.4858
 30
0.0
 11
128.935
 21
77.2859
 31
0.0
  0
LINE
  8
0
 62
     0
 10
128.935
 20
77.2859
 30
0.0
 11
129.735
 21
77.2859
 31
0.0
  0
LINE
  8
0
 62
     0
 10
129.735
 20
77.2859
 30
0.0
 11
129.735
 21
80.3864
 31
0.0
  0
LINE
  8
0
 62
     0
 10
129.735
 20
80.3864
 30
0.0
 11
128.935
 21
80.3864
 31
0.0
  0
LINE
  8
0
 62
     0
 10
128.935
 20
80.3864
 30
0.0
 11
128.935
 21
81.3855
 31
0.0
  0
LINE
  8
0
 62
     0
 10
128.935
 20
81.3855
 30
0.0
 11
114.934
 21
81.3855
 31
0.0
  0
LINE
  8
0
 62
     0
 10
10.1589
 20
100.435
 30
0.0
 11
10.1589
 21
99.4364
 31
0.0
  0
LINE
  8
0
 62
     0
 10
10.1589
 20
99.4364
 30
0.0
 11
9.35965
 21
99.4364
 31
0.0
  0
LINE
  8
0
 62
     0
 10
9.35965
 20
99.4364
 30
0.0
 11
9.35965
 21
96.3359
 31
0.0
  0
LINE
  8
0
 62
     0
 10
9.35965
 20
96.3359
 30
0.0
 11
10.1589
 21
96.3359
 31
0.0
  0
LINE
  8
0
 62
     0
 10
10.1589
 20
96.3359
 30
0.0
 11
10.1589
 21
90.5358
 31
0.0
  0
LINE
  8
0
 62
     0
 10
10.1589
 20
90.5358
 30
0.0
 11
9.35965
 21
90.5358
 31
0.0
  0
LINE
  8
0
 62
     0
 10
9.35965
 20
90.5358
 30
0.0
 11
9.35965
 21
87.4367
 31
0.0
  0
LINE
  8
0
 62
     0
 10
9.35965
 20
87.4367
 30
0.0
 11
10.1589
 21
87.4367
 31
0.0
  0
LINE
  8
0
 62
     0
 10
10.1589
 20
87.4367
 30
0.0
 11
10.1589
 21
86.4362
 31
0.0
  0
LINE
  8
0
 62
     0
 10
10.1589
 20
86.4362
 30
0.0
 11
24.1598
 21
86.4362
 31
0.0
  0
LINE
  8
0
 62
     0
 10
24.1598
 20
86.4362
 30
0.0
 11
24.1598
 21
87.4367
 31
0.0
  0
LINE
  8
0
 62
     0
 10
24.1598
 20
87.4367
 30
0.0
 11
24.9604
 21
87.4367
 31
0.0
  0
LINE
  8
0
 62
     0
 10
24.9604
 20
87.4367
 30
0.0
 11
24.9604
 21
90.5358
 31
0.0
  0
LINE
  8
0
 62
     0
 10
24.9604
 20
90.5358
 30
0.0
 11
24.1598
 21
90.5358
 31
0.0
  0
LINE
  8
0
 62
     0
 10
24.1598
 20
90.5358
 30
0.0
 11
24.1598
 21
96.3359
 31
0.0
  0
LINE
  8
0
 62
     0
 10
24.1598
 20
96.3359
 30
0.0
 11
24.9604
 21
96.3359
 31
0.0
  0
LINE
  8
0
 62
     0
 10
24.9604
 20
96.3359
 30
0.0
 11
24.9604
 21
99.4364
 31
0.0
  0
LINE
  8
0
 62
     0
 10
24.9604
 20
99.4364
 30
0.0
 11
24.1598
 21
99.4364
 31
0.0
  0
LINE
  8
0
 62
     0
 10
24.1598
 20
99.4364
 30
0.0
 11
24.1598
 21
100.435
 31
0.0
  0
LINE
  8
0
 62
     0
 10
24.1598
 20
100.435
 30
0.0
 11
10.1589
 21
100.435
 31
0.0
  0
LINE
  8
0
 62
     0
 10
29.2089
 20
100.435
 30
0.0
 11
29.2089
 21
99.4364
 31
0.0
  0
LINE
  8
0
 62
     0
 10
29.2089
 20
99.4364
 30
0.0
 11
28.411
 21
99.4364
 31
0.0
  0
LINE
  8
0
 62
     0
 10
28.411
 20
99.4364
 30
0.0
 11
28.411
 21
96.3359
 31
0.0
  0
LINE
  8
0
 62
     0
 10
28.411
 20
96.3359
 30
0.0
 11
29.2089
 21
96.3359
 31
0.0
  0
LINE
  8
0
 62
     0
 10
29.2089
 20
96.3359
 30
0.0
 11
29.2089
 21
90.5358
 31
0.0
  0
LINE
  8
0
 62
     0
 10
29.2089
 20
90.5358
 30
0.0
 11
28.411
 21
90.5358
 31
0.0
  0
LINE
  8
0
 62
     0
 10
28.411
 20
90.5358
 30
0.0
 11
28.411
 21
87.4367
 31
0.0
  0
LINE
  8
0
 62
     0
 10
28.411
 20
87.4367
 30
0.0
 11
29.2089
 21
87.4367
 31
0.0
  0
LINE
  8
0
 62
     0
 10
29.2089
 20
87.4367
 30
0.0
 11
29.2089
 21
86.4362
 31
0.0
  0
LINE
  8
0
 62
     0
 10
29.2089
 20
86.4362
 30
0.0
 11
43.2096
 21
86.4362
 31
0.0
  0
LINE
  8
0
 62
     0
 10
43.2096
 20
86.4362
 30
0.0
 11
43.2096
 21
87.4367
 31
0.0
  0
LINE
  8
0
 62
     0
 10
43.2096
 20
87.4367
 30
0.0
 11
44.009
 21
87.4367
 31
0.0
  0
LINE
  8
0
 62
     0
 10
44.009
 20
87.4367
 30
0.0
 11
44.009
 21
90.5358
 31
0.0
  0
LINE
  8
0
 62
     0
 10
44.009
 20
90.5358
 30
0.0
 11
43.2096
 21
90.5358
 31
0.0
  0
LINE
  8
0
 62
     0
 10
43.2096
 20
90.5358
 30
0.0
 11
43.2096
 21
96.3359
 31
0.0
  0
LINE
  8
0
 62
     0
 10
43.2096
 20
96.3359
 30
0.0
 11
44.009
 21
96.3359
 31
0.0
  0
LINE
  8
0
 62
     0
 10
44.009
 20
96.3359
 30
0.0
 11
44.009
 21
99.4364
 31
0.0
  0
LINE
  8
0
 62
     0
 10
44.009
 20
99.4364
 30
0.0
 11
43.2096
 21
99.4364
 31
0.0
  0
LINE
  8
0
 62
     0
 10
43.2096
 20
99.4364
 30
0.0
 11
43.2096
 21
100.435
 31
0.0
  0
LINE
  8
0
 62
     0
 10
43.2096
 20
100.435
 30
0.0
 11
29.2089
 21
100.435
 31
0.0
  0
LINE
  8
0
 62
     0
 10
48.2589
 20
100.435
 30
0.0
 11
48.2589
 21
99.4364
 31
0.0
  0
LINE
  8
0
 62
     0
 10
48.2589
 20
99.4364
 30
0.0
 11
47.4595
 21
99.4364
 31
0.0
  0
LINE
  8
0
 62
     0
 10
47.4595
 20
99.4364
 30
0.0
 11
47.4595
 21
96.3359
 31
0.0
  0
LINE
  8
0
 62
     0
 10
47.4595
 20
96.3359
 30
0.0
 11
48.2589
 21
96.3359
 31
0.0
  0
LINE
  8
0
 62
     0
 10
48.2589
 20
96.3359
 30
0.0
 11
48.2589
 21
90.5358
 31
0.0
  0
LINE
  8
0
 62
     0
 10
48.2589
 20
90.5358
 30
0.0
 11
47.4595
 21
90.5358
 31
0.0
  0
LINE
  8
0
 62
     0
 10
47.4595
 20
90.5358
 30
0.0
 11
47.4595
 21
87.4367
 31
0.0
  0
LINE
  8
0
 62
     0
 10
47.4595
 20
87.4367
 30
0.0
 11
48.2589
 21
87.4367
 31
0.0
  0
LINE
  8
0
 62
     0
 10
48.2589
 20
87.4367
 30
0.0
 11
48.2589
 21
86.4362
 31
0.0
  0
LINE
  8
0
 62
     0
 10
48.2589
 20
86.4362
 30
0.0
 11
62.2596
 21
86.4362
 31
0.0
  0
LINE
  8
0
 62
     0
 10
62.2596
 20
86.4362
 30
0.0
 11
62.2596
 21
87.4367
 31
0.0
  0
LINE
  8
0
 62
     0
 10
62.2596
 20
87.4367
 30
0.0
 11
63.059
 21
87.4367
 31
0.0
  0
LINE
  8
0
 62
     0
 10
63.059
 20
87.4367
 30
0.0
 11
63.059
 21
90.5358
 31
0.0
  0
LINE
  8
0
 62
     0
 10
63.059
 20
90.5358
 30
0.0
 11
62.2596
 21
90.5358
 31
0.0
  0
LINE
  8
0
 62
     0
 10
62.2596
 20
90.5358
 30
0.0
 11
62.2596
 21
96.3359
 31
0.0
  0
LINE
  8
0
 62
     0
 10
62.2596
 20
96.3359
 30
0.0
 11
63.059
 21
96.3359
 31
0.0
  0
LINE
  8
0
 62
     0
 10
63.059
 20
96.3359
 30
0.0
 11
63.059
 21
99.4364
 31
0.0
  0
LINE
  8
0
 62
     0
 10
63.059
 20
99.4364
 30
0.0
 11
62.2596
 21
99.4364
 31
0.0
  0
LINE
  8
0
 62
     0
 10
62.2596
 20
99.4364
 30
0.0
 11
62.2596
 21
100.435
 31
0.0
  0
LINE
  8
0
 62
     0
 10
62.2596
 20
100.435
 30
0.0
 11
48.2589
 21
100.435
 31
0.0
  0
LINE
  8
0
 62
     0
 10
67.3089
 20
100.435
 30
0.0
 11
67.3089
 21
99.4364
 31
0.0
  0
LINE
  8
0
 62
     0
 10
67.3089
 20
99.4364
 30
0.0
 11
66.5095
 21
99.4364
 31
0.0
  0
LINE
  8
0
 62
     0
 10
66.5095
 20
99.4364
 30
0.0
 11
66.5095
 21
96.3359
 31
0.0
  0
LINE
  8
0
 62
     0
 10
66.5095
 20
96.3359
 30
0.0
 11
67.3089
 21
96.3359
 31
0.0
  0
LINE
  8
0
 62
     0
 10
67.3089
 20
96.3359
 30
0.0
 11
67.3089
 21
90.5358
 31
0.0
  0
LINE
  8
0
 62
     0
 10
67.3089
 20
90.5358
 30
0.0
 11
66.5095
 21
90.5358
 31
0.0
  0
LINE
  8
0
 62
     0
 10
66.5095
 20
90.5358
 30
0.0
 11
66.5095
 21
87.4367
 31
0.0
  0
LINE
  8
0
 62
     0
 10
66.5095
 20
87.4367
 30
0.0
 11
67.3089
 21
87.4367
 31
0.0
  0
LINE
  8
0
 62
     0
 10
67.3089
 20
87.4367
 30
0.0
 11
67.3089
 21
86.4362
 31
0.0
  0
LINE
  8
0
 62
     0
 10
67.3089
 20
86.4362
 30
0.0
 11
81.3096
 21
86.4362
 31
0.0
  0
LINE
  8
0
 62
     0
 10
81.3096
 20
86.4362
 30
0.0
 11
81.3096
 21
87.4367
 31
0.0
  0
LINE
  8
0
 62
     0
 10
81.3096
 20
87.4367
 30
0.0
 11
82.109
 21
87.4367
 31
0.0
  0
LINE
  8
0
 62
     0
 10
82.109
 20
87.4367
 30
0.0
 11
82.109
 21
90.5358
 31
0.0
  0
LINE
  8
0
 62
     0
 10
82.109
 20
90.5358
 30
0.0
 11
81.3096
 21
90.5358
 31
0.0
  0
LINE
  8
0
 62
     0
 10
81.3096
 20
90.5358
 30
0.0
 11
81.3096
 21
96.3359
 31
0.0
  0
LINE
  8
0
 62
     0
 10
81.3096
 20
96.3359
 30
0.0
 11
82.109
 21
96.3359
 31
0.0
  0
LINE
  8
0
 62
     0
 10
82.109
 20
96.3359
 30
0.0
 11
82.109
 21
99.4364
 31
0.0
  0
LINE
  8
0
 62
     0
 10
82.109
 20
99.4364
 30
0.0
 11
81.3096
 21
99.4364
 31
0.0
  0
LINE
  8
0
 62
     0
 10
81.3096
 20
99.4364
 30
0.0
 11
81.3096
 21
100.435
 31
0.0
  0
LINE
  8
0
 62
     0
 10
81.3096
 20
100.435
 30
0.0
 11
67.3089
 21
100.435
 31
0.0
  0
LINE
  8
0
 62
     0
 10
86.3589
 20
100.435
 30
0.0
 11
86.3589
 21
99.4364
 31
0.0
  0
LINE
  8
0
 62
     0
 10
86.3589
 20
99.4364
 30
0.0
 11
85.5595
 21
99.4364
 31
0.0
  0
LINE
  8
0
 62
     0
 10
85.5595
 20
99.4364
 30
0.0
 11
85.5595
 21
96.3359
 31
0.0
  0
LINE
  8
0
 62
     0
 10
85.5595
 20
96.3359
 30
0.0
 11
86.3589
 21
96.3359
 31
0.0
  0
LINE
  8
0
 62
     0
 10
86.3589
 20
96.3359
 30
0.0
 11
86.3589
 21
90.5358
 31
0.0
  0
LINE
  8
0
 62
     0
 10
86.3589
 20
90.5358
 30
0.0
 11
85.5595
 21
90.5358
 31
0.0
  0
LINE
  8
0
 62
     0
 10
85.5595
 20
90.5358
 30
0.0
 11
85.5595
 21
87.4367
 31
0.0
  0
LINE
  8
0
 62
     0
 10
85.5595
 20
87.4367
 30
0.0
 11
86.3589
 21
87.4367
 31
0.0
  0
LINE
  8
0
 62
     0
 10
86.3589
 20
87.4367
 30
0.0
 11
86.3589
 21
86.4362
 31
0.0
  0
LINE
  8
0
 62
     0
 10
86.3589
 20
86.4362
 30
0.0
 11
100.36
 21
86.4362
 31
0.0
  0
LINE
  8
0
 62
     0
 10
100.36
 20
86.4362
 30
0.0
 11
100.36
 21
87.4367
 31
0.0
  0
LINE
  8
0
 62
     0
 10
100.36
 20
87.4367
 30
0.0
 11
101.159
 21
87.4367
 31
0.0
  0
LINE
  8
0
 62
     0
 10
101.159
 20
87.4367
 30
0.0
 11
101.159
 21
90.5358
 31
0.0
  0
LINE
  8
0
 62
     0
 10
101.159
 20
90.5358
 30
0.0
 11
100.36
 21
90.5358
 31
0.0
  0
LINE
  8
0
 62
     0
 10
100.36
 20
90.5358
 30
0.0
 11
100.36
 21
96.3359
 31
0.0
  0
LINE
  8
0
 62
     0
 10
100.36
 20
96.3359
 30
0.0
 11
101.159
 21
96.3359
 31
0.0
  0
LINE
  8
0
 62
     0
 10
101.159
 20
96.3359
 30
0.0
 11
101.159
 21
99.4364
 31
0.0
  0
LINE
  8
0
 62
     0
 10
101.159
 20
99.4364
 30
0.0
 11
100.36
 21
99.4364
 31
0.0
  0
LINE
  8
0
 62
     0
 10
100.36
 20
99.4364
 30
0.0
 11
100.36
 21
100.435
 31
0.0
  0
LINE
  8
0
 62
     0
 10
100.36
 20
100.435
 30
0.0
 11
86.3589
 21
100.435
 31
0.0
  0
LINE
  8
0
 62
     0
 10
105.409
 20
100.435
 30
0.0
 11
105.409
 21
99.4364
 31
0.0
  0
LINE
  8
0
 62
     0
 10
105.409
 20
99.4364
 30
0.0
 11
104.61
 21
99.4364
 31
0.0
  0
LINE
  8
0
 62
     0
 10
104.61
 20
99.4364
 30
0.0
 11
104.61
 21
96.3359
 31
0.0
  0
LINE
  8
0
 62
     0
 10
104.61
 20
96.3359
 30
0.0
 11
105.409
 21
96.3359
 31
0.0
  0
LINE
  8
0
 62
     0
 10
105.409
 20
96.3359
 30
0.0
 11
105.409
 21
90.5358
 31
0.0
  0
LINE
  8
0
 62
     0
 10
105.409
 20
90.5358
 30
0.0
 11
104.61
 21
90.5358
 31
0.0
  0
LINE
  8
0
 62
     0
 10
104.61
 20
90.5358
 30
0.0
 11
104.61
 21
87.4367
 31
0.0
  0
LINE
  8
0
 62
     0
 10
104.61
 20
87.4367
 30
0.0
 11
105.409
 21
87.4367
 31
0.0
  0
LINE
  8
0
 62
     0
 10
105.409
 20
87.4367
 30
0.0
 11
105.409
 21
86.4362
 31
0.0
  0
LINE
  8
0
 62
     0
 10
105.409
 20
86.4362
 30
0.0
 11
119.41
 21
86.4362
 31
0.0
  0
LINE
  8
0
 62
     0
 10
119.41
 20
86.4362
 30
0.0
 11
119.41
 21
87.4367
 31
0.0
  0
LINE
  8
0
 62
     0
 10
119.41
 20
87.4367
 30
0.0
 11
120.209
 21
87.4367
 31
0.0
  0
LINE
  8
0
 62
     0
 10
120.209
 20
87.4367
 30
0.0
 11
120.209
 21
90.5358
 31
0.0
  0
LINE
  8
0
 62
     0
 10
120.209
 20
90.5358
 30
0.0
 11
119.41
 21
90.5358
 31
0.0
  0
LINE
  8
0
 62
     0
 10
119.41
 20
90.5358
 30
0.0
 11
119.41
 21
96.3359
 31
0.0
  0
LINE
  8
0
 62
     0
 10
119.41
 20
96.3359
 30
0.0
 11
120.209
 21
96.3359
 31
0.0
  0
LINE
  8
0
 62
     0
 10
120.209
 20
96.3359
 30
0.0
 11
120.209
 21
99.4364
 31
0.0
  0
LINE
  8
0
 62
     0
 10
120.209
 20
99.4364
 30
0.0
 11
119.41
 21
99.4364
 31
0.0
  0
LINE
  8
0
 62
     0
 10
119.41
 20
99.4364
 30
0.0
 11
119.41
 21
100.435
 31
0.0
  0
LINE
  8
0
 62
     0
 10
119.41
 20
100.435
 30
0.0
 11
105.409
 21
100.435
 31
0.0
  0
LINE
  8
0
 62
     0
 10
124.459
 20
100.435
 30
0.0
 11
124.459
 21
99.4364
 31
0.0
  0
LINE
  8
0
 62
     0
 10
124.459
 20
99.4364
 30
0.0
 11
123.66
 21
99.4364
 31
0.0
  0
LINE
  8
0
 62
     0
 10
123.66
 20
99.4364
 30
0.0
 11
123.66
 21
96.3359
 31
0.0
  0
LINE
  8
0
 62
     0
 10
123.66
 20
96.3359
 30
0.0
 11
124.459
 21
96.3359
 31
0.0
  0
LINE
  8
0
 62
     0
 10
124.459
 20
96.3359
 30
0.0
 11
124.459
 21
90.5358
 31
0.0
  0
LINE
  8
0
 62
     0
 10
124.459
 20
90.5358
 30
0.0
 11
123.66
 21
90.5358
 31
0.0
  0
LINE
  8
0
 62
     0
 10
123.66
 20
90.5358
 30
0.0
 11
123.66
 21
87.4367
 31
0.0
  0
LINE
  8
0
 62
     0
 10
123.66
 20
87.4367
 30
0.0
 11
124.459
 21
87.4367
 31
0.0
  0
LINE
  8
0
 62
     0
 10
124.459
 20
87.4367
 30
0.0
 11
124.459
 21
86.4362
 31
0.0
  0
LINE
  8
0
 62
     0
 10
124.459
 20
86.4362
 30
0.0
 11
138.46
 21
86.4362
 31
0.0
  0
LINE
  8
0
 62
     0
 10
138.46
 20
86.4362
 30
0.0
 11
138.46
 21
87.4367
 31
0.0
  0
LINE
  8
0
 62
     0
 10
138.46
 20
87.4367
 30
0.0
 11
139.26
 21
87.4367
 31
0.0
  0
LINE
  8
0
 62
     0
 10
139.26
 20
87.4367
 30
0.0
 11
139.26
 21
90.5358
 31
0.0
  0
LINE
  8
0
 62
     0
 10
139.26
 20
90.5358
 30
0.0
 11
138.46
 21
90.5358
 31
0.0
  0
LINE
  8
0
 62
     0
 10
138.46
 20
90.5358
 30
0.0
 11
138.46
 21
96.3359
 31
0.0
  0
LINE
  8
0
 62
     0
 10
138.46
 20
96.3359
 30
0.0
 11
139.26
 21
96.3359
 31
0.0
  0
LINE
  8
0
 62
     0
 10
139.26
 20
96.3359
 30
0.0
 11
139.26
 21
99.4364
 31
0.0
  0
LINE
  8
0
 62
     0
 10
139.26
 20
99.4364
 30
0.0
 11
138.46
 21
99.4364
 31
0.0
  0
LINE
  8
0
 62
     0
 10
138.46
 20
99.4364
 30
0.0
 11
138.46
 21
100.435
 31
0.0
  0
LINE
  8
0
 62
     0
 10
138.46
 20
100.435
 30
0.0
 11
124.459
 21
100.435
 31
0.0
  0
LINE
  8
0
 62
     0
 10
10.1589
 20
124.249
 30
0.0
 11
10.1589
 21
123.249
 31
0.0
  0
LINE
  8
0
 62
     0
 10
10.1589
 20
123.249
 30
0.0
 11
9.35965
 21
123.249
 31
0.0
  0
LINE
  8
0
 62
     0
 10
9.35965
 20
123.249
 30
0.0
 11
9.35965
 21
120.148
 31
0.0
  0
LINE
  8
0
 62
     0
 10
9.35965
 20
120.148
 30
0.0
 11
10.1589
 21
120.148
 31
0.0
  0
LINE
  8
0
 62
     0
 10
10.1589
 20
120.148
 30
0.0
 11
10.1589
 21
114.348
 31
0.0
  0
LINE
  8
0
 62
     0
 10
10.1589
 20
114.348
 30
0.0
 11
9.35965
 21
114.348
 31
0.0
  0
LINE
  8
0
 62
     0
 10
9.35965
 20
114.348
 30
0.0
 11
9.35965
 21
111.249
 31
0.0
  0
LINE
  8
0
 62
     0
 10
9.35965
 20
111.249
 30
0.0
 11
10.1589
 21
111.249
 31
0.0
  0
LINE
  8
0
 62
     0
 10
10.1589
 20
111.249
 30
0.0
 11
10.1589
 21
110.249
 31
0.0
  0
LINE
  8
0
 62
     0
 10
10.1589
 20
110.249
 30
0.0
 11
24.1598
 21
110.249
 31
0.0
  0
LINE
  8
0
 62
     0
 10
24.1598
 20
110.249
 30
0.0
 11
24.1598
 21
111.249
 31
0.0
  0
LINE
  8
0
 62
     0
 10
24.1598
 20
111.249
 30
0.0
 11
24.9604
 21
111.249
 31
0.0
  0
LINE
  8
0
 62
     0
 10
24.9604
 20
111.249
 30
0.0
 11
24.9604
 21
114.348
 31
0.0
  0
LINE
  8
0
 62
     0
 10
24.9604
 20
114.348
 30
0.0
 11
24.1598
 21
114.348
 31
0.0
  0
LINE
  8
0
 62
     0
 10
24.1598
 20
114.348
 30
0.0
 11
24.1598
 21
120.148
 31
0.0
  0
LINE
  8
0
 62
     0
 10
24.1598
 20
120.148
 30
0.0
 11
24.9604
 21
120.148
 31
0.0
  0
LINE
  8
0
 62
     0
 10
24.9604
 20
120.148
 30
0.0
 11
24.9604
 21
123.249
 31
0.0
  0
LINE
  8
0
 62
     0
 10
24.9604
 20
123.249
 30
0.0
 11
24.1598
 21
123.249
 31
0.0
  0
LINE
  8
0
 62
     0
 10
24.1598
 20
123.249
 30
0.0
 11
24.1598
 21
124.249
 31
0.0
  0
LINE
  8
0
 62
     0
 10
24.1598
 20
124.249
 30
0.0
 11
10.1589
 21
124.249
 31
0.0
  0
LINE
  8
0
 62
     0
 10
33.9728
 20
124.249
 30
0.0
 11
33.9728
 21
123.249
 31
0.0
  0
LINE
  8
0
 62
     0
 10
33.9728
 20
123.249
 30
0.0
 11
33.1722
 21
123.249
 31
0.0
  0
LINE
  8
0
 62
     0
 10
33.1722
 20
123.249
 30
0.0
 11
33.1722
 21
120.148
 31
0.0
  0
LINE
  8
0
 62
     0
 10
33.1722
 20
120.148
 30
0.0
 11
33.9728
 21
120.148
 31
0.0
  0
LINE
  8
0
 62
     0
 10
33.9728
 20
120.148
 30
0.0
 11
33.9728
 21
114.348
 31
0.0
  0
LINE
  8
0
 62
     0
 10
33.9728
 20
114.348
 30
0.0
 11
33.1722
 21
114.348
 31
0.0
  0
LINE
  8
0
 62
     0
 10
33.1722
 20
114.348
 30
0.0
 11
33.1722
 21
111.249
 31
0.0
  0
LINE
  8
0
 62
     0
 10
33.1722
 20
111.249
 30
0.0
 11
33.9728
 21
111.249
 31
0.0
  0
LINE
  8
0
 62
     0
 10
33.9728
 20
111.249
 30
0.0
 11
33.9728
 21
110.249
 31
0.0
  0
LINE
  8
0
 62
     0
 10
33.9728
 20
110.249
 30
0.0
 11
47.9721
 21
110.249
 31
0.0
  0
LINE
  8
0
 62
     0
 10
47.9721
 20
110.249
 30
0.0
 11
47.9721
 21
111.249
 31
0.0
  0
LINE
  8
0
 62
     0
 10
47.9721
 20
111.249
 30
0.0
 11
48.7729
 21
111.249
 31
0.0
  0
LINE
  8
0
 62
     0
 10
48.7729
 20
111.249
 30
0.0
 11
48.7729
 21
114.348
 31
0.0
  0
LINE
  8
0
 62
     0
 10
48.7729
 20
114.348
 30
0.0
 11
47.9721
 21
114.348
 31
0.0
  0
LINE
  8
0
 62
     0
 10
47.9721
 20
114.348
 30
0.0
 11
47.9721
 21
120.148
 31
0.0
  0
LINE
  8
0
 62
     0
 10
47.9721
 20
120.148
 30
0.0
 11
48.7729
 21
120.148
 31
0.0
  0
LINE
  8
0
 62
     0
 10
48.7729
 20
120.148
 30
0.0
 11
48.7729
 21
123.249
 31
0.0
  0
LINE
  8
0
 62
     0
 10
48.7729
 20
123.249
 30
0.0
 11
47.9721
 21
123.249
 31
0.0
  0
LINE
  8
0
 62
     0
 10
47.9721
 20
123.249
 30
0.0
 11
47.9721
 21
124.249
 31
0.0
  0
LINE
  8
0
 62
     0
 10
47.9721
 20
124.249
 30
0.0
 11
33.9728
 21
124.249
 31
0.0
  0
LINE
  8
0
 62
     0
 10
53.0229
 20
124.249
 30
0.0
 11
53.0229
 21
123.249
 31
0.0
  0
LINE
  8
0
 62
     0
 10
53.0229
 20
123.249
 30
0.0
 11
52.222
 21
123.249
 31
0.0
  0
LINE
  8
0
 62
     0
 10
52.222
 20
123.249
 30
0.0
 11
52.222
 21
120.148
 31
0.0
  0
LINE
  8
0
 62
     0
 10
52.222
 20
120.148
 30
0.0
 11
53.0229
 21
120.148
 31
0.0
  0
LINE
  8
0
 62
     0
 10
53.0229
 20
120.148
 30
0.0
 11
53.0229
 21
114.348
 31
0.0
  0
LINE
  8
0
 62
     0
 10
53.0229
 20
114.348
 30
0.0
 11
52.222
 21
114.348
 31
0.0
  0
LINE
  8
0
 62
     0
 10
52.222
 20
114.348
 30
0.0
 11
52.222
 21
111.249
 31
0.0
  0
LINE
  8
0
 62
     0
 10
52.222
 20
111.249
 30
0.0
 11
53.0229
 21
111.249
 31
0.0
  0
LINE
  8
0
 62
     0
 10
53.0229
 20
111.249
 30
0.0
 11
53.0229
 21
110.249
 31
0.0
  0
LINE
  8
0
 62
     0
 10
53.0229
 20
110.249
 30
0.0
 11
67.0221
 21
110.249
 31
0.0
  0
LINE
  8
0
 62
     0
 10
67.0221
 20
110.249
 30
0.0
 11
67.0221
 21
111.249
 31
0.0
  0
LINE
  8
0
 62
     0
 10
67.0221
 20
111.249
 30
0.0
 11
67.8229
 21
111.249
 31
0.0
  0
LINE
  8
0
 62
     0
 10
67.8229
 20
111.249
 30
0.0
 11
67.8229
 21
114.348
 31
0.0
  0
LINE
  8
0
 62
     0
 10
67.8229
 20
114.348
 30
0.0
 11
67.0221
 21
114.348
 31
0.0
  0
LINE
  8
0
 62
     0
 10
67.0221
 20
114.348
 30
0.0
 11
67.0221
 21
120.148
 31
0.0
  0
LINE
  8
0
 62
     0
 10
67.0221
 20
120.148
 30
0.0
 11
67.8229
 21
120.148
 31
0.0
  0
LINE
  8
0
 62
     0
 10
67.8229
 20
120.148
 30
0.0
 11
67.8229
 21
123.249
 31
0.0
  0
LINE
  8
0
 62
     0
 10
67.8229
 20
123.249
 30
0.0
 11
67.0221
 21
123.249
 31
0.0
  0
LINE
  8
0
 62
     0
 10
67.0221
 20
123.249
 30
0.0
 11
67.0221
 21
124.249
 31
0.0
  0
LINE
  8
0
 62
     0
 10
67.0221
 20
124.249
 30
0.0
 11
53.0229
 21
124.249
 31
0.0
  0
LINE
  8
0
 62
     0
 10
72.0729
 20
124.249
 30
0.0
 11
72.0729
 21
123.249
 31
0.0
  0
LINE
  8
0
 62
     0
 10
72.0729
 20
123.249
 30
0.0
 11
71.272
 21
123.249
 31
0.0
  0
LINE
  8
0
 62
     0
 10
71.272
 20
123.249
 30
0.0
 11
71.272
 21
120.148
 31
0.0
  0
LINE
  8
0
 62
     0
 10
71.272
 20
120.148
 30
0.0
 11
72.0729
 21
120.148
 31
0.0
  0
LINE
  8
0
 62
     0
 10
72.0729
 20
120.148
 30
0.0
 11
72.0729
 21
114.348
 31
0.0
  0
LINE
  8
0
 62
     0
 10
72.0729
 20
114.348
 30
0.0
 11
71.272
 21
114.348
 31
0.0
  0
LINE
  8
0
 62
     0
 10
71.272
 20
114.348
 30
0.0
 11
71.272
 21
111.249
 31
0.0
  0
LINE
  8
0
 62
     0
 10
71.272
 20
111.249
 30
0.0
 11
72.0729
 21
111.249
 31
0.0
  0
LINE
  8
0
 62
     0
 10
72.0729
 20
111.249
 30
0.0
 11
72.0729
 21
110.249
 31
0.0
  0
LINE
  8
0
 62
     0
 10
72.0729
 20
110.249
 30
0.0
 11
86.0721
 21
110.249
 31
0.0
  0
LINE
  8
0
 62
     0
 10
86.0721
 20
110.249
 30
0.0
 11
86.0721
 21
111.249
 31
0.0
  0
LINE
  8
0
 62
     0
 10
86.0721
 20
111.249
 30
0.0
 11
86.8729
 21
111.249
 31
0.0
  0
LINE
  8
0
 62
     0
 10
86.8729
 20
111.249
 30
0.0
 11
86.8729
 21
114.348
 31
0.0
  0
LINE
  8
0
 62
     0
 10
86.8729
 20
114.348
 30
0.0
 11
86.0721
 21
114.348
 31
0.0
  0
LINE
  8
0
 62
     0
 10
86.0721
 20
114.348
 30
0.0
 11
86.0721
 21
120.148
 31
0.0
  0
LINE
  8
0
 62
     0
 10
86.0721
 20
120.148
 30
0.0
 11
86.8729
 21
120.148
 31
0.0
  0
LINE
  8
0
 62
     0
 10
86.8729
 20
120.148
 30
0.0
 11
86.8729
 21
123.249
 31
0.0
  0
LINE
  8
0
 62
     0
 10
86.8729
 20
123.249
 30
0.0
 11
86.0721
 21
123.249
 31
0.0
  0
LINE
  8
0
 62
     0
 10
86.0721
 20
123.249
 30
0.0
 11
86.0721
 21
124.249
 31
0.0
  0
LINE
  8
0
 62
     0
 10
86.0721
 20
124.249
 30
0.0
 11
72.0729
 21
124.249
 31
0.0
  0
LINE
  8
0
 62
     0
 10
91.1229
 20
124.249
 30
0.0
 11
91.1229
 21
123.249
 31
0.0
  0
LINE
  8
0
 62
     0
 10
91.1229
 20
123.249
 30
0.0
 11
90.322
 21
123.249
 31
0.0
  0
LINE
  8
0
 62
     0
 10
90.322
 20
123.249
 30
0.0
 11
90.322
 21
120.148
 31
0.0
  0
LINE
  8
0
 62
     0
 10
90.322
 20
120.148
 30
0.0
 11
91.1229
 21
120.148
 31
0.0
  0
LINE
  8
0
 62
     0
 10
91.1229
 20
120.148
 30
0.0
 11
91.1229
 21
114.348
 31
0.0
  0
LINE
  8
0
 62
     0
 10
91.1229
 20
114.348
 30
0.0
 11
90.322
 21
114.348
 31
0.0
  0
LINE
  8
0
 62
     0
 10
90.322
 20
114.348
 30
0.0
 11
90.322
 21
111.249
 31
0.0
  0
LINE
  8
0
 62
     0
 10
90.322
 20
111.249
 30
0.0
 11
91.1229
 21
111.249
 31
0.0
  0
LINE
  8
0
 62
     0
 10
91.1229
 20
111.249
 30
0.0
 11
91.1229
 21
110.249
 31
0.0
  0
LINE
  8
0
 62
     0
 10
91.1229
 20
110.249
 30
0.0
 11
105.122
 21
110.249
 31
0.0
  0
LINE
  8
0
 62
     0
 10
105.122
 20
110.249
 30
0.0
 11
105.122
 21
111.249
 31
0.0
  0
LINE
  8
0
 62
     0
 10
105.122
 20
111.249
 30
0.0
 11
105.923
 21
111.249
 31
0.0
  0
LINE
  8
0
 62
     0
 10
105.923
 20
111.249
 30
0.0
 11
105.923
 21
114.348
 31
0.0
  0
LINE
  8
0
 62
     0
 10
105.923
 20
114.348
 30
0.0
 11
105.122
 21
114.348
 31
0.0
  0
LINE
  8
0
 62
     0
 10
105.122
 20
114.348
 30
0.0
 11
105.122
 21
120.148
 31
0.0
  0
LINE
  8
0
 62
     0
 10
105.122
 20
120.148
 30
0.0
 11
105.923
 21
120.148
 31
0.0
  0
LINE
  8
0
 62
     0
 10
105.923
 20
120.148
 30
0.0
 11
105.923
 21
123.249
 31
0.0
  0
LINE
  8
0
 62
     0
 10
105.923
 20
123.249
 30
0.0
 11
105.122
 21
123.249
 31
0.0
  0
LINE
  8
0
 62
     0
 10
105.122
 20
123.249
 30
0.0
 11
105.122
 21
124.249
 31
0.0
  0
LINE
  8
0
 62
     0
 10
105.122
 20
124.249
 30
0.0
 11
91.1229
 21
124.249
 31
0.0
  0
LINE
  8
0
 62
     0
 10
114.934
 20
124.249
 30
0.0
 11
114.934
 21
123.249
 31
0.0
  0
LINE
  8
0
 62
     0
 10
114.934
 20
123.249
 30
0.0
 11
114.135
 21
123.249
 31
0.0
  0
LINE
  8
0
 62
     0
 10
114.135
 20
123.249
 30
0.0
 11
114.135
 21
120.148
 31
0.0
  0
LINE
  8
0
 62
     0
 10
114.135
 20
120.148
 30
0.0
 11
114.934
 21
120.148
 31
0.0
  0
LINE
  8
0
 62
     0
 10
114.934
 20
120.148
 30
0.0
 11
114.934
 21
114.348
 31
0.0
  0
LINE
  8
0
 62
     0
 10
114.934
 20
114.348
 30
0.0
 11
114.135
 21
114.348
 31
0.0
  0
LINE
  8
0
 62
     0
 10
114.135
 20
114.348
 30
0.0
 11
114.135
 21
111.249
 31
0.0
  0
LINE
  8
0
 62
     0
 10
114.135
 20
111.249
 30
0.0
 11
114.934
 21
111.249
 31
0.0
  0
LINE
  8
0
 62
     0
 10
114.934
 20
111.249
 30
0.0
 11
114.934
 21
110.249
 31
0.0
  0
LINE
  8
0
 62
     0
 10
114.934
 20
110.249
 30
0.0
 11
128.935
 21
110.249
 31
0.0
  0
LINE
  8
0
 62
     0
 10
128.935
 20
110.249
 30
0.0
 11
128.935
 21
111.249
 31
0.0
  0
LINE
  8
0
 62
     0
 10
128.935
 20
111.249
 30
0.0
 11
129.735
 21
111.249
 31
0.0
  0
LINE
  8
0
 62
     0
 10
129.735
 20
111.249
 30
0.0
 11
129.735
 21
114.348
 31
0.0
  0
LINE
  8
0
 62
     0
 10
129.735
 20
114.348
 30
0.0
 11
128.935
 21
114.348
 31
0.0
  0
LINE
  8
0
 62
     0
 10
128.935
 20
114.348
 30
0.0
 11
128.935
 21
120.148
 31
0.0
  0
LINE
  8
0
 62
     0
 10
128.935
 20
120.148
 30
0.0
 11
129.735
 21
120.148
 31
0.0
  0
LINE
  8
0
 62
     0
 10
129.735
 20
120.148
 30
0.0
 11
129.735
 21
123.249
 31
0.0
  0
LINE
  8
0
 62
     0
 10
129.735
 20
123.249
 30
0.0
 11
128.935
 21
123.249
 31
0.0
  0
LINE
  8
0
 62
     0
 10
128.935
 20
123.249
 30
0.0
 11
128.935
 21
124.249
 31
0.0
  0
LINE
  8
0
 62
     0
 10
128.935
 20
124.249
 30
0.0
 11
114.934
 21
124.249
 31
0.0
  0
LINE
  8
0
 62
     0
 10
133.985
 20
124.249
 30
0.0
 11
133.985
 21
123.249
 31
0.0
  0
LINE
  8
0
 62
     0
 10
133.985
 20
123.249
 30
0.0
 11
133.185
 21
123.249
 31
0.0
  0
LINE
  8
0
 62
     0
 10
133.185
 20
123.249
 30
0.0
 11
133.185
 21
120.148
 31
0.0
  0
LINE
  8
0
 62
     0
 10
133.185
 20
120.148
 30
0.0
 11
133.985
 21
120.148
 31
0.0
  0
LINE
  8
0
 62
     0
 10
133.985
 20
120.148
 30
0.0
 11
133.985
 21
114.348
 31
0.0
  0
LINE
  8
0
 62
     0
 10
133.985
 20
114.348
 30
0.0
 11
133.185
 21
114.348
 31
0.0
  0
LINE
  8
0
 62
     0
 10
133.185
 20
114.348
 30
0.0
 11
133.185
 21
111.249
 31
0.0
  0
LINE
  8
0
 62
     0
 10
133.185
 20
111.249
 30
0.0
 11
133.985
 21
111.249
 31
0.0
  0
LINE
  8
0
 62
     0
 10
133.985
 20
111.249
 30
0.0
 11
133.985
 21
110.249
 31
0.0
  0
LINE
  8
0
 62
     0
 10
133.985
 20
110.249
 30
0.0
 11
147.986
 21
110.249
 31
0.0
  0
LINE
  8
0
 62
     0
 10
147.986
 20
110.249
 30
0.0
 11
147.986
 21
111.249
 31
0.0
  0
LINE
  8
0
 62
     0
 10
147.986
 20
111.249
 30
0.0
 11
148.785
 21
111.249
 31
0.0
  0
LINE
  8
0
 62
     0
 10
148.785
 20
111.249
 30
0.0
 11
148.785
 21
114.348
 31
0.0
  0
LINE
  8
0
 62
     0
 10
148.785
 20
114.348
 30
0.0
 11
147.986
 21
114.348
 31
0.0
  0
LINE
  8
0
 62
     0
 10
147.986
 20
114.348
 30
0.0
 11
147.986
 21
120.148
 31
0.0
  0
LINE
  8
0
 62
     0
 10
147.986
 20
120.148
 30
0.0
 11
148.785
 21
120.148
 31
0.0
  0
LINE
  8
0
 62
     0
 10
148.785
 20
120.148
 30
0.0
 11
148.785
 21
123.249
 31
0.0
  0
LINE
  8
0
 62
     0
 10
148.785
 20
123.249
 30
0.0
 11
147.986
 21
123.249
 31
0.0
  0
LINE
  8
0
 62
     0
 10
147.986
 20
123.249
 30
0.0
 11
147.986
 21
124.249
 31
0.0
  0
LINE
  8
0
 62
     0
 10
147.986
 20
124.249
 30
0.0
 11
133.985
 21
124.249
 31
0.0
  0
LINE
  8
0
 62
     0
 10
2.13183
 20
133.24
 30
0.0
 11
1.7129
 21
133.026
 31
0.0
  0
LINE
  8
0
 62
     0
 10
1.7129
 20
133.026
 30
0.0
 11
1.38217
 21
132.696
 31
0.0
  0
LINE
  8
0
 62
     0
 10
1.38217
 20
132.696
 30
0.0
 11
1.16858
 21
132.276
 31
0.0
  0
LINE
  8
0
 62
     0
 10
1.16858
 20
132.276
 30
0.0
 11
1.09416
 21
131.814
 31
0.0
  0
LINE
  8
0
 62
     0
 10
1.09416
 20
131.814
 30
0.0
 11
1.16858
 21
131.35
 31
0.0
  0
LINE
  8
0
 62
     0
 10
1.16858
 20
131.35
 30
0.0
 11
1.38217
 21
130.932
 31
0.0
  0
LINE
  8
0
 62
     0
 10
1.38217
 20
130.932
 30
0.0
 11
1.7129
 21
130.599
 31
0.0
  0
LINE
  8
0
 62
     0
 10
1.7129
 20
130.599
 30
0.0
 11
2.13183
 21
130.387
 31
0.0
  0
LINE
  8
0
 62
     0
 10
2.13183
 20
130.387
 30
0.0
 11
2.59485
 21
130.313
 31
0.0
  0
LINE
  8
0
 62
     0
 10
2.59485
 20
130.313
 30
0.0
 11
3.05787
 21
130.387
 31
0.0
  0
LINE
  8
0
 62
     0
 10
3.05787
 20
130.387
 30
0.0
 11
3.47679
 21
130.599
 31
0.0
  0
LINE
  8
0
 62
     0
 10
3.47679
 20
130.599
 30
0.0
 11
3.80891
 21
130.932
 31
0.0
  0
LINE
  8
0
 62
     0
 10
3.80891
 20
130.932
 30
0.0
 11
4.0211
 21
131.35
 31
0.0
  0
LINE
  8
0
 62
     0
 10
4.0211
 20
131.35
 30
0.0
 11
4.09554
 21
131.814
 31
0.0
  0
LINE
  8
0
 62
     0
 10
4.09554
 20
131.814
 30
0.0
 11
4.0211
 21
132.276
 31
0.0
  0
LINE
  8
0
 62
     0
 10
4.0211
 20
132.276
 30
0.0
 11
3.80891
 21
132.696
 31
0.0
  0
LINE
  8
0
 62
     0
 10
3.80891
 20
132.696
 30
0.0
 11
3.47679
 21
133.026
 31
0.0
  0
LINE
  8
0
 62
     0
 10
3.47679
 20
133.026
 30
0.0
 11
3.05787
 21
133.24
 31
0.0
  0
LINE
  8
0
 62
     0
 10
3.05787
 20
133.24
 30
0.0
 11
2.59485
 21
133.313
 31
0.0
  0
LINE
  8
0
 62
     0
 10
2.59485
 20
133.313
 30
0.0
 11
2.13183
 21
133.24
 31
0.0
  0
LINE
  8
0
 62
     0
 10
147.548
 20
133.24
 30
0.0
 11
147.129
 21
133.026
 31
0.0
  0
LINE
  8
0
 62
     0
 10
147.129
 20
133.026
 30
0.0
 11
146.797
 21
132.696
 31
0.0
  0
LINE
  8
0
 62
     0
 10
146.797
 20
132.696
 30
0.0
 11
146.585
 21
132.276
 31
0.0
  0
LINE
  8
0
 62
     0
 10
146.585
 20
132.276
 30
0.0
 11
146.51
 21
131.814
 31
0.0
  0
LINE
  8
0
 62
     0
 10
146.51
 20
131.814
 30
0.0
 11
146.585
 21
131.35
 31
0.0
  0
LINE
  8
0
 62
     0
 10
146.585
 20
131.35
 30
0.0
 11
146.797
 21
130.932
 31
0.0
  0
LINE
  8
0
 62
     0
 10
146.797
 20
130.932
 30
0.0
 11
147.129
 21
130.599
 31
0.0
  0
LINE
  8
0
 62
     0
 10
147.129
 20
130.599
 30
0.0
 11
147.548
 21
130.387
 31
0.0
  0
LINE
  8
0
 62
     0
 10
147.548
 20
130.387
 30
0.0
 11
148.011
 21
130.313
 31
0.0
  0
LINE
  8
0
 62
     0
 10
148.011
 20
130.313
 30
0.0
 11
148.474
 21
130.387
 31
0.0
  0
LINE
  8
0
 62
     0
 10
148.474
 20
130.387
 30
0.0
 11
148.893
 21
130.599
 31
0.0
  0
LINE
  8
0
 62
     0
 10
148.893
 20
130.599
 30
0.0
 11
149.225
 21
130.932
 31
0.0
  0
LINE
  8
0
 62
     0
 10
149.225
 20
130.932
 30
0.0
 11
149.437
 21
131.35
 31
0.0
  0
LINE
  8
0
 62
     0
 10
149.437
 20
131.35
 30
0.0
 11
149.512
 21
131.814
 31
0.0
  0
LINE
  8
0
 62
     0
 10
149.512
 20
131.814
 30
0.0
 11
149.437
 21
132.276
 31
0.0
  0
LINE
  8
0
 62
     0
 10
149.437
 20
132.276
 30
0.0
 11
149.225
 21
132.696
 31
0.0
  0
LINE
  8
0
 62
     0
 10
149.225
 20
132.696
 30
0.0
 11
148.893
 21
133.026
 31
0.0
  0
LINE
  8
0
 62
     0
 10
148.893
 20
133.026
 30
0.0
 11
148.474
 21
133.24
 31
0.0
  0
LINE
  8
0
 62
     0
 10
148.474
 20
133.24
 30
0.0
 11
148.011
 21
133.313
 31
0.0
  0
LINE
  8
0
 62
     0
 10
148.011
 20
133.313
 30
0.0
 11
147.548
 21
133.24
 31
0.0
  0
ENDSEC
  0
EOF
